%TF.GenerationSoftware,KiCad,Pcbnew,7.0.9*%
%TF.CreationDate,2024-04-05T23:44:34+03:00*%
%TF.ProjectId,FARA_KEYBOARD,46415241-5f4b-4455-9942-4f4152442e6b,rev?*%
%TF.SameCoordinates,Original*%
%TF.FileFunction,Legend,Top*%
%TF.FilePolarity,Positive*%
%FSLAX46Y46*%
G04 Gerber Fmt 4.6, Leading zero omitted, Abs format (unit mm)*
G04 Created by KiCad (PCBNEW 7.0.9) date 2024-04-05 23:44:34*
%MOMM*%
%LPD*%
G01*
G04 APERTURE LIST*
%ADD10C,0.150000*%
%ADD11C,0.120000*%
G04 APERTURE END LIST*
D10*
X86679200Y-42297332D02*
X86726819Y-42154475D01*
X86726819Y-42154475D02*
X86726819Y-41916380D01*
X86726819Y-41916380D02*
X86679200Y-41821142D01*
X86679200Y-41821142D02*
X86631580Y-41773523D01*
X86631580Y-41773523D02*
X86536342Y-41725904D01*
X86536342Y-41725904D02*
X86441104Y-41725904D01*
X86441104Y-41725904D02*
X86345866Y-41773523D01*
X86345866Y-41773523D02*
X86298247Y-41821142D01*
X86298247Y-41821142D02*
X86250628Y-41916380D01*
X86250628Y-41916380D02*
X86203009Y-42106856D01*
X86203009Y-42106856D02*
X86155390Y-42202094D01*
X86155390Y-42202094D02*
X86107771Y-42249713D01*
X86107771Y-42249713D02*
X86012533Y-42297332D01*
X86012533Y-42297332D02*
X85917295Y-42297332D01*
X85917295Y-42297332D02*
X85822057Y-42249713D01*
X85822057Y-42249713D02*
X85774438Y-42202094D01*
X85774438Y-42202094D02*
X85726819Y-42106856D01*
X85726819Y-42106856D02*
X85726819Y-41868761D01*
X85726819Y-41868761D02*
X85774438Y-41725904D01*
X85726819Y-41392570D02*
X86726819Y-41154475D01*
X86726819Y-41154475D02*
X86012533Y-40963999D01*
X86012533Y-40963999D02*
X86726819Y-40773523D01*
X86726819Y-40773523D02*
X85726819Y-40535428D01*
X85726819Y-39725904D02*
X85726819Y-39916380D01*
X85726819Y-39916380D02*
X85774438Y-40011618D01*
X85774438Y-40011618D02*
X85822057Y-40059237D01*
X85822057Y-40059237D02*
X85964914Y-40154475D01*
X85964914Y-40154475D02*
X86155390Y-40202094D01*
X86155390Y-40202094D02*
X86536342Y-40202094D01*
X86536342Y-40202094D02*
X86631580Y-40154475D01*
X86631580Y-40154475D02*
X86679200Y-40106856D01*
X86679200Y-40106856D02*
X86726819Y-40011618D01*
X86726819Y-40011618D02*
X86726819Y-39821142D01*
X86726819Y-39821142D02*
X86679200Y-39725904D01*
X86679200Y-39725904D02*
X86631580Y-39678285D01*
X86631580Y-39678285D02*
X86536342Y-39630666D01*
X86536342Y-39630666D02*
X86298247Y-39630666D01*
X86298247Y-39630666D02*
X86203009Y-39678285D01*
X86203009Y-39678285D02*
X86155390Y-39725904D01*
X86155390Y-39725904D02*
X86107771Y-39821142D01*
X86107771Y-39821142D02*
X86107771Y-40011618D01*
X86107771Y-40011618D02*
X86155390Y-40106856D01*
X86155390Y-40106856D02*
X86203009Y-40154475D01*
X86203009Y-40154475D02*
X86298247Y-40202094D01*
X73979200Y-42297332D02*
X74026819Y-42154475D01*
X74026819Y-42154475D02*
X74026819Y-41916380D01*
X74026819Y-41916380D02*
X73979200Y-41821142D01*
X73979200Y-41821142D02*
X73931580Y-41773523D01*
X73931580Y-41773523D02*
X73836342Y-41725904D01*
X73836342Y-41725904D02*
X73741104Y-41725904D01*
X73741104Y-41725904D02*
X73645866Y-41773523D01*
X73645866Y-41773523D02*
X73598247Y-41821142D01*
X73598247Y-41821142D02*
X73550628Y-41916380D01*
X73550628Y-41916380D02*
X73503009Y-42106856D01*
X73503009Y-42106856D02*
X73455390Y-42202094D01*
X73455390Y-42202094D02*
X73407771Y-42249713D01*
X73407771Y-42249713D02*
X73312533Y-42297332D01*
X73312533Y-42297332D02*
X73217295Y-42297332D01*
X73217295Y-42297332D02*
X73122057Y-42249713D01*
X73122057Y-42249713D02*
X73074438Y-42202094D01*
X73074438Y-42202094D02*
X73026819Y-42106856D01*
X73026819Y-42106856D02*
X73026819Y-41868761D01*
X73026819Y-41868761D02*
X73074438Y-41725904D01*
X73026819Y-41392570D02*
X74026819Y-41154475D01*
X74026819Y-41154475D02*
X73312533Y-40963999D01*
X73312533Y-40963999D02*
X74026819Y-40773523D01*
X74026819Y-40773523D02*
X73026819Y-40535428D01*
X73026819Y-39678285D02*
X73026819Y-40154475D01*
X73026819Y-40154475D02*
X73503009Y-40202094D01*
X73503009Y-40202094D02*
X73455390Y-40154475D01*
X73455390Y-40154475D02*
X73407771Y-40059237D01*
X73407771Y-40059237D02*
X73407771Y-39821142D01*
X73407771Y-39821142D02*
X73455390Y-39725904D01*
X73455390Y-39725904D02*
X73503009Y-39678285D01*
X73503009Y-39678285D02*
X73598247Y-39630666D01*
X73598247Y-39630666D02*
X73836342Y-39630666D01*
X73836342Y-39630666D02*
X73931580Y-39678285D01*
X73931580Y-39678285D02*
X73979200Y-39725904D01*
X73979200Y-39725904D02*
X74026819Y-39821142D01*
X74026819Y-39821142D02*
X74026819Y-40059237D01*
X74026819Y-40059237D02*
X73979200Y-40154475D01*
X73979200Y-40154475D02*
X73931580Y-40202094D01*
X61279200Y-42297332D02*
X61326819Y-42154475D01*
X61326819Y-42154475D02*
X61326819Y-41916380D01*
X61326819Y-41916380D02*
X61279200Y-41821142D01*
X61279200Y-41821142D02*
X61231580Y-41773523D01*
X61231580Y-41773523D02*
X61136342Y-41725904D01*
X61136342Y-41725904D02*
X61041104Y-41725904D01*
X61041104Y-41725904D02*
X60945866Y-41773523D01*
X60945866Y-41773523D02*
X60898247Y-41821142D01*
X60898247Y-41821142D02*
X60850628Y-41916380D01*
X60850628Y-41916380D02*
X60803009Y-42106856D01*
X60803009Y-42106856D02*
X60755390Y-42202094D01*
X60755390Y-42202094D02*
X60707771Y-42249713D01*
X60707771Y-42249713D02*
X60612533Y-42297332D01*
X60612533Y-42297332D02*
X60517295Y-42297332D01*
X60517295Y-42297332D02*
X60422057Y-42249713D01*
X60422057Y-42249713D02*
X60374438Y-42202094D01*
X60374438Y-42202094D02*
X60326819Y-42106856D01*
X60326819Y-42106856D02*
X60326819Y-41868761D01*
X60326819Y-41868761D02*
X60374438Y-41725904D01*
X60326819Y-41392570D02*
X61326819Y-41154475D01*
X61326819Y-41154475D02*
X60612533Y-40963999D01*
X60612533Y-40963999D02*
X61326819Y-40773523D01*
X61326819Y-40773523D02*
X60326819Y-40535428D01*
X60660152Y-39725904D02*
X61326819Y-39725904D01*
X60279200Y-39963999D02*
X60993485Y-40202094D01*
X60993485Y-40202094D02*
X60993485Y-39583047D01*
X48579200Y-42297332D02*
X48626819Y-42154475D01*
X48626819Y-42154475D02*
X48626819Y-41916380D01*
X48626819Y-41916380D02*
X48579200Y-41821142D01*
X48579200Y-41821142D02*
X48531580Y-41773523D01*
X48531580Y-41773523D02*
X48436342Y-41725904D01*
X48436342Y-41725904D02*
X48341104Y-41725904D01*
X48341104Y-41725904D02*
X48245866Y-41773523D01*
X48245866Y-41773523D02*
X48198247Y-41821142D01*
X48198247Y-41821142D02*
X48150628Y-41916380D01*
X48150628Y-41916380D02*
X48103009Y-42106856D01*
X48103009Y-42106856D02*
X48055390Y-42202094D01*
X48055390Y-42202094D02*
X48007771Y-42249713D01*
X48007771Y-42249713D02*
X47912533Y-42297332D01*
X47912533Y-42297332D02*
X47817295Y-42297332D01*
X47817295Y-42297332D02*
X47722057Y-42249713D01*
X47722057Y-42249713D02*
X47674438Y-42202094D01*
X47674438Y-42202094D02*
X47626819Y-42106856D01*
X47626819Y-42106856D02*
X47626819Y-41868761D01*
X47626819Y-41868761D02*
X47674438Y-41725904D01*
X47626819Y-41392570D02*
X48626819Y-41154475D01*
X48626819Y-41154475D02*
X47912533Y-40963999D01*
X47912533Y-40963999D02*
X48626819Y-40773523D01*
X48626819Y-40773523D02*
X47626819Y-40535428D01*
X47626819Y-40249713D02*
X47626819Y-39630666D01*
X47626819Y-39630666D02*
X48007771Y-39963999D01*
X48007771Y-39963999D02*
X48007771Y-39821142D01*
X48007771Y-39821142D02*
X48055390Y-39725904D01*
X48055390Y-39725904D02*
X48103009Y-39678285D01*
X48103009Y-39678285D02*
X48198247Y-39630666D01*
X48198247Y-39630666D02*
X48436342Y-39630666D01*
X48436342Y-39630666D02*
X48531580Y-39678285D01*
X48531580Y-39678285D02*
X48579200Y-39725904D01*
X48579200Y-39725904D02*
X48626819Y-39821142D01*
X48626819Y-39821142D02*
X48626819Y-40106856D01*
X48626819Y-40106856D02*
X48579200Y-40202094D01*
X48579200Y-40202094D02*
X48531580Y-40249713D01*
X35879200Y-42297332D02*
X35926819Y-42154475D01*
X35926819Y-42154475D02*
X35926819Y-41916380D01*
X35926819Y-41916380D02*
X35879200Y-41821142D01*
X35879200Y-41821142D02*
X35831580Y-41773523D01*
X35831580Y-41773523D02*
X35736342Y-41725904D01*
X35736342Y-41725904D02*
X35641104Y-41725904D01*
X35641104Y-41725904D02*
X35545866Y-41773523D01*
X35545866Y-41773523D02*
X35498247Y-41821142D01*
X35498247Y-41821142D02*
X35450628Y-41916380D01*
X35450628Y-41916380D02*
X35403009Y-42106856D01*
X35403009Y-42106856D02*
X35355390Y-42202094D01*
X35355390Y-42202094D02*
X35307771Y-42249713D01*
X35307771Y-42249713D02*
X35212533Y-42297332D01*
X35212533Y-42297332D02*
X35117295Y-42297332D01*
X35117295Y-42297332D02*
X35022057Y-42249713D01*
X35022057Y-42249713D02*
X34974438Y-42202094D01*
X34974438Y-42202094D02*
X34926819Y-42106856D01*
X34926819Y-42106856D02*
X34926819Y-41868761D01*
X34926819Y-41868761D02*
X34974438Y-41725904D01*
X34926819Y-41392570D02*
X35926819Y-41154475D01*
X35926819Y-41154475D02*
X35212533Y-40963999D01*
X35212533Y-40963999D02*
X35926819Y-40773523D01*
X35926819Y-40773523D02*
X34926819Y-40535428D01*
X35022057Y-40202094D02*
X34974438Y-40154475D01*
X34974438Y-40154475D02*
X34926819Y-40059237D01*
X34926819Y-40059237D02*
X34926819Y-39821142D01*
X34926819Y-39821142D02*
X34974438Y-39725904D01*
X34974438Y-39725904D02*
X35022057Y-39678285D01*
X35022057Y-39678285D02*
X35117295Y-39630666D01*
X35117295Y-39630666D02*
X35212533Y-39630666D01*
X35212533Y-39630666D02*
X35355390Y-39678285D01*
X35355390Y-39678285D02*
X35926819Y-40249713D01*
X35926819Y-40249713D02*
X35926819Y-39630666D01*
X23179200Y-42297332D02*
X23226819Y-42154475D01*
X23226819Y-42154475D02*
X23226819Y-41916380D01*
X23226819Y-41916380D02*
X23179200Y-41821142D01*
X23179200Y-41821142D02*
X23131580Y-41773523D01*
X23131580Y-41773523D02*
X23036342Y-41725904D01*
X23036342Y-41725904D02*
X22941104Y-41725904D01*
X22941104Y-41725904D02*
X22845866Y-41773523D01*
X22845866Y-41773523D02*
X22798247Y-41821142D01*
X22798247Y-41821142D02*
X22750628Y-41916380D01*
X22750628Y-41916380D02*
X22703009Y-42106856D01*
X22703009Y-42106856D02*
X22655390Y-42202094D01*
X22655390Y-42202094D02*
X22607771Y-42249713D01*
X22607771Y-42249713D02*
X22512533Y-42297332D01*
X22512533Y-42297332D02*
X22417295Y-42297332D01*
X22417295Y-42297332D02*
X22322057Y-42249713D01*
X22322057Y-42249713D02*
X22274438Y-42202094D01*
X22274438Y-42202094D02*
X22226819Y-42106856D01*
X22226819Y-42106856D02*
X22226819Y-41868761D01*
X22226819Y-41868761D02*
X22274438Y-41725904D01*
X22226819Y-41392570D02*
X23226819Y-41154475D01*
X23226819Y-41154475D02*
X22512533Y-40963999D01*
X22512533Y-40963999D02*
X23226819Y-40773523D01*
X23226819Y-40773523D02*
X22226819Y-40535428D01*
X23226819Y-39630666D02*
X23226819Y-40202094D01*
X23226819Y-39916380D02*
X22226819Y-39916380D01*
X22226819Y-39916380D02*
X22369676Y-40011618D01*
X22369676Y-40011618D02*
X22464914Y-40106856D01*
X22464914Y-40106856D02*
X22512533Y-40202094D01*
X24516819Y-25897333D02*
X25231104Y-25897333D01*
X25231104Y-25897333D02*
X25373961Y-25944952D01*
X25373961Y-25944952D02*
X25469200Y-26040190D01*
X25469200Y-26040190D02*
X25516819Y-26183047D01*
X25516819Y-26183047D02*
X25516819Y-26278285D01*
X25516819Y-24897333D02*
X25516819Y-25468761D01*
X25516819Y-25183047D02*
X24516819Y-25183047D01*
X24516819Y-25183047D02*
X24659676Y-25278285D01*
X24659676Y-25278285D02*
X24754914Y-25373523D01*
X24754914Y-25373523D02*
X24802533Y-25468761D01*
D11*
%TO.C,SW6*%
X87282000Y-34644000D02*
X90002000Y-34644000D01*
X90002000Y-46944000D02*
X87282000Y-46944000D01*
X95002000Y-46944000D02*
X91862000Y-46944000D01*
X87282000Y-46944000D02*
X87282000Y-34644000D01*
X96862000Y-34644000D02*
X99582000Y-34644000D01*
X91862000Y-34644000D02*
X95002000Y-34644000D01*
X99582000Y-34644000D02*
X99582000Y-46944000D01*
X99582000Y-46944000D02*
X96862000Y-46944000D01*
X98051050Y-40694000D02*
G75*
G03*
X98051050Y-40694000I-4579050J0D01*
G01*
%TO.C,SW5*%
X74582000Y-34644000D02*
X77302000Y-34644000D01*
X77302000Y-46944000D02*
X74582000Y-46944000D01*
X82302000Y-46944000D02*
X79162000Y-46944000D01*
X74582000Y-46944000D02*
X74582000Y-34644000D01*
X84162000Y-34644000D02*
X86882000Y-34644000D01*
X79162000Y-34644000D02*
X82302000Y-34644000D01*
X86882000Y-34644000D02*
X86882000Y-46944000D01*
X86882000Y-46944000D02*
X84162000Y-46944000D01*
X85351050Y-40694000D02*
G75*
G03*
X85351050Y-40694000I-4579050J0D01*
G01*
%TO.C,SW4*%
X72651050Y-40694000D02*
G75*
G03*
X72651050Y-40694000I-4579050J0D01*
G01*
X74182000Y-46944000D02*
X71462000Y-46944000D01*
X74182000Y-34644000D02*
X74182000Y-46944000D01*
X66462000Y-34644000D02*
X69602000Y-34644000D01*
X71462000Y-34644000D02*
X74182000Y-34644000D01*
X61882000Y-46944000D02*
X61882000Y-34644000D01*
X69602000Y-46944000D02*
X66462000Y-46944000D01*
X64602000Y-46944000D02*
X61882000Y-46944000D01*
X61882000Y-34644000D02*
X64602000Y-34644000D01*
%TO.C,SW3*%
X49182000Y-34644000D02*
X51902000Y-34644000D01*
X51902000Y-46944000D02*
X49182000Y-46944000D01*
X56902000Y-46944000D02*
X53762000Y-46944000D01*
X49182000Y-46944000D02*
X49182000Y-34644000D01*
X58762000Y-34644000D02*
X61482000Y-34644000D01*
X53762000Y-34644000D02*
X56902000Y-34644000D01*
X61482000Y-34644000D02*
X61482000Y-46944000D01*
X61482000Y-46944000D02*
X58762000Y-46944000D01*
X59951050Y-40694000D02*
G75*
G03*
X59951050Y-40694000I-4579050J0D01*
G01*
%TO.C,SW2*%
X36482000Y-34644000D02*
X39202000Y-34644000D01*
X39202000Y-46944000D02*
X36482000Y-46944000D01*
X44202000Y-46944000D02*
X41062000Y-46944000D01*
X36482000Y-46944000D02*
X36482000Y-34644000D01*
X46062000Y-34644000D02*
X48782000Y-34644000D01*
X41062000Y-34644000D02*
X44202000Y-34644000D01*
X48782000Y-34644000D02*
X48782000Y-46944000D01*
X48782000Y-46944000D02*
X46062000Y-46944000D01*
X47251050Y-40694000D02*
G75*
G03*
X47251050Y-40694000I-4579050J0D01*
G01*
%TO.C,SW1*%
X23782000Y-34644000D02*
X26502000Y-34644000D01*
X26502000Y-46944000D02*
X23782000Y-46944000D01*
X31502000Y-46944000D02*
X28362000Y-46944000D01*
X23782000Y-46944000D02*
X23782000Y-34644000D01*
X33362000Y-34644000D02*
X36082000Y-34644000D01*
X28362000Y-34644000D02*
X31502000Y-34644000D01*
X36082000Y-34644000D02*
X36082000Y-46944000D01*
X36082000Y-46944000D02*
X33362000Y-46944000D01*
X34551050Y-40694000D02*
G75*
G03*
X34551050Y-40694000I-4579050J0D01*
G01*
%TO.C,J1*%
X28662000Y-26894000D02*
X28662000Y-24234000D01*
X28662000Y-26894000D02*
X43962000Y-26894000D01*
X26062000Y-26894000D02*
X26062000Y-25564000D01*
X43962000Y-26894000D02*
X43962000Y-24234000D01*
X27392000Y-26894000D02*
X26062000Y-26894000D01*
X28662000Y-24234000D02*
X43962000Y-24234000D01*
%TD*%
M02*
