%TF.GenerationSoftware,KiCad,Pcbnew,7.0.9*%
%TF.CreationDate,2024-04-17T16:56:01+03:00*%
%TF.ProjectId,FARA_KEYBOARD,46415241-5f4b-4455-9942-4f4152442e6b,rev?*%
%TF.SameCoordinates,Original*%
%TF.FileFunction,Legend,Top*%
%TF.FilePolarity,Positive*%
%FSLAX46Y46*%
G04 Gerber Fmt 4.6, Leading zero omitted, Abs format (unit mm)*
G04 Created by KiCad (PCBNEW 7.0.9) date 2024-04-17 16:56:01*
%MOMM*%
%LPD*%
G01*
G04 APERTURE LIST*
%ADD10C,0.150000*%
%ADD11C,0.120000*%
G04 APERTURE END LIST*
D10*
X50466667Y-40607200D02*
X50609524Y-40654819D01*
X50609524Y-40654819D02*
X50847619Y-40654819D01*
X50847619Y-40654819D02*
X50942857Y-40607200D01*
X50942857Y-40607200D02*
X50990476Y-40559580D01*
X50990476Y-40559580D02*
X51038095Y-40464342D01*
X51038095Y-40464342D02*
X51038095Y-40369104D01*
X51038095Y-40369104D02*
X50990476Y-40273866D01*
X50990476Y-40273866D02*
X50942857Y-40226247D01*
X50942857Y-40226247D02*
X50847619Y-40178628D01*
X50847619Y-40178628D02*
X50657143Y-40131009D01*
X50657143Y-40131009D02*
X50561905Y-40083390D01*
X50561905Y-40083390D02*
X50514286Y-40035771D01*
X50514286Y-40035771D02*
X50466667Y-39940533D01*
X50466667Y-39940533D02*
X50466667Y-39845295D01*
X50466667Y-39845295D02*
X50514286Y-39750057D01*
X50514286Y-39750057D02*
X50561905Y-39702438D01*
X50561905Y-39702438D02*
X50657143Y-39654819D01*
X50657143Y-39654819D02*
X50895238Y-39654819D01*
X50895238Y-39654819D02*
X51038095Y-39702438D01*
X51371429Y-39654819D02*
X51609524Y-40654819D01*
X51609524Y-40654819D02*
X51800000Y-39940533D01*
X51800000Y-39940533D02*
X51990476Y-40654819D01*
X51990476Y-40654819D02*
X52228572Y-39654819D01*
X53038095Y-39988152D02*
X53038095Y-40654819D01*
X52800000Y-39607200D02*
X52561905Y-40321485D01*
X52561905Y-40321485D02*
X53180952Y-40321485D01*
X28066667Y-40007200D02*
X28209524Y-40054819D01*
X28209524Y-40054819D02*
X28447619Y-40054819D01*
X28447619Y-40054819D02*
X28542857Y-40007200D01*
X28542857Y-40007200D02*
X28590476Y-39959580D01*
X28590476Y-39959580D02*
X28638095Y-39864342D01*
X28638095Y-39864342D02*
X28638095Y-39769104D01*
X28638095Y-39769104D02*
X28590476Y-39673866D01*
X28590476Y-39673866D02*
X28542857Y-39626247D01*
X28542857Y-39626247D02*
X28447619Y-39578628D01*
X28447619Y-39578628D02*
X28257143Y-39531009D01*
X28257143Y-39531009D02*
X28161905Y-39483390D01*
X28161905Y-39483390D02*
X28114286Y-39435771D01*
X28114286Y-39435771D02*
X28066667Y-39340533D01*
X28066667Y-39340533D02*
X28066667Y-39245295D01*
X28066667Y-39245295D02*
X28114286Y-39150057D01*
X28114286Y-39150057D02*
X28161905Y-39102438D01*
X28161905Y-39102438D02*
X28257143Y-39054819D01*
X28257143Y-39054819D02*
X28495238Y-39054819D01*
X28495238Y-39054819D02*
X28638095Y-39102438D01*
X28971429Y-39054819D02*
X29209524Y-40054819D01*
X29209524Y-40054819D02*
X29400000Y-39340533D01*
X29400000Y-39340533D02*
X29590476Y-40054819D01*
X29590476Y-40054819D02*
X29828572Y-39054819D01*
X30733333Y-40054819D02*
X30161905Y-40054819D01*
X30447619Y-40054819D02*
X30447619Y-39054819D01*
X30447619Y-39054819D02*
X30352381Y-39197676D01*
X30352381Y-39197676D02*
X30257143Y-39292914D01*
X30257143Y-39292914D02*
X30161905Y-39340533D01*
X58066667Y-40407200D02*
X58209524Y-40454819D01*
X58209524Y-40454819D02*
X58447619Y-40454819D01*
X58447619Y-40454819D02*
X58542857Y-40407200D01*
X58542857Y-40407200D02*
X58590476Y-40359580D01*
X58590476Y-40359580D02*
X58638095Y-40264342D01*
X58638095Y-40264342D02*
X58638095Y-40169104D01*
X58638095Y-40169104D02*
X58590476Y-40073866D01*
X58590476Y-40073866D02*
X58542857Y-40026247D01*
X58542857Y-40026247D02*
X58447619Y-39978628D01*
X58447619Y-39978628D02*
X58257143Y-39931009D01*
X58257143Y-39931009D02*
X58161905Y-39883390D01*
X58161905Y-39883390D02*
X58114286Y-39835771D01*
X58114286Y-39835771D02*
X58066667Y-39740533D01*
X58066667Y-39740533D02*
X58066667Y-39645295D01*
X58066667Y-39645295D02*
X58114286Y-39550057D01*
X58114286Y-39550057D02*
X58161905Y-39502438D01*
X58161905Y-39502438D02*
X58257143Y-39454819D01*
X58257143Y-39454819D02*
X58495238Y-39454819D01*
X58495238Y-39454819D02*
X58638095Y-39502438D01*
X58971429Y-39454819D02*
X59209524Y-40454819D01*
X59209524Y-40454819D02*
X59400000Y-39740533D01*
X59400000Y-39740533D02*
X59590476Y-40454819D01*
X59590476Y-40454819D02*
X59828572Y-39454819D01*
X60685714Y-39454819D02*
X60209524Y-39454819D01*
X60209524Y-39454819D02*
X60161905Y-39931009D01*
X60161905Y-39931009D02*
X60209524Y-39883390D01*
X60209524Y-39883390D02*
X60304762Y-39835771D01*
X60304762Y-39835771D02*
X60542857Y-39835771D01*
X60542857Y-39835771D02*
X60638095Y-39883390D01*
X60638095Y-39883390D02*
X60685714Y-39931009D01*
X60685714Y-39931009D02*
X60733333Y-40026247D01*
X60733333Y-40026247D02*
X60733333Y-40264342D01*
X60733333Y-40264342D02*
X60685714Y-40359580D01*
X60685714Y-40359580D02*
X60638095Y-40407200D01*
X60638095Y-40407200D02*
X60542857Y-40454819D01*
X60542857Y-40454819D02*
X60304762Y-40454819D01*
X60304762Y-40454819D02*
X60209524Y-40407200D01*
X60209524Y-40407200D02*
X60161905Y-40359580D01*
X44666666Y-41254819D02*
X44666666Y-41969104D01*
X44666666Y-41969104D02*
X44619047Y-42111961D01*
X44619047Y-42111961D02*
X44523809Y-42207200D01*
X44523809Y-42207200D02*
X44380952Y-42254819D01*
X44380952Y-42254819D02*
X44285714Y-42254819D01*
X45666666Y-42254819D02*
X45095238Y-42254819D01*
X45380952Y-42254819D02*
X45380952Y-41254819D01*
X45380952Y-41254819D02*
X45285714Y-41397676D01*
X45285714Y-41397676D02*
X45190476Y-41492914D01*
X45190476Y-41492914D02*
X45095238Y-41540533D01*
X66066667Y-40407200D02*
X66209524Y-40454819D01*
X66209524Y-40454819D02*
X66447619Y-40454819D01*
X66447619Y-40454819D02*
X66542857Y-40407200D01*
X66542857Y-40407200D02*
X66590476Y-40359580D01*
X66590476Y-40359580D02*
X66638095Y-40264342D01*
X66638095Y-40264342D02*
X66638095Y-40169104D01*
X66638095Y-40169104D02*
X66590476Y-40073866D01*
X66590476Y-40073866D02*
X66542857Y-40026247D01*
X66542857Y-40026247D02*
X66447619Y-39978628D01*
X66447619Y-39978628D02*
X66257143Y-39931009D01*
X66257143Y-39931009D02*
X66161905Y-39883390D01*
X66161905Y-39883390D02*
X66114286Y-39835771D01*
X66114286Y-39835771D02*
X66066667Y-39740533D01*
X66066667Y-39740533D02*
X66066667Y-39645295D01*
X66066667Y-39645295D02*
X66114286Y-39550057D01*
X66114286Y-39550057D02*
X66161905Y-39502438D01*
X66161905Y-39502438D02*
X66257143Y-39454819D01*
X66257143Y-39454819D02*
X66495238Y-39454819D01*
X66495238Y-39454819D02*
X66638095Y-39502438D01*
X66971429Y-39454819D02*
X67209524Y-40454819D01*
X67209524Y-40454819D02*
X67400000Y-39740533D01*
X67400000Y-39740533D02*
X67590476Y-40454819D01*
X67590476Y-40454819D02*
X67828572Y-39454819D01*
X68638095Y-39454819D02*
X68447619Y-39454819D01*
X68447619Y-39454819D02*
X68352381Y-39502438D01*
X68352381Y-39502438D02*
X68304762Y-39550057D01*
X68304762Y-39550057D02*
X68209524Y-39692914D01*
X68209524Y-39692914D02*
X68161905Y-39883390D01*
X68161905Y-39883390D02*
X68161905Y-40264342D01*
X68161905Y-40264342D02*
X68209524Y-40359580D01*
X68209524Y-40359580D02*
X68257143Y-40407200D01*
X68257143Y-40407200D02*
X68352381Y-40454819D01*
X68352381Y-40454819D02*
X68542857Y-40454819D01*
X68542857Y-40454819D02*
X68638095Y-40407200D01*
X68638095Y-40407200D02*
X68685714Y-40359580D01*
X68685714Y-40359580D02*
X68733333Y-40264342D01*
X68733333Y-40264342D02*
X68733333Y-40026247D01*
X68733333Y-40026247D02*
X68685714Y-39931009D01*
X68685714Y-39931009D02*
X68638095Y-39883390D01*
X68638095Y-39883390D02*
X68542857Y-39835771D01*
X68542857Y-39835771D02*
X68352381Y-39835771D01*
X68352381Y-39835771D02*
X68257143Y-39883390D01*
X68257143Y-39883390D02*
X68209524Y-39931009D01*
X68209524Y-39931009D02*
X68161905Y-40026247D01*
X43466667Y-40607200D02*
X43609524Y-40654819D01*
X43609524Y-40654819D02*
X43847619Y-40654819D01*
X43847619Y-40654819D02*
X43942857Y-40607200D01*
X43942857Y-40607200D02*
X43990476Y-40559580D01*
X43990476Y-40559580D02*
X44038095Y-40464342D01*
X44038095Y-40464342D02*
X44038095Y-40369104D01*
X44038095Y-40369104D02*
X43990476Y-40273866D01*
X43990476Y-40273866D02*
X43942857Y-40226247D01*
X43942857Y-40226247D02*
X43847619Y-40178628D01*
X43847619Y-40178628D02*
X43657143Y-40131009D01*
X43657143Y-40131009D02*
X43561905Y-40083390D01*
X43561905Y-40083390D02*
X43514286Y-40035771D01*
X43514286Y-40035771D02*
X43466667Y-39940533D01*
X43466667Y-39940533D02*
X43466667Y-39845295D01*
X43466667Y-39845295D02*
X43514286Y-39750057D01*
X43514286Y-39750057D02*
X43561905Y-39702438D01*
X43561905Y-39702438D02*
X43657143Y-39654819D01*
X43657143Y-39654819D02*
X43895238Y-39654819D01*
X43895238Y-39654819D02*
X44038095Y-39702438D01*
X44371429Y-39654819D02*
X44609524Y-40654819D01*
X44609524Y-40654819D02*
X44800000Y-39940533D01*
X44800000Y-39940533D02*
X44990476Y-40654819D01*
X44990476Y-40654819D02*
X45228572Y-39654819D01*
X45514286Y-39654819D02*
X46133333Y-39654819D01*
X46133333Y-39654819D02*
X45800000Y-40035771D01*
X45800000Y-40035771D02*
X45942857Y-40035771D01*
X45942857Y-40035771D02*
X46038095Y-40083390D01*
X46038095Y-40083390D02*
X46085714Y-40131009D01*
X46085714Y-40131009D02*
X46133333Y-40226247D01*
X46133333Y-40226247D02*
X46133333Y-40464342D01*
X46133333Y-40464342D02*
X46085714Y-40559580D01*
X46085714Y-40559580D02*
X46038095Y-40607200D01*
X46038095Y-40607200D02*
X45942857Y-40654819D01*
X45942857Y-40654819D02*
X45657143Y-40654819D01*
X45657143Y-40654819D02*
X45561905Y-40607200D01*
X45561905Y-40607200D02*
X45514286Y-40559580D01*
X35266667Y-40207200D02*
X35409524Y-40254819D01*
X35409524Y-40254819D02*
X35647619Y-40254819D01*
X35647619Y-40254819D02*
X35742857Y-40207200D01*
X35742857Y-40207200D02*
X35790476Y-40159580D01*
X35790476Y-40159580D02*
X35838095Y-40064342D01*
X35838095Y-40064342D02*
X35838095Y-39969104D01*
X35838095Y-39969104D02*
X35790476Y-39873866D01*
X35790476Y-39873866D02*
X35742857Y-39826247D01*
X35742857Y-39826247D02*
X35647619Y-39778628D01*
X35647619Y-39778628D02*
X35457143Y-39731009D01*
X35457143Y-39731009D02*
X35361905Y-39683390D01*
X35361905Y-39683390D02*
X35314286Y-39635771D01*
X35314286Y-39635771D02*
X35266667Y-39540533D01*
X35266667Y-39540533D02*
X35266667Y-39445295D01*
X35266667Y-39445295D02*
X35314286Y-39350057D01*
X35314286Y-39350057D02*
X35361905Y-39302438D01*
X35361905Y-39302438D02*
X35457143Y-39254819D01*
X35457143Y-39254819D02*
X35695238Y-39254819D01*
X35695238Y-39254819D02*
X35838095Y-39302438D01*
X36171429Y-39254819D02*
X36409524Y-40254819D01*
X36409524Y-40254819D02*
X36600000Y-39540533D01*
X36600000Y-39540533D02*
X36790476Y-40254819D01*
X36790476Y-40254819D02*
X37028572Y-39254819D01*
X37361905Y-39350057D02*
X37409524Y-39302438D01*
X37409524Y-39302438D02*
X37504762Y-39254819D01*
X37504762Y-39254819D02*
X37742857Y-39254819D01*
X37742857Y-39254819D02*
X37838095Y-39302438D01*
X37838095Y-39302438D02*
X37885714Y-39350057D01*
X37885714Y-39350057D02*
X37933333Y-39445295D01*
X37933333Y-39445295D02*
X37933333Y-39540533D01*
X37933333Y-39540533D02*
X37885714Y-39683390D01*
X37885714Y-39683390D02*
X37314286Y-40254819D01*
X37314286Y-40254819D02*
X37933333Y-40254819D01*
D11*
%TO.C,SW4*%
X51600000Y-37550000D02*
X53100000Y-37550000D01*
X55600000Y-36300000D02*
X55600000Y-31800000D01*
X49100000Y-31800000D02*
X49100000Y-36300000D01*
X53100000Y-30550000D02*
X51600000Y-30550000D01*
%TO.C,SW1*%
X28800000Y-37550000D02*
X30300000Y-37550000D01*
X32800000Y-36300000D02*
X32800000Y-31800000D01*
X26300000Y-31800000D02*
X26300000Y-36300000D01*
X30300000Y-30550000D02*
X28800000Y-30550000D01*
%TO.C,SW5*%
X59200000Y-37550000D02*
X60700000Y-37550000D01*
X63200000Y-36300000D02*
X63200000Y-31800000D01*
X56700000Y-31800000D02*
X56700000Y-36300000D01*
X60700000Y-30550000D02*
X59200000Y-30550000D01*
%TO.C,J1*%
X26070000Y-44130000D02*
X26070000Y-42800000D01*
X27400000Y-44130000D02*
X26070000Y-44130000D01*
X28670000Y-44130000D02*
X43970000Y-44130000D01*
X28670000Y-44130000D02*
X28670000Y-41470000D01*
X43970000Y-44130000D02*
X43970000Y-41470000D01*
X28670000Y-41470000D02*
X43970000Y-41470000D01*
%TO.C,SW6*%
X66800000Y-37550000D02*
X68300000Y-37550000D01*
X70800000Y-36300000D02*
X70800000Y-31800000D01*
X64300000Y-31800000D02*
X64300000Y-36300000D01*
X68300000Y-30550000D02*
X66800000Y-30550000D01*
%TO.C,SW3*%
X44000000Y-37550000D02*
X45500000Y-37550000D01*
X48000000Y-36300000D02*
X48000000Y-31800000D01*
X41500000Y-31800000D02*
X41500000Y-36300000D01*
X45500000Y-30550000D02*
X44000000Y-30550000D01*
%TO.C,SW2*%
X36400000Y-37550000D02*
X37900000Y-37550000D01*
X40400000Y-36300000D02*
X40400000Y-31800000D01*
X33900000Y-31800000D02*
X33900000Y-36300000D01*
X37900000Y-30550000D02*
X36400000Y-30550000D01*
%TD*%
M02*
