%TF.GenerationSoftware,KiCad,Pcbnew,7.0.9*%
%TF.CreationDate,2024-04-05T23:44:34+03:00*%
%TF.ProjectId,FARA_KEYBOARD,46415241-5f4b-4455-9942-4f4152442e6b,rev?*%
%TF.SameCoordinates,Original*%
%TF.FileFunction,Copper,L2,Bot*%
%TF.FilePolarity,Positive*%
%FSLAX46Y46*%
G04 Gerber Fmt 4.6, Leading zero omitted, Abs format (unit mm)*
G04 Created by KiCad (PCBNEW 7.0.9) date 2024-04-05 23:44:34*
%MOMM*%
%LPD*%
G01*
G04 APERTURE LIST*
%TA.AperFunction,ComponentPad*%
%ADD10O,1.850000X3.048000*%
%TD*%
%TA.AperFunction,ComponentPad*%
%ADD11R,1.700000X1.700000*%
%TD*%
%TA.AperFunction,ComponentPad*%
%ADD12O,1.700000X1.700000*%
%TD*%
%TA.AperFunction,ViaPad*%
%ADD13C,0.800000*%
%TD*%
G04 APERTURE END LIST*
D10*
%TO.P,SW6,1,1*%
%TO.N,Net-(J1-Pin_6)*%
X90932000Y-47044000D03*
X90932000Y-34544000D03*
%TO.P,SW6,2,2*%
%TO.N,GND*%
X95932000Y-47044000D03*
X95932000Y-34544000D03*
%TD*%
%TO.P,SW5,1,1*%
%TO.N,Net-(J1-Pin_5)*%
X78232000Y-47044000D03*
X78232000Y-34544000D03*
%TO.P,SW5,2,2*%
%TO.N,GND*%
X83232000Y-47044000D03*
X83232000Y-34544000D03*
%TD*%
%TO.P,SW4,2,2*%
%TO.N,GND*%
X70532000Y-34544000D03*
X70532000Y-47044000D03*
%TO.P,SW4,1,1*%
%TO.N,Net-(J1-Pin_4)*%
X65532000Y-34544000D03*
X65532000Y-47044000D03*
%TD*%
%TO.P,SW3,1,1*%
%TO.N,Net-(J1-Pin_3)*%
X52832000Y-47044000D03*
X52832000Y-34544000D03*
%TO.P,SW3,2,2*%
%TO.N,GND*%
X57832000Y-47044000D03*
X57832000Y-34544000D03*
%TD*%
%TO.P,SW2,1,1*%
%TO.N,Net-(J1-Pin_2)*%
X40132000Y-47044000D03*
X40132000Y-34544000D03*
%TO.P,SW2,2,2*%
%TO.N,GND*%
X45132000Y-47044000D03*
X45132000Y-34544000D03*
%TD*%
%TO.P,SW1,1,1*%
%TO.N,Net-(J1-Pin_1)*%
X27432000Y-47044000D03*
X27432000Y-34544000D03*
%TO.P,SW1,2,2*%
%TO.N,GND*%
X32432000Y-47044000D03*
X32432000Y-34544000D03*
%TD*%
D11*
%TO.P,J1,1,Pin_1*%
%TO.N,Net-(J1-Pin_1)*%
X27392000Y-25564000D03*
D12*
%TO.P,J1,2,Pin_2*%
%TO.N,Net-(J1-Pin_2)*%
X29932000Y-25564000D03*
%TO.P,J1,3,Pin_3*%
%TO.N,Net-(J1-Pin_3)*%
X32472000Y-25564000D03*
%TO.P,J1,4,Pin_4*%
%TO.N,Net-(J1-Pin_4)*%
X35012000Y-25564000D03*
%TO.P,J1,5,Pin_5*%
%TO.N,Net-(J1-Pin_5)*%
X37552000Y-25564000D03*
%TO.P,J1,6,Pin_6*%
%TO.N,Net-(J1-Pin_6)*%
X40092000Y-25564000D03*
%TO.P,J1,7,Pin_7*%
%TO.N,GND*%
X42632000Y-25564000D03*
%TD*%
D13*
%TO.N,GND*%
X60198000Y-31496000D03*
X72644000Y-31242000D03*
X86106000Y-30988000D03*
X104648000Y-38354000D03*
X29464000Y-53848000D03*
X42926000Y-54610000D03*
X55626000Y-54102000D03*
X68072000Y-53848000D03*
X80772000Y-53086000D03*
X93980000Y-53086000D03*
X92964000Y-28702000D03*
X95250000Y-21082000D03*
X81788000Y-20828000D03*
X70358000Y-20574000D03*
X59436000Y-20574000D03*
X49784000Y-20574000D03*
X37084000Y-20320000D03*
X23368000Y-20066000D03*
X93726000Y-40640000D03*
X80772000Y-40640000D03*
X68580000Y-40640000D03*
X55880000Y-40894000D03*
X43180000Y-40640000D03*
X29718000Y-40640000D03*
X18034000Y-47752000D03*
X18034000Y-39116000D03*
X18034000Y-28702000D03*
%TD*%
%TA.AperFunction,Conductor*%
%TO.N,GND*%
G36*
X107639039Y-17799685D02*
G01*
X107684794Y-17852489D01*
X107696000Y-17904000D01*
X107696000Y-56264000D01*
X107676315Y-56331039D01*
X107623511Y-56376794D01*
X107572000Y-56388000D01*
X15364000Y-56388000D01*
X15296961Y-56368315D01*
X15251206Y-56315511D01*
X15240000Y-56264000D01*
X15240000Y-53067763D01*
X16433787Y-53067763D01*
X16463413Y-53337013D01*
X16463415Y-53337024D01*
X16531926Y-53599082D01*
X16531928Y-53599088D01*
X16637870Y-53848390D01*
X16709998Y-53966575D01*
X16778979Y-54079605D01*
X16778986Y-54079615D01*
X16952253Y-54287819D01*
X16952259Y-54287824D01*
X17153998Y-54468582D01*
X17379910Y-54618044D01*
X17625176Y-54733020D01*
X17625183Y-54733022D01*
X17625185Y-54733023D01*
X17884557Y-54811057D01*
X17884564Y-54811058D01*
X17884569Y-54811060D01*
X18152561Y-54850500D01*
X18152566Y-54850500D01*
X18355636Y-54850500D01*
X18407133Y-54846730D01*
X18558156Y-54835677D01*
X18670758Y-54810593D01*
X18822546Y-54776782D01*
X18822548Y-54776781D01*
X18822553Y-54776780D01*
X19075558Y-54680014D01*
X19311777Y-54547441D01*
X19526177Y-54381888D01*
X19714186Y-54186881D01*
X19871799Y-53966579D01*
X19945787Y-53822669D01*
X19995649Y-53725690D01*
X19995651Y-53725684D01*
X19995656Y-53725675D01*
X20083118Y-53469305D01*
X20132319Y-53202933D01*
X20137259Y-53067763D01*
X102433787Y-53067763D01*
X102463413Y-53337013D01*
X102463415Y-53337024D01*
X102531926Y-53599082D01*
X102531928Y-53599088D01*
X102637870Y-53848390D01*
X102709998Y-53966575D01*
X102778979Y-54079605D01*
X102778986Y-54079615D01*
X102952253Y-54287819D01*
X102952259Y-54287824D01*
X103153998Y-54468582D01*
X103379910Y-54618044D01*
X103625176Y-54733020D01*
X103625183Y-54733022D01*
X103625185Y-54733023D01*
X103884557Y-54811057D01*
X103884564Y-54811058D01*
X103884569Y-54811060D01*
X104152561Y-54850500D01*
X104152566Y-54850500D01*
X104355636Y-54850500D01*
X104407133Y-54846730D01*
X104558156Y-54835677D01*
X104670758Y-54810593D01*
X104822546Y-54776782D01*
X104822548Y-54776781D01*
X104822553Y-54776780D01*
X105075558Y-54680014D01*
X105311777Y-54547441D01*
X105526177Y-54381888D01*
X105714186Y-54186881D01*
X105871799Y-53966579D01*
X105945787Y-53822669D01*
X105995649Y-53725690D01*
X105995651Y-53725684D01*
X105995656Y-53725675D01*
X106083118Y-53469305D01*
X106132319Y-53202933D01*
X106142212Y-52932235D01*
X106112586Y-52662982D01*
X106044072Y-52400912D01*
X105938130Y-52151610D01*
X105797018Y-51920390D01*
X105707747Y-51813119D01*
X105623746Y-51712180D01*
X105623740Y-51712175D01*
X105422002Y-51531418D01*
X105196092Y-51381957D01*
X105196090Y-51381956D01*
X104950824Y-51266980D01*
X104950819Y-51266978D01*
X104950814Y-51266976D01*
X104691442Y-51188942D01*
X104691428Y-51188939D01*
X104575791Y-51171921D01*
X104423439Y-51149500D01*
X104220369Y-51149500D01*
X104220364Y-51149500D01*
X104017844Y-51164323D01*
X104017831Y-51164325D01*
X103753453Y-51223217D01*
X103753446Y-51223220D01*
X103500439Y-51319987D01*
X103264226Y-51452557D01*
X103049822Y-51618112D01*
X102861822Y-51813109D01*
X102861816Y-51813116D01*
X102704202Y-52033419D01*
X102704199Y-52033424D01*
X102580350Y-52274309D01*
X102580343Y-52274327D01*
X102492884Y-52530685D01*
X102492881Y-52530699D01*
X102443681Y-52797068D01*
X102443680Y-52797075D01*
X102433787Y-53067763D01*
X20137259Y-53067763D01*
X20142212Y-52932235D01*
X20112586Y-52662982D01*
X20044072Y-52400912D01*
X19938130Y-52151610D01*
X19797018Y-51920390D01*
X19707747Y-51813119D01*
X19623746Y-51712180D01*
X19623740Y-51712175D01*
X19422002Y-51531418D01*
X19196092Y-51381957D01*
X19196090Y-51381956D01*
X18950824Y-51266980D01*
X18950819Y-51266978D01*
X18950814Y-51266976D01*
X18691442Y-51188942D01*
X18691428Y-51188939D01*
X18575791Y-51171921D01*
X18423439Y-51149500D01*
X18220369Y-51149500D01*
X18220364Y-51149500D01*
X18017844Y-51164323D01*
X18017831Y-51164325D01*
X17753453Y-51223217D01*
X17753446Y-51223220D01*
X17500439Y-51319987D01*
X17264226Y-51452557D01*
X17049822Y-51618112D01*
X16861822Y-51813109D01*
X16861816Y-51813116D01*
X16704202Y-52033419D01*
X16704199Y-52033424D01*
X16580350Y-52274309D01*
X16580343Y-52274327D01*
X16492884Y-52530685D01*
X16492881Y-52530699D01*
X16443681Y-52797068D01*
X16443680Y-52797075D01*
X16433787Y-53067763D01*
X15240000Y-53067763D01*
X15240000Y-47703559D01*
X26006500Y-47703559D01*
X26021923Y-47884775D01*
X26021924Y-47884777D01*
X26083068Y-48119608D01*
X26083069Y-48119611D01*
X26183013Y-48340713D01*
X26183020Y-48340725D01*
X26318900Y-48541765D01*
X26318902Y-48541767D01*
X26486803Y-48716952D01*
X26486804Y-48716953D01*
X26681893Y-48861241D01*
X26681895Y-48861242D01*
X26681898Y-48861244D01*
X26898571Y-48970488D01*
X27130591Y-49041543D01*
X27371281Y-49072365D01*
X27613719Y-49062066D01*
X27850928Y-49010944D01*
X28076086Y-48920468D01*
X28282714Y-48793242D01*
X28464869Y-48632925D01*
X28617311Y-48444130D01*
X28735653Y-48232288D01*
X28816491Y-48003493D01*
X28836847Y-47884775D01*
X28857499Y-47764337D01*
X28857500Y-47764326D01*
X28857500Y-47703539D01*
X31007000Y-47703539D01*
X31022417Y-47884692D01*
X31083541Y-48119440D01*
X31183453Y-48340472D01*
X31183458Y-48340480D01*
X31319291Y-48541450D01*
X31319293Y-48541453D01*
X31487135Y-48716575D01*
X31487136Y-48716576D01*
X31682156Y-48860813D01*
X31898757Y-48970021D01*
X32130701Y-49041053D01*
X32130699Y-49041053D01*
X32181999Y-49047622D01*
X32182000Y-49047622D01*
X32182000Y-47648310D01*
X32190817Y-47653158D01*
X32349886Y-47694000D01*
X32472894Y-47694000D01*
X32594933Y-47678583D01*
X32682000Y-47644110D01*
X32682000Y-49046837D01*
X32850781Y-49010463D01*
X32850782Y-49010463D01*
X33075856Y-48920021D01*
X33282415Y-48792838D01*
X33464507Y-48632577D01*
X33464511Y-48632573D01*
X33616890Y-48443855D01*
X33616894Y-48443849D01*
X33735194Y-48232082D01*
X33816003Y-48003370D01*
X33816005Y-48003362D01*
X33856999Y-47764293D01*
X33857000Y-47764285D01*
X33857000Y-47703559D01*
X38706500Y-47703559D01*
X38721923Y-47884775D01*
X38721924Y-47884777D01*
X38783068Y-48119608D01*
X38783069Y-48119611D01*
X38883013Y-48340713D01*
X38883020Y-48340725D01*
X39018900Y-48541765D01*
X39018902Y-48541767D01*
X39186803Y-48716952D01*
X39186804Y-48716953D01*
X39381893Y-48861241D01*
X39381895Y-48861242D01*
X39381898Y-48861244D01*
X39598571Y-48970488D01*
X39830591Y-49041543D01*
X40071281Y-49072365D01*
X40313719Y-49062066D01*
X40550928Y-49010944D01*
X40776086Y-48920468D01*
X40982714Y-48793242D01*
X41164869Y-48632925D01*
X41317311Y-48444130D01*
X41435653Y-48232288D01*
X41516491Y-48003493D01*
X41536847Y-47884775D01*
X41557499Y-47764337D01*
X41557500Y-47764326D01*
X41557500Y-47703539D01*
X43707000Y-47703539D01*
X43722417Y-47884692D01*
X43783541Y-48119440D01*
X43883453Y-48340472D01*
X43883458Y-48340480D01*
X44019291Y-48541450D01*
X44019293Y-48541453D01*
X44187135Y-48716575D01*
X44187136Y-48716576D01*
X44382156Y-48860813D01*
X44598757Y-48970021D01*
X44830701Y-49041053D01*
X44830699Y-49041053D01*
X44882000Y-49047622D01*
X44882000Y-47648310D01*
X44890817Y-47653158D01*
X45049886Y-47694000D01*
X45172894Y-47694000D01*
X45294933Y-47678583D01*
X45382000Y-47644110D01*
X45382000Y-49046837D01*
X45550781Y-49010463D01*
X45550782Y-49010463D01*
X45775856Y-48920021D01*
X45982415Y-48792838D01*
X46164507Y-48632577D01*
X46164511Y-48632573D01*
X46316890Y-48443855D01*
X46316894Y-48443849D01*
X46435194Y-48232082D01*
X46516003Y-48003370D01*
X46516005Y-48003362D01*
X46556999Y-47764293D01*
X46557000Y-47764285D01*
X46557000Y-47703559D01*
X51406500Y-47703559D01*
X51421923Y-47884775D01*
X51421924Y-47884777D01*
X51483068Y-48119608D01*
X51483069Y-48119611D01*
X51583013Y-48340713D01*
X51583020Y-48340725D01*
X51718900Y-48541765D01*
X51718902Y-48541767D01*
X51886803Y-48716952D01*
X51886804Y-48716953D01*
X52081893Y-48861241D01*
X52081895Y-48861242D01*
X52081898Y-48861244D01*
X52298571Y-48970488D01*
X52530591Y-49041543D01*
X52771281Y-49072365D01*
X53013719Y-49062066D01*
X53250928Y-49010944D01*
X53476086Y-48920468D01*
X53682714Y-48793242D01*
X53864869Y-48632925D01*
X54017311Y-48444130D01*
X54135653Y-48232288D01*
X54216491Y-48003493D01*
X54236847Y-47884775D01*
X54257499Y-47764337D01*
X54257500Y-47764326D01*
X54257500Y-47703539D01*
X56407000Y-47703539D01*
X56422417Y-47884692D01*
X56483541Y-48119440D01*
X56583453Y-48340472D01*
X56583458Y-48340480D01*
X56719291Y-48541450D01*
X56719293Y-48541453D01*
X56887135Y-48716575D01*
X56887136Y-48716576D01*
X57082156Y-48860813D01*
X57298757Y-48970021D01*
X57530701Y-49041053D01*
X57530699Y-49041053D01*
X57582000Y-49047622D01*
X57582000Y-47648310D01*
X57590817Y-47653158D01*
X57749886Y-47694000D01*
X57872894Y-47694000D01*
X57994933Y-47678583D01*
X58082000Y-47644110D01*
X58082000Y-49046837D01*
X58250781Y-49010463D01*
X58250782Y-49010463D01*
X58475856Y-48920021D01*
X58682415Y-48792838D01*
X58864507Y-48632577D01*
X58864511Y-48632573D01*
X59016890Y-48443855D01*
X59016894Y-48443849D01*
X59135194Y-48232082D01*
X59216003Y-48003370D01*
X59216005Y-48003362D01*
X59256999Y-47764293D01*
X59257000Y-47764285D01*
X59257000Y-47703559D01*
X64106500Y-47703559D01*
X64121923Y-47884775D01*
X64121924Y-47884777D01*
X64183068Y-48119608D01*
X64183069Y-48119611D01*
X64283013Y-48340713D01*
X64283020Y-48340725D01*
X64418900Y-48541765D01*
X64418902Y-48541767D01*
X64586803Y-48716952D01*
X64586804Y-48716953D01*
X64781893Y-48861241D01*
X64781895Y-48861242D01*
X64781898Y-48861244D01*
X64998571Y-48970488D01*
X65230591Y-49041543D01*
X65471281Y-49072365D01*
X65713719Y-49062066D01*
X65950928Y-49010944D01*
X66176086Y-48920468D01*
X66382714Y-48793242D01*
X66564869Y-48632925D01*
X66717311Y-48444130D01*
X66835653Y-48232288D01*
X66916491Y-48003493D01*
X66936847Y-47884775D01*
X66957499Y-47764337D01*
X66957500Y-47764326D01*
X66957500Y-47703539D01*
X69107000Y-47703539D01*
X69122417Y-47884692D01*
X69183541Y-48119440D01*
X69283453Y-48340472D01*
X69283458Y-48340480D01*
X69419291Y-48541450D01*
X69419293Y-48541453D01*
X69587135Y-48716575D01*
X69587136Y-48716576D01*
X69782156Y-48860813D01*
X69998757Y-48970021D01*
X70230701Y-49041053D01*
X70230699Y-49041053D01*
X70281999Y-49047622D01*
X70282000Y-49047622D01*
X70282000Y-47648310D01*
X70290817Y-47653158D01*
X70449886Y-47694000D01*
X70572894Y-47694000D01*
X70694933Y-47678583D01*
X70782000Y-47644110D01*
X70782000Y-49046837D01*
X70950781Y-49010463D01*
X70950782Y-49010463D01*
X71175856Y-48920021D01*
X71382415Y-48792838D01*
X71564507Y-48632577D01*
X71564511Y-48632573D01*
X71716890Y-48443855D01*
X71716894Y-48443849D01*
X71835194Y-48232082D01*
X71916003Y-48003370D01*
X71916005Y-48003362D01*
X71956999Y-47764293D01*
X71957000Y-47764285D01*
X71957000Y-47703559D01*
X76806500Y-47703559D01*
X76821923Y-47884775D01*
X76821924Y-47884777D01*
X76883068Y-48119608D01*
X76883069Y-48119611D01*
X76983013Y-48340713D01*
X76983020Y-48340725D01*
X77118900Y-48541765D01*
X77118902Y-48541767D01*
X77286803Y-48716952D01*
X77286804Y-48716953D01*
X77481893Y-48861241D01*
X77481895Y-48861242D01*
X77481898Y-48861244D01*
X77698571Y-48970488D01*
X77930591Y-49041543D01*
X78171281Y-49072365D01*
X78413719Y-49062066D01*
X78650928Y-49010944D01*
X78876086Y-48920468D01*
X79082714Y-48793242D01*
X79264869Y-48632925D01*
X79417311Y-48444130D01*
X79535653Y-48232288D01*
X79616491Y-48003493D01*
X79636847Y-47884775D01*
X79657499Y-47764337D01*
X79657500Y-47764326D01*
X79657500Y-47703539D01*
X81807000Y-47703539D01*
X81822417Y-47884692D01*
X81883541Y-48119440D01*
X81983453Y-48340472D01*
X81983458Y-48340480D01*
X82119291Y-48541450D01*
X82119293Y-48541453D01*
X82287135Y-48716575D01*
X82287136Y-48716576D01*
X82482156Y-48860813D01*
X82698757Y-48970021D01*
X82930701Y-49041053D01*
X82930699Y-49041053D01*
X82981999Y-49047622D01*
X82982000Y-49047622D01*
X82982000Y-47648310D01*
X82990817Y-47653158D01*
X83149886Y-47694000D01*
X83272894Y-47694000D01*
X83394933Y-47678583D01*
X83482000Y-47644110D01*
X83482000Y-49046837D01*
X83650781Y-49010463D01*
X83650782Y-49010463D01*
X83875856Y-48920021D01*
X84082415Y-48792838D01*
X84264507Y-48632577D01*
X84264511Y-48632573D01*
X84416890Y-48443855D01*
X84416894Y-48443849D01*
X84535194Y-48232082D01*
X84616003Y-48003370D01*
X84616005Y-48003362D01*
X84656999Y-47764293D01*
X84657000Y-47764285D01*
X84657000Y-47703559D01*
X89506500Y-47703559D01*
X89521923Y-47884775D01*
X89521924Y-47884777D01*
X89583068Y-48119608D01*
X89583069Y-48119611D01*
X89683013Y-48340713D01*
X89683020Y-48340725D01*
X89818900Y-48541765D01*
X89818902Y-48541767D01*
X89986803Y-48716952D01*
X89986804Y-48716953D01*
X90181893Y-48861241D01*
X90181895Y-48861242D01*
X90181898Y-48861244D01*
X90398571Y-48970488D01*
X90630591Y-49041543D01*
X90871281Y-49072365D01*
X91113719Y-49062066D01*
X91350928Y-49010944D01*
X91576086Y-48920468D01*
X91782714Y-48793242D01*
X91964869Y-48632925D01*
X92117311Y-48444130D01*
X92235653Y-48232288D01*
X92316491Y-48003493D01*
X92336847Y-47884775D01*
X92357499Y-47764337D01*
X92357500Y-47764326D01*
X92357500Y-47703539D01*
X94507000Y-47703539D01*
X94522417Y-47884692D01*
X94583541Y-48119440D01*
X94683453Y-48340472D01*
X94683458Y-48340480D01*
X94819291Y-48541450D01*
X94819293Y-48541453D01*
X94987135Y-48716575D01*
X94987136Y-48716576D01*
X95182156Y-48860813D01*
X95398757Y-48970021D01*
X95630701Y-49041053D01*
X95630699Y-49041053D01*
X95681999Y-49047622D01*
X95682000Y-49047622D01*
X95682000Y-47648310D01*
X95690817Y-47653158D01*
X95849886Y-47694000D01*
X95972894Y-47694000D01*
X96094933Y-47678583D01*
X96182000Y-47644110D01*
X96182000Y-49046837D01*
X96350781Y-49010463D01*
X96350782Y-49010463D01*
X96575856Y-48920021D01*
X96782415Y-48792838D01*
X96964507Y-48632577D01*
X96964511Y-48632573D01*
X97116890Y-48443855D01*
X97116894Y-48443849D01*
X97235194Y-48232082D01*
X97316003Y-48003370D01*
X97316005Y-48003362D01*
X97356999Y-47764293D01*
X97357000Y-47764285D01*
X97357000Y-47294000D01*
X96532728Y-47294000D01*
X96555100Y-47246457D01*
X96585873Y-47085138D01*
X96575561Y-46921234D01*
X96534220Y-46794000D01*
X97357000Y-46794000D01*
X97357000Y-46384461D01*
X97341582Y-46203307D01*
X97280458Y-45968559D01*
X97180546Y-45747527D01*
X97180541Y-45747519D01*
X97044708Y-45546549D01*
X97044706Y-45546546D01*
X96876864Y-45371424D01*
X96876863Y-45371423D01*
X96681843Y-45227186D01*
X96465242Y-45117978D01*
X96233304Y-45046947D01*
X96233297Y-45046946D01*
X96182000Y-45040376D01*
X96182000Y-46439689D01*
X96173183Y-46434842D01*
X96014114Y-46394000D01*
X95891106Y-46394000D01*
X95769067Y-46409417D01*
X95682000Y-46443889D01*
X95682000Y-45041161D01*
X95513217Y-45077536D01*
X95513214Y-45077537D01*
X95288143Y-45167978D01*
X95081584Y-45295161D01*
X94899492Y-45455422D01*
X94899488Y-45455426D01*
X94747109Y-45644144D01*
X94747105Y-45644150D01*
X94628805Y-45855917D01*
X94547996Y-46084629D01*
X94547994Y-46084637D01*
X94507000Y-46323706D01*
X94507000Y-46794000D01*
X95331272Y-46794000D01*
X95308900Y-46841543D01*
X95278127Y-47002862D01*
X95288439Y-47166766D01*
X95329780Y-47294000D01*
X94507000Y-47294000D01*
X94507000Y-47703539D01*
X92357500Y-47703539D01*
X92357500Y-46384441D01*
X92342076Y-46203224D01*
X92342075Y-46203222D01*
X92342075Y-46203218D01*
X92293159Y-46015357D01*
X92280931Y-45968391D01*
X92280930Y-45968388D01*
X92180986Y-45747286D01*
X92180979Y-45747274D01*
X92045099Y-45546234D01*
X92045097Y-45546232D01*
X91877196Y-45371047D01*
X91877195Y-45371046D01*
X91682106Y-45226758D01*
X91674784Y-45223066D01*
X91465429Y-45117512D01*
X91233409Y-45046457D01*
X91233407Y-45046456D01*
X91233405Y-45046456D01*
X90992713Y-45015634D01*
X90750284Y-45025933D01*
X90750280Y-45025933D01*
X90513070Y-45077056D01*
X90513067Y-45077057D01*
X90287917Y-45167530D01*
X90081286Y-45294757D01*
X89899130Y-45455075D01*
X89899126Y-45455079D01*
X89746688Y-45643870D01*
X89628347Y-45855709D01*
X89547511Y-46084499D01*
X89547507Y-46084513D01*
X89506500Y-46323662D01*
X89506500Y-47703559D01*
X84657000Y-47703559D01*
X84657000Y-47294000D01*
X83832728Y-47294000D01*
X83855100Y-47246457D01*
X83885873Y-47085138D01*
X83875561Y-46921234D01*
X83834220Y-46794000D01*
X84657000Y-46794000D01*
X84657000Y-46384461D01*
X84641582Y-46203307D01*
X84580458Y-45968559D01*
X84480546Y-45747527D01*
X84480541Y-45747519D01*
X84344708Y-45546549D01*
X84344706Y-45546546D01*
X84176864Y-45371424D01*
X84176863Y-45371423D01*
X83981843Y-45227186D01*
X83765242Y-45117978D01*
X83533304Y-45046947D01*
X83533297Y-45046946D01*
X83482000Y-45040376D01*
X83482000Y-46439689D01*
X83473183Y-46434842D01*
X83314114Y-46394000D01*
X83191106Y-46394000D01*
X83069067Y-46409417D01*
X82982000Y-46443889D01*
X82982000Y-45041161D01*
X82813217Y-45077536D01*
X82813214Y-45077537D01*
X82588143Y-45167978D01*
X82381584Y-45295161D01*
X82199492Y-45455422D01*
X82199488Y-45455426D01*
X82047109Y-45644144D01*
X82047105Y-45644150D01*
X81928805Y-45855917D01*
X81847996Y-46084629D01*
X81847994Y-46084637D01*
X81807000Y-46323706D01*
X81807000Y-46794000D01*
X82631272Y-46794000D01*
X82608900Y-46841543D01*
X82578127Y-47002862D01*
X82588439Y-47166766D01*
X82629780Y-47294000D01*
X81807000Y-47294000D01*
X81807000Y-47703539D01*
X79657500Y-47703539D01*
X79657500Y-46384441D01*
X79642076Y-46203224D01*
X79642075Y-46203222D01*
X79642075Y-46203218D01*
X79593159Y-46015357D01*
X79580931Y-45968391D01*
X79580930Y-45968388D01*
X79480986Y-45747286D01*
X79480979Y-45747274D01*
X79345099Y-45546234D01*
X79345097Y-45546232D01*
X79177196Y-45371047D01*
X79177195Y-45371046D01*
X78982106Y-45226758D01*
X78974784Y-45223066D01*
X78765429Y-45117512D01*
X78533409Y-45046457D01*
X78533407Y-45046456D01*
X78533405Y-45046456D01*
X78292713Y-45015634D01*
X78050284Y-45025933D01*
X78050280Y-45025933D01*
X77813070Y-45077056D01*
X77813067Y-45077057D01*
X77587917Y-45167530D01*
X77381286Y-45294757D01*
X77199130Y-45455075D01*
X77199126Y-45455079D01*
X77046688Y-45643870D01*
X76928347Y-45855709D01*
X76847511Y-46084499D01*
X76847507Y-46084513D01*
X76806500Y-46323662D01*
X76806500Y-47703559D01*
X71957000Y-47703559D01*
X71957000Y-47294000D01*
X71132728Y-47294000D01*
X71155100Y-47246457D01*
X71185873Y-47085138D01*
X71175561Y-46921234D01*
X71134220Y-46794000D01*
X71957000Y-46794000D01*
X71957000Y-46384461D01*
X71941582Y-46203307D01*
X71880458Y-45968559D01*
X71780546Y-45747527D01*
X71780541Y-45747519D01*
X71644708Y-45546549D01*
X71644706Y-45546546D01*
X71476864Y-45371424D01*
X71476863Y-45371423D01*
X71281843Y-45227186D01*
X71065242Y-45117978D01*
X70833304Y-45046947D01*
X70833297Y-45046946D01*
X70782000Y-45040376D01*
X70782000Y-46439689D01*
X70773183Y-46434842D01*
X70614114Y-46394000D01*
X70491106Y-46394000D01*
X70369067Y-46409417D01*
X70282000Y-46443889D01*
X70282000Y-45041161D01*
X70113217Y-45077536D01*
X70113214Y-45077537D01*
X69888143Y-45167978D01*
X69681584Y-45295161D01*
X69499492Y-45455422D01*
X69499488Y-45455426D01*
X69347109Y-45644144D01*
X69347105Y-45644150D01*
X69228805Y-45855917D01*
X69147996Y-46084629D01*
X69147994Y-46084637D01*
X69107000Y-46323706D01*
X69107000Y-46794000D01*
X69931272Y-46794000D01*
X69908900Y-46841543D01*
X69878127Y-47002862D01*
X69888439Y-47166766D01*
X69929780Y-47294000D01*
X69107000Y-47294000D01*
X69107000Y-47703539D01*
X66957500Y-47703539D01*
X66957500Y-46384441D01*
X66942076Y-46203224D01*
X66942075Y-46203222D01*
X66942075Y-46203218D01*
X66893159Y-46015357D01*
X66880931Y-45968391D01*
X66880930Y-45968388D01*
X66780986Y-45747286D01*
X66780979Y-45747274D01*
X66645099Y-45546234D01*
X66645097Y-45546232D01*
X66477196Y-45371047D01*
X66477195Y-45371046D01*
X66282106Y-45226758D01*
X66274784Y-45223066D01*
X66065429Y-45117512D01*
X65833409Y-45046457D01*
X65833407Y-45046456D01*
X65833405Y-45046456D01*
X65592713Y-45015634D01*
X65350284Y-45025933D01*
X65350280Y-45025933D01*
X65113070Y-45077056D01*
X65113067Y-45077057D01*
X64887917Y-45167530D01*
X64681286Y-45294757D01*
X64499130Y-45455075D01*
X64499126Y-45455079D01*
X64346688Y-45643870D01*
X64228347Y-45855709D01*
X64147511Y-46084499D01*
X64147507Y-46084513D01*
X64106500Y-46323662D01*
X64106500Y-47703559D01*
X59257000Y-47703559D01*
X59257000Y-47294000D01*
X58432728Y-47294000D01*
X58455100Y-47246457D01*
X58485873Y-47085138D01*
X58475561Y-46921234D01*
X58434220Y-46794000D01*
X59257000Y-46794000D01*
X59257000Y-46384461D01*
X59241582Y-46203307D01*
X59180458Y-45968559D01*
X59080546Y-45747527D01*
X59080541Y-45747519D01*
X58944708Y-45546549D01*
X58944706Y-45546546D01*
X58776864Y-45371424D01*
X58776863Y-45371423D01*
X58581843Y-45227186D01*
X58365242Y-45117978D01*
X58133304Y-45046947D01*
X58133297Y-45046946D01*
X58082000Y-45040376D01*
X58082000Y-46439689D01*
X58073183Y-46434842D01*
X57914114Y-46394000D01*
X57791106Y-46394000D01*
X57669067Y-46409417D01*
X57582000Y-46443889D01*
X57582000Y-45041161D01*
X57413217Y-45077536D01*
X57413214Y-45077537D01*
X57188143Y-45167978D01*
X56981584Y-45295161D01*
X56799492Y-45455422D01*
X56799488Y-45455426D01*
X56647109Y-45644144D01*
X56647105Y-45644150D01*
X56528805Y-45855917D01*
X56447996Y-46084629D01*
X56447994Y-46084637D01*
X56407000Y-46323706D01*
X56407000Y-46794000D01*
X57231272Y-46794000D01*
X57208900Y-46841543D01*
X57178127Y-47002862D01*
X57188439Y-47166766D01*
X57229780Y-47294000D01*
X56407000Y-47294000D01*
X56407000Y-47703539D01*
X54257500Y-47703539D01*
X54257500Y-46384441D01*
X54242076Y-46203224D01*
X54242075Y-46203222D01*
X54242075Y-46203218D01*
X54193159Y-46015357D01*
X54180931Y-45968391D01*
X54180930Y-45968388D01*
X54080986Y-45747286D01*
X54080979Y-45747274D01*
X53945099Y-45546234D01*
X53945097Y-45546232D01*
X53777196Y-45371047D01*
X53777195Y-45371046D01*
X53582106Y-45226758D01*
X53574784Y-45223066D01*
X53365429Y-45117512D01*
X53133409Y-45046457D01*
X53133407Y-45046456D01*
X53133405Y-45046456D01*
X52892713Y-45015634D01*
X52650284Y-45025933D01*
X52650280Y-45025933D01*
X52413070Y-45077056D01*
X52413067Y-45077057D01*
X52187917Y-45167530D01*
X51981286Y-45294757D01*
X51799130Y-45455075D01*
X51799126Y-45455079D01*
X51646688Y-45643870D01*
X51528347Y-45855709D01*
X51447511Y-46084499D01*
X51447507Y-46084513D01*
X51406500Y-46323662D01*
X51406500Y-47703559D01*
X46557000Y-47703559D01*
X46557000Y-47294000D01*
X45732728Y-47294000D01*
X45755100Y-47246457D01*
X45785873Y-47085138D01*
X45775561Y-46921234D01*
X45734220Y-46794000D01*
X46557000Y-46794000D01*
X46557000Y-46384461D01*
X46541582Y-46203307D01*
X46480458Y-45968559D01*
X46380546Y-45747527D01*
X46380541Y-45747519D01*
X46244708Y-45546549D01*
X46244706Y-45546546D01*
X46076864Y-45371424D01*
X46076863Y-45371423D01*
X45881843Y-45227186D01*
X45665242Y-45117978D01*
X45433304Y-45046947D01*
X45433297Y-45046946D01*
X45382000Y-45040376D01*
X45382000Y-46439689D01*
X45373183Y-46434842D01*
X45214114Y-46394000D01*
X45091106Y-46394000D01*
X44969067Y-46409417D01*
X44882000Y-46443889D01*
X44882000Y-45041161D01*
X44713217Y-45077536D01*
X44713214Y-45077537D01*
X44488143Y-45167978D01*
X44281584Y-45295161D01*
X44099492Y-45455422D01*
X44099488Y-45455426D01*
X43947109Y-45644144D01*
X43947105Y-45644150D01*
X43828805Y-45855917D01*
X43747996Y-46084629D01*
X43747994Y-46084637D01*
X43707000Y-46323706D01*
X43707000Y-46794000D01*
X44531272Y-46794000D01*
X44508900Y-46841543D01*
X44478127Y-47002862D01*
X44488439Y-47166766D01*
X44529780Y-47294000D01*
X43707000Y-47294000D01*
X43707000Y-47703539D01*
X41557500Y-47703539D01*
X41557500Y-46384441D01*
X41542076Y-46203224D01*
X41542075Y-46203222D01*
X41542075Y-46203218D01*
X41493159Y-46015357D01*
X41480931Y-45968391D01*
X41480930Y-45968388D01*
X41380986Y-45747286D01*
X41380979Y-45747274D01*
X41245099Y-45546234D01*
X41245097Y-45546232D01*
X41077196Y-45371047D01*
X41077195Y-45371046D01*
X40882106Y-45226758D01*
X40874784Y-45223066D01*
X40665429Y-45117512D01*
X40433409Y-45046457D01*
X40433407Y-45046456D01*
X40433405Y-45046456D01*
X40192713Y-45015634D01*
X39950284Y-45025933D01*
X39950280Y-45025933D01*
X39713070Y-45077056D01*
X39713067Y-45077057D01*
X39487917Y-45167530D01*
X39281286Y-45294757D01*
X39099130Y-45455075D01*
X39099126Y-45455079D01*
X38946688Y-45643870D01*
X38828347Y-45855709D01*
X38747511Y-46084499D01*
X38747507Y-46084513D01*
X38706500Y-46323662D01*
X38706500Y-47703559D01*
X33857000Y-47703559D01*
X33857000Y-47294000D01*
X33032728Y-47294000D01*
X33055100Y-47246457D01*
X33085873Y-47085138D01*
X33075561Y-46921234D01*
X33034220Y-46794000D01*
X33857000Y-46794000D01*
X33857000Y-46384461D01*
X33841582Y-46203307D01*
X33780458Y-45968559D01*
X33680546Y-45747527D01*
X33680541Y-45747519D01*
X33544708Y-45546549D01*
X33544706Y-45546546D01*
X33376864Y-45371424D01*
X33376863Y-45371423D01*
X33181843Y-45227186D01*
X32965242Y-45117978D01*
X32733304Y-45046947D01*
X32733297Y-45046946D01*
X32682000Y-45040376D01*
X32682000Y-46439689D01*
X32673183Y-46434842D01*
X32514114Y-46394000D01*
X32391106Y-46394000D01*
X32269067Y-46409417D01*
X32182000Y-46443889D01*
X32182000Y-45041161D01*
X32013217Y-45077536D01*
X32013214Y-45077537D01*
X31788143Y-45167978D01*
X31581584Y-45295161D01*
X31399492Y-45455422D01*
X31399488Y-45455426D01*
X31247109Y-45644144D01*
X31247105Y-45644150D01*
X31128805Y-45855917D01*
X31047996Y-46084629D01*
X31047994Y-46084637D01*
X31007000Y-46323706D01*
X31007000Y-46794000D01*
X31831272Y-46794000D01*
X31808900Y-46841543D01*
X31778127Y-47002862D01*
X31788439Y-47166766D01*
X31829780Y-47294000D01*
X31007000Y-47294000D01*
X31007000Y-47703539D01*
X28857500Y-47703539D01*
X28857500Y-46384441D01*
X28842076Y-46203224D01*
X28842075Y-46203222D01*
X28842075Y-46203218D01*
X28793159Y-46015357D01*
X28780931Y-45968391D01*
X28780930Y-45968388D01*
X28680986Y-45747286D01*
X28680979Y-45747274D01*
X28545099Y-45546234D01*
X28545097Y-45546232D01*
X28377196Y-45371047D01*
X28377195Y-45371046D01*
X28182106Y-45226758D01*
X28174784Y-45223066D01*
X27965429Y-45117512D01*
X27733409Y-45046457D01*
X27733407Y-45046456D01*
X27733405Y-45046456D01*
X27492713Y-45015634D01*
X27250284Y-45025933D01*
X27250280Y-45025933D01*
X27013070Y-45077056D01*
X27013067Y-45077057D01*
X26787917Y-45167530D01*
X26581286Y-45294757D01*
X26399130Y-45455075D01*
X26399126Y-45455079D01*
X26246688Y-45643870D01*
X26128347Y-45855709D01*
X26047511Y-46084499D01*
X26047507Y-46084513D01*
X26006500Y-46323662D01*
X26006500Y-47703559D01*
X15240000Y-47703559D01*
X15240000Y-35203559D01*
X26006500Y-35203559D01*
X26021923Y-35384775D01*
X26021924Y-35384777D01*
X26083068Y-35619608D01*
X26083069Y-35619611D01*
X26183013Y-35840713D01*
X26183020Y-35840725D01*
X26318900Y-36041765D01*
X26318902Y-36041767D01*
X26486803Y-36216952D01*
X26486804Y-36216953D01*
X26681893Y-36361241D01*
X26681895Y-36361242D01*
X26681898Y-36361244D01*
X26898571Y-36470488D01*
X27130591Y-36541543D01*
X27371281Y-36572365D01*
X27613719Y-36562066D01*
X27850928Y-36510944D01*
X28076086Y-36420468D01*
X28282714Y-36293242D01*
X28464869Y-36132925D01*
X28617311Y-35944130D01*
X28735653Y-35732288D01*
X28816491Y-35503493D01*
X28836847Y-35384775D01*
X28857499Y-35264337D01*
X28857500Y-35264326D01*
X28857500Y-35203539D01*
X31007000Y-35203539D01*
X31022417Y-35384692D01*
X31083541Y-35619440D01*
X31183453Y-35840472D01*
X31183458Y-35840480D01*
X31319291Y-36041450D01*
X31319293Y-36041453D01*
X31487135Y-36216575D01*
X31487136Y-36216576D01*
X31682156Y-36360813D01*
X31898757Y-36470021D01*
X32130701Y-36541053D01*
X32130699Y-36541053D01*
X32181999Y-36547622D01*
X32182000Y-36547622D01*
X32182000Y-35148310D01*
X32190817Y-35153158D01*
X32349886Y-35194000D01*
X32472894Y-35194000D01*
X32594933Y-35178583D01*
X32682000Y-35144110D01*
X32682000Y-36546837D01*
X32850781Y-36510463D01*
X32850782Y-36510463D01*
X33075856Y-36420021D01*
X33282415Y-36292838D01*
X33464507Y-36132577D01*
X33464511Y-36132573D01*
X33616890Y-35943855D01*
X33616894Y-35943849D01*
X33735194Y-35732082D01*
X33816003Y-35503370D01*
X33816005Y-35503362D01*
X33856999Y-35264293D01*
X33857000Y-35264285D01*
X33857000Y-35203559D01*
X38706500Y-35203559D01*
X38721923Y-35384775D01*
X38721924Y-35384777D01*
X38783068Y-35619608D01*
X38783069Y-35619611D01*
X38883013Y-35840713D01*
X38883020Y-35840725D01*
X39018900Y-36041765D01*
X39018902Y-36041767D01*
X39186803Y-36216952D01*
X39186804Y-36216953D01*
X39381893Y-36361241D01*
X39381895Y-36361242D01*
X39381898Y-36361244D01*
X39598571Y-36470488D01*
X39830591Y-36541543D01*
X40071281Y-36572365D01*
X40313719Y-36562066D01*
X40550928Y-36510944D01*
X40776086Y-36420468D01*
X40982714Y-36293242D01*
X41164869Y-36132925D01*
X41317311Y-35944130D01*
X41435653Y-35732288D01*
X41516491Y-35503493D01*
X41536847Y-35384775D01*
X41557499Y-35264337D01*
X41557500Y-35264326D01*
X41557500Y-35203539D01*
X43707000Y-35203539D01*
X43722417Y-35384692D01*
X43783541Y-35619440D01*
X43883453Y-35840472D01*
X43883458Y-35840480D01*
X44019291Y-36041450D01*
X44019293Y-36041453D01*
X44187135Y-36216575D01*
X44187136Y-36216576D01*
X44382156Y-36360813D01*
X44598757Y-36470021D01*
X44830701Y-36541053D01*
X44830699Y-36541053D01*
X44882000Y-36547622D01*
X44882000Y-35148310D01*
X44890817Y-35153158D01*
X45049886Y-35194000D01*
X45172894Y-35194000D01*
X45294933Y-35178583D01*
X45382000Y-35144110D01*
X45382000Y-36546837D01*
X45550781Y-36510463D01*
X45550782Y-36510463D01*
X45775856Y-36420021D01*
X45982415Y-36292838D01*
X46164507Y-36132577D01*
X46164511Y-36132573D01*
X46316890Y-35943855D01*
X46316894Y-35943849D01*
X46435194Y-35732082D01*
X46516003Y-35503370D01*
X46516005Y-35503362D01*
X46556999Y-35264293D01*
X46557000Y-35264285D01*
X46557000Y-35203559D01*
X51406500Y-35203559D01*
X51421923Y-35384775D01*
X51421924Y-35384777D01*
X51483068Y-35619608D01*
X51483069Y-35619611D01*
X51583013Y-35840713D01*
X51583020Y-35840725D01*
X51718900Y-36041765D01*
X51718902Y-36041767D01*
X51886803Y-36216952D01*
X51886804Y-36216953D01*
X52081893Y-36361241D01*
X52081895Y-36361242D01*
X52081898Y-36361244D01*
X52298571Y-36470488D01*
X52530591Y-36541543D01*
X52771281Y-36572365D01*
X53013719Y-36562066D01*
X53250928Y-36510944D01*
X53476086Y-36420468D01*
X53682714Y-36293242D01*
X53864869Y-36132925D01*
X54017311Y-35944130D01*
X54135653Y-35732288D01*
X54216491Y-35503493D01*
X54236847Y-35384775D01*
X54257499Y-35264337D01*
X54257500Y-35264326D01*
X54257500Y-35203539D01*
X56407000Y-35203539D01*
X56422417Y-35384692D01*
X56483541Y-35619440D01*
X56583453Y-35840472D01*
X56583458Y-35840480D01*
X56719291Y-36041450D01*
X56719293Y-36041453D01*
X56887135Y-36216575D01*
X56887136Y-36216576D01*
X57082156Y-36360813D01*
X57298757Y-36470021D01*
X57530701Y-36541053D01*
X57530699Y-36541053D01*
X57582000Y-36547622D01*
X57582000Y-35148310D01*
X57590817Y-35153158D01*
X57749886Y-35194000D01*
X57872894Y-35194000D01*
X57994933Y-35178583D01*
X58082000Y-35144110D01*
X58082000Y-36546837D01*
X58250781Y-36510463D01*
X58250782Y-36510463D01*
X58475856Y-36420021D01*
X58682415Y-36292838D01*
X58864507Y-36132577D01*
X58864511Y-36132573D01*
X59016890Y-35943855D01*
X59016894Y-35943849D01*
X59135194Y-35732082D01*
X59216003Y-35503370D01*
X59216005Y-35503362D01*
X59256999Y-35264293D01*
X59257000Y-35264285D01*
X59257000Y-35203559D01*
X64106500Y-35203559D01*
X64121923Y-35384775D01*
X64121924Y-35384777D01*
X64183068Y-35619608D01*
X64183069Y-35619611D01*
X64283013Y-35840713D01*
X64283020Y-35840725D01*
X64418900Y-36041765D01*
X64418902Y-36041767D01*
X64586803Y-36216952D01*
X64586804Y-36216953D01*
X64781893Y-36361241D01*
X64781895Y-36361242D01*
X64781898Y-36361244D01*
X64998571Y-36470488D01*
X65230591Y-36541543D01*
X65471281Y-36572365D01*
X65713719Y-36562066D01*
X65950928Y-36510944D01*
X66176086Y-36420468D01*
X66382714Y-36293242D01*
X66564869Y-36132925D01*
X66717311Y-35944130D01*
X66835653Y-35732288D01*
X66916491Y-35503493D01*
X66936847Y-35384775D01*
X66957499Y-35264337D01*
X66957500Y-35264326D01*
X66957500Y-35203539D01*
X69107000Y-35203539D01*
X69122417Y-35384692D01*
X69183541Y-35619440D01*
X69283453Y-35840472D01*
X69283458Y-35840480D01*
X69419291Y-36041450D01*
X69419293Y-36041453D01*
X69587135Y-36216575D01*
X69587136Y-36216576D01*
X69782156Y-36360813D01*
X69998757Y-36470021D01*
X70230701Y-36541053D01*
X70230699Y-36541053D01*
X70281999Y-36547622D01*
X70282000Y-36547622D01*
X70282000Y-35148310D01*
X70290817Y-35153158D01*
X70449886Y-35194000D01*
X70572894Y-35194000D01*
X70694933Y-35178583D01*
X70782000Y-35144110D01*
X70782000Y-36546837D01*
X70950781Y-36510463D01*
X70950782Y-36510463D01*
X71175856Y-36420021D01*
X71382415Y-36292838D01*
X71564507Y-36132577D01*
X71564511Y-36132573D01*
X71716890Y-35943855D01*
X71716894Y-35943849D01*
X71835194Y-35732082D01*
X71916003Y-35503370D01*
X71916005Y-35503362D01*
X71956999Y-35264293D01*
X71957000Y-35264285D01*
X71957000Y-35203559D01*
X76806500Y-35203559D01*
X76821923Y-35384775D01*
X76821924Y-35384777D01*
X76883068Y-35619608D01*
X76883069Y-35619611D01*
X76983013Y-35840713D01*
X76983020Y-35840725D01*
X77118900Y-36041765D01*
X77118902Y-36041767D01*
X77286803Y-36216952D01*
X77286804Y-36216953D01*
X77481893Y-36361241D01*
X77481895Y-36361242D01*
X77481898Y-36361244D01*
X77698571Y-36470488D01*
X77930591Y-36541543D01*
X78171281Y-36572365D01*
X78413719Y-36562066D01*
X78650928Y-36510944D01*
X78876086Y-36420468D01*
X79082714Y-36293242D01*
X79264869Y-36132925D01*
X79417311Y-35944130D01*
X79535653Y-35732288D01*
X79616491Y-35503493D01*
X79636847Y-35384775D01*
X79657499Y-35264337D01*
X79657500Y-35264326D01*
X79657500Y-35203539D01*
X81807000Y-35203539D01*
X81822417Y-35384692D01*
X81883541Y-35619440D01*
X81983453Y-35840472D01*
X81983458Y-35840480D01*
X82119291Y-36041450D01*
X82119293Y-36041453D01*
X82287135Y-36216575D01*
X82287136Y-36216576D01*
X82482156Y-36360813D01*
X82698757Y-36470021D01*
X82930701Y-36541053D01*
X82930699Y-36541053D01*
X82981999Y-36547622D01*
X82982000Y-36547622D01*
X82982000Y-35148310D01*
X82990817Y-35153158D01*
X83149886Y-35194000D01*
X83272894Y-35194000D01*
X83394933Y-35178583D01*
X83482000Y-35144110D01*
X83482000Y-36546837D01*
X83650781Y-36510463D01*
X83650782Y-36510463D01*
X83875856Y-36420021D01*
X84082415Y-36292838D01*
X84264507Y-36132577D01*
X84264511Y-36132573D01*
X84416890Y-35943855D01*
X84416894Y-35943849D01*
X84535194Y-35732082D01*
X84616003Y-35503370D01*
X84616005Y-35503362D01*
X84656999Y-35264293D01*
X84657000Y-35264285D01*
X84657000Y-35203559D01*
X89506500Y-35203559D01*
X89521923Y-35384775D01*
X89521924Y-35384777D01*
X89583068Y-35619608D01*
X89583069Y-35619611D01*
X89683013Y-35840713D01*
X89683020Y-35840725D01*
X89818900Y-36041765D01*
X89818902Y-36041767D01*
X89986803Y-36216952D01*
X89986804Y-36216953D01*
X90181893Y-36361241D01*
X90181895Y-36361242D01*
X90181898Y-36361244D01*
X90398571Y-36470488D01*
X90630591Y-36541543D01*
X90871281Y-36572365D01*
X91113719Y-36562066D01*
X91350928Y-36510944D01*
X91576086Y-36420468D01*
X91782714Y-36293242D01*
X91964869Y-36132925D01*
X92117311Y-35944130D01*
X92235653Y-35732288D01*
X92316491Y-35503493D01*
X92336847Y-35384775D01*
X92357499Y-35264337D01*
X92357500Y-35264326D01*
X92357500Y-35203539D01*
X94507000Y-35203539D01*
X94522417Y-35384692D01*
X94583541Y-35619440D01*
X94683453Y-35840472D01*
X94683458Y-35840480D01*
X94819291Y-36041450D01*
X94819293Y-36041453D01*
X94987135Y-36216575D01*
X94987136Y-36216576D01*
X95182156Y-36360813D01*
X95398757Y-36470021D01*
X95630701Y-36541053D01*
X95630699Y-36541053D01*
X95681999Y-36547622D01*
X95682000Y-36547622D01*
X95682000Y-35148310D01*
X95690817Y-35153158D01*
X95849886Y-35194000D01*
X95972894Y-35194000D01*
X96094933Y-35178583D01*
X96182000Y-35144110D01*
X96182000Y-36546837D01*
X96350781Y-36510463D01*
X96350782Y-36510463D01*
X96575856Y-36420021D01*
X96782415Y-36292838D01*
X96964507Y-36132577D01*
X96964511Y-36132573D01*
X97116890Y-35943855D01*
X97116894Y-35943849D01*
X97235194Y-35732082D01*
X97316003Y-35503370D01*
X97316005Y-35503362D01*
X97356999Y-35264293D01*
X97357000Y-35264285D01*
X97357000Y-34794000D01*
X96532728Y-34794000D01*
X96555100Y-34746457D01*
X96585873Y-34585138D01*
X96575561Y-34421234D01*
X96534220Y-34294000D01*
X97357000Y-34294000D01*
X97357000Y-33884461D01*
X97341582Y-33703307D01*
X97280458Y-33468559D01*
X97180546Y-33247527D01*
X97180541Y-33247519D01*
X97044708Y-33046549D01*
X97044706Y-33046546D01*
X96876864Y-32871424D01*
X96876863Y-32871423D01*
X96681843Y-32727186D01*
X96465242Y-32617978D01*
X96233304Y-32546947D01*
X96233297Y-32546946D01*
X96182000Y-32540376D01*
X96182000Y-33939689D01*
X96173183Y-33934842D01*
X96014114Y-33894000D01*
X95891106Y-33894000D01*
X95769067Y-33909417D01*
X95682000Y-33943889D01*
X95682000Y-32541161D01*
X95513217Y-32577536D01*
X95513214Y-32577537D01*
X95288143Y-32667978D01*
X95081584Y-32795161D01*
X94899492Y-32955422D01*
X94899488Y-32955426D01*
X94747109Y-33144144D01*
X94747105Y-33144150D01*
X94628805Y-33355917D01*
X94547996Y-33584629D01*
X94547994Y-33584637D01*
X94507000Y-33823706D01*
X94507000Y-34294000D01*
X95331272Y-34294000D01*
X95308900Y-34341543D01*
X95278127Y-34502862D01*
X95288439Y-34666766D01*
X95329780Y-34794000D01*
X94507000Y-34794000D01*
X94507000Y-35203539D01*
X92357500Y-35203539D01*
X92357500Y-33884441D01*
X92342076Y-33703224D01*
X92342075Y-33703222D01*
X92342075Y-33703218D01*
X92293159Y-33515357D01*
X92280931Y-33468391D01*
X92280930Y-33468388D01*
X92180986Y-33247286D01*
X92180979Y-33247274D01*
X92045099Y-33046234D01*
X92045097Y-33046232D01*
X91877196Y-32871047D01*
X91877195Y-32871046D01*
X91682106Y-32726758D01*
X91674784Y-32723066D01*
X91465429Y-32617512D01*
X91233409Y-32546457D01*
X91233407Y-32546456D01*
X91233405Y-32546456D01*
X90992713Y-32515634D01*
X90750284Y-32525933D01*
X90750280Y-32525933D01*
X90513070Y-32577056D01*
X90513067Y-32577057D01*
X90287917Y-32667530D01*
X90081286Y-32794757D01*
X89899130Y-32955075D01*
X89899126Y-32955079D01*
X89746688Y-33143870D01*
X89628347Y-33355709D01*
X89547511Y-33584499D01*
X89547507Y-33584513D01*
X89506500Y-33823662D01*
X89506500Y-35203559D01*
X84657000Y-35203559D01*
X84657000Y-34794000D01*
X83832728Y-34794000D01*
X83855100Y-34746457D01*
X83885873Y-34585138D01*
X83875561Y-34421234D01*
X83834220Y-34294000D01*
X84657000Y-34294000D01*
X84657000Y-33884461D01*
X84641582Y-33703307D01*
X84580458Y-33468559D01*
X84480546Y-33247527D01*
X84480541Y-33247519D01*
X84344708Y-33046549D01*
X84344706Y-33046546D01*
X84176864Y-32871424D01*
X84176863Y-32871423D01*
X83981843Y-32727186D01*
X83765242Y-32617978D01*
X83533304Y-32546947D01*
X83533297Y-32546946D01*
X83482000Y-32540376D01*
X83482000Y-33939689D01*
X83473183Y-33934842D01*
X83314114Y-33894000D01*
X83191106Y-33894000D01*
X83069067Y-33909417D01*
X82982000Y-33943889D01*
X82982000Y-32541161D01*
X82813217Y-32577536D01*
X82813214Y-32577537D01*
X82588143Y-32667978D01*
X82381584Y-32795161D01*
X82199492Y-32955422D01*
X82199488Y-32955426D01*
X82047109Y-33144144D01*
X82047105Y-33144150D01*
X81928805Y-33355917D01*
X81847996Y-33584629D01*
X81847994Y-33584637D01*
X81807000Y-33823706D01*
X81807000Y-34294000D01*
X82631272Y-34294000D01*
X82608900Y-34341543D01*
X82578127Y-34502862D01*
X82588439Y-34666766D01*
X82629780Y-34794000D01*
X81807000Y-34794000D01*
X81807000Y-35203539D01*
X79657500Y-35203539D01*
X79657500Y-33884441D01*
X79642076Y-33703224D01*
X79642075Y-33703222D01*
X79642075Y-33703218D01*
X79593159Y-33515357D01*
X79580931Y-33468391D01*
X79580930Y-33468388D01*
X79480986Y-33247286D01*
X79480979Y-33247274D01*
X79345099Y-33046234D01*
X79345097Y-33046232D01*
X79177196Y-32871047D01*
X79177195Y-32871046D01*
X78982106Y-32726758D01*
X78974784Y-32723066D01*
X78765429Y-32617512D01*
X78533409Y-32546457D01*
X78533407Y-32546456D01*
X78533405Y-32546456D01*
X78292713Y-32515634D01*
X78050284Y-32525933D01*
X78050280Y-32525933D01*
X77813070Y-32577056D01*
X77813067Y-32577057D01*
X77587917Y-32667530D01*
X77381286Y-32794757D01*
X77199130Y-32955075D01*
X77199126Y-32955079D01*
X77046688Y-33143870D01*
X76928347Y-33355709D01*
X76847511Y-33584499D01*
X76847507Y-33584513D01*
X76806500Y-33823662D01*
X76806500Y-35203559D01*
X71957000Y-35203559D01*
X71957000Y-34794000D01*
X71132728Y-34794000D01*
X71155100Y-34746457D01*
X71185873Y-34585138D01*
X71175561Y-34421234D01*
X71134220Y-34294000D01*
X71957000Y-34294000D01*
X71957000Y-33884461D01*
X71941582Y-33703307D01*
X71880458Y-33468559D01*
X71780546Y-33247527D01*
X71780541Y-33247519D01*
X71644708Y-33046549D01*
X71644706Y-33046546D01*
X71476864Y-32871424D01*
X71476863Y-32871423D01*
X71281843Y-32727186D01*
X71065242Y-32617978D01*
X70833304Y-32546947D01*
X70833297Y-32546946D01*
X70782000Y-32540376D01*
X70782000Y-33939689D01*
X70773183Y-33934842D01*
X70614114Y-33894000D01*
X70491106Y-33894000D01*
X70369067Y-33909417D01*
X70282000Y-33943889D01*
X70282000Y-32541161D01*
X70113217Y-32577536D01*
X70113214Y-32577537D01*
X69888143Y-32667978D01*
X69681584Y-32795161D01*
X69499492Y-32955422D01*
X69499488Y-32955426D01*
X69347109Y-33144144D01*
X69347105Y-33144150D01*
X69228805Y-33355917D01*
X69147996Y-33584629D01*
X69147994Y-33584637D01*
X69107000Y-33823706D01*
X69107000Y-34294000D01*
X69931272Y-34294000D01*
X69908900Y-34341543D01*
X69878127Y-34502862D01*
X69888439Y-34666766D01*
X69929780Y-34794000D01*
X69107000Y-34794000D01*
X69107000Y-35203539D01*
X66957500Y-35203539D01*
X66957500Y-33884441D01*
X66942076Y-33703224D01*
X66942075Y-33703222D01*
X66942075Y-33703218D01*
X66893159Y-33515357D01*
X66880931Y-33468391D01*
X66880930Y-33468388D01*
X66780986Y-33247286D01*
X66780979Y-33247274D01*
X66645099Y-33046234D01*
X66645097Y-33046232D01*
X66477196Y-32871047D01*
X66477195Y-32871046D01*
X66282106Y-32726758D01*
X66274784Y-32723066D01*
X66065429Y-32617512D01*
X65833409Y-32546457D01*
X65833407Y-32546456D01*
X65833405Y-32546456D01*
X65592713Y-32515634D01*
X65350284Y-32525933D01*
X65350280Y-32525933D01*
X65113070Y-32577056D01*
X65113067Y-32577057D01*
X64887917Y-32667530D01*
X64681286Y-32794757D01*
X64499130Y-32955075D01*
X64499126Y-32955079D01*
X64346688Y-33143870D01*
X64228347Y-33355709D01*
X64147511Y-33584499D01*
X64147507Y-33584513D01*
X64106500Y-33823662D01*
X64106500Y-35203559D01*
X59257000Y-35203559D01*
X59257000Y-34794000D01*
X58432728Y-34794000D01*
X58455100Y-34746457D01*
X58485873Y-34585138D01*
X58475561Y-34421234D01*
X58434220Y-34294000D01*
X59257000Y-34294000D01*
X59257000Y-33884461D01*
X59241582Y-33703307D01*
X59180458Y-33468559D01*
X59080546Y-33247527D01*
X59080541Y-33247519D01*
X58944708Y-33046549D01*
X58944706Y-33046546D01*
X58776864Y-32871424D01*
X58776863Y-32871423D01*
X58581843Y-32727186D01*
X58365242Y-32617978D01*
X58133304Y-32546947D01*
X58133297Y-32546946D01*
X58082000Y-32540376D01*
X58082000Y-33939689D01*
X58073183Y-33934842D01*
X57914114Y-33894000D01*
X57791106Y-33894000D01*
X57669067Y-33909417D01*
X57582000Y-33943889D01*
X57582000Y-32541161D01*
X57413217Y-32577536D01*
X57413214Y-32577537D01*
X57188143Y-32667978D01*
X56981584Y-32795161D01*
X56799492Y-32955422D01*
X56799488Y-32955426D01*
X56647109Y-33144144D01*
X56647105Y-33144150D01*
X56528805Y-33355917D01*
X56447996Y-33584629D01*
X56447994Y-33584637D01*
X56407000Y-33823706D01*
X56407000Y-34294000D01*
X57231272Y-34294000D01*
X57208900Y-34341543D01*
X57178127Y-34502862D01*
X57188439Y-34666766D01*
X57229780Y-34794000D01*
X56407000Y-34794000D01*
X56407000Y-35203539D01*
X54257500Y-35203539D01*
X54257500Y-33884441D01*
X54242076Y-33703224D01*
X54242075Y-33703222D01*
X54242075Y-33703218D01*
X54193159Y-33515357D01*
X54180931Y-33468391D01*
X54180930Y-33468388D01*
X54080986Y-33247286D01*
X54080979Y-33247274D01*
X53945099Y-33046234D01*
X53945097Y-33046232D01*
X53777196Y-32871047D01*
X53777195Y-32871046D01*
X53582106Y-32726758D01*
X53574784Y-32723066D01*
X53365429Y-32617512D01*
X53133409Y-32546457D01*
X53133407Y-32546456D01*
X53133405Y-32546456D01*
X52892713Y-32515634D01*
X52650284Y-32525933D01*
X52650280Y-32525933D01*
X52413070Y-32577056D01*
X52413067Y-32577057D01*
X52187917Y-32667530D01*
X51981286Y-32794757D01*
X51799130Y-32955075D01*
X51799126Y-32955079D01*
X51646688Y-33143870D01*
X51528347Y-33355709D01*
X51447511Y-33584499D01*
X51447507Y-33584513D01*
X51406500Y-33823662D01*
X51406500Y-35203559D01*
X46557000Y-35203559D01*
X46557000Y-34794000D01*
X45732728Y-34794000D01*
X45755100Y-34746457D01*
X45785873Y-34585138D01*
X45775561Y-34421234D01*
X45734220Y-34294000D01*
X46557000Y-34294000D01*
X46557000Y-33884461D01*
X46541582Y-33703307D01*
X46480458Y-33468559D01*
X46380546Y-33247527D01*
X46380541Y-33247519D01*
X46244708Y-33046549D01*
X46244706Y-33046546D01*
X46076864Y-32871424D01*
X46076863Y-32871423D01*
X45881843Y-32727186D01*
X45665242Y-32617978D01*
X45433304Y-32546947D01*
X45433297Y-32546946D01*
X45382000Y-32540376D01*
X45382000Y-33939689D01*
X45373183Y-33934842D01*
X45214114Y-33894000D01*
X45091106Y-33894000D01*
X44969067Y-33909417D01*
X44882000Y-33943889D01*
X44882000Y-32541161D01*
X44713217Y-32577536D01*
X44713214Y-32577537D01*
X44488143Y-32667978D01*
X44281584Y-32795161D01*
X44099492Y-32955422D01*
X44099488Y-32955426D01*
X43947109Y-33144144D01*
X43947105Y-33144150D01*
X43828805Y-33355917D01*
X43747996Y-33584629D01*
X43747994Y-33584637D01*
X43707000Y-33823706D01*
X43707000Y-34294000D01*
X44531272Y-34294000D01*
X44508900Y-34341543D01*
X44478127Y-34502862D01*
X44488439Y-34666766D01*
X44529780Y-34794000D01*
X43707000Y-34794000D01*
X43707000Y-35203539D01*
X41557500Y-35203539D01*
X41557500Y-33884441D01*
X41542076Y-33703224D01*
X41542075Y-33703222D01*
X41542075Y-33703218D01*
X41493159Y-33515357D01*
X41480931Y-33468391D01*
X41480930Y-33468388D01*
X41380986Y-33247286D01*
X41380979Y-33247274D01*
X41245099Y-33046234D01*
X41245097Y-33046232D01*
X41077196Y-32871047D01*
X41077195Y-32871046D01*
X40882106Y-32726758D01*
X40874784Y-32723066D01*
X40665429Y-32617512D01*
X40433409Y-32546457D01*
X40433407Y-32546456D01*
X40433405Y-32546456D01*
X40192713Y-32515634D01*
X39950284Y-32525933D01*
X39950280Y-32525933D01*
X39713070Y-32577056D01*
X39713067Y-32577057D01*
X39487917Y-32667530D01*
X39281286Y-32794757D01*
X39099130Y-32955075D01*
X39099126Y-32955079D01*
X38946688Y-33143870D01*
X38828347Y-33355709D01*
X38747511Y-33584499D01*
X38747507Y-33584513D01*
X38706500Y-33823662D01*
X38706500Y-35203559D01*
X33857000Y-35203559D01*
X33857000Y-34794000D01*
X33032728Y-34794000D01*
X33055100Y-34746457D01*
X33085873Y-34585138D01*
X33075561Y-34421234D01*
X33034220Y-34294000D01*
X33857000Y-34294000D01*
X33857000Y-33884461D01*
X33841582Y-33703307D01*
X33780458Y-33468559D01*
X33680546Y-33247527D01*
X33680541Y-33247519D01*
X33544708Y-33046549D01*
X33544706Y-33046546D01*
X33376864Y-32871424D01*
X33376863Y-32871423D01*
X33181843Y-32727186D01*
X32965242Y-32617978D01*
X32733304Y-32546947D01*
X32733297Y-32546946D01*
X32682000Y-32540376D01*
X32682000Y-33939689D01*
X32673183Y-33934842D01*
X32514114Y-33894000D01*
X32391106Y-33894000D01*
X32269067Y-33909417D01*
X32182000Y-33943889D01*
X32182000Y-32541161D01*
X32013217Y-32577536D01*
X32013214Y-32577537D01*
X31788143Y-32667978D01*
X31581584Y-32795161D01*
X31399492Y-32955422D01*
X31399488Y-32955426D01*
X31247109Y-33144144D01*
X31247105Y-33144150D01*
X31128805Y-33355917D01*
X31047996Y-33584629D01*
X31047994Y-33584637D01*
X31007000Y-33823706D01*
X31007000Y-34294000D01*
X31831272Y-34294000D01*
X31808900Y-34341543D01*
X31778127Y-34502862D01*
X31788439Y-34666766D01*
X31829780Y-34794000D01*
X31007000Y-34794000D01*
X31007000Y-35203539D01*
X28857500Y-35203539D01*
X28857500Y-33884441D01*
X28842076Y-33703224D01*
X28842075Y-33703222D01*
X28842075Y-33703218D01*
X28793159Y-33515357D01*
X28780931Y-33468391D01*
X28780930Y-33468388D01*
X28680986Y-33247286D01*
X28680979Y-33247274D01*
X28545099Y-33046234D01*
X28545097Y-33046232D01*
X28377196Y-32871047D01*
X28377195Y-32871046D01*
X28182106Y-32726758D01*
X28174784Y-32723066D01*
X27965429Y-32617512D01*
X27733409Y-32546457D01*
X27733407Y-32546456D01*
X27733405Y-32546456D01*
X27492713Y-32515634D01*
X27250284Y-32525933D01*
X27250280Y-32525933D01*
X27013070Y-32577056D01*
X27013067Y-32577057D01*
X26787917Y-32667530D01*
X26581286Y-32794757D01*
X26399130Y-32955075D01*
X26399126Y-32955079D01*
X26246688Y-33143870D01*
X26128347Y-33355709D01*
X26047511Y-33584499D01*
X26047507Y-33584513D01*
X26006500Y-33823662D01*
X26006500Y-35203559D01*
X15240000Y-35203559D01*
X15240000Y-26461870D01*
X26041500Y-26461870D01*
X26041501Y-26461876D01*
X26047908Y-26521483D01*
X26098202Y-26656328D01*
X26098206Y-26656335D01*
X26184452Y-26771544D01*
X26184455Y-26771547D01*
X26299664Y-26857793D01*
X26299671Y-26857797D01*
X26434517Y-26908091D01*
X26434516Y-26908091D01*
X26441444Y-26908835D01*
X26494127Y-26914500D01*
X28289872Y-26914499D01*
X28349483Y-26908091D01*
X28484331Y-26857796D01*
X28599546Y-26771546D01*
X28685796Y-26656331D01*
X28734810Y-26524916D01*
X28776681Y-26468984D01*
X28842145Y-26444566D01*
X28910418Y-26459417D01*
X28938673Y-26480569D01*
X29060599Y-26602495D01*
X29157384Y-26670265D01*
X29254165Y-26738032D01*
X29254167Y-26738033D01*
X29254170Y-26738035D01*
X29468337Y-26837903D01*
X29696592Y-26899063D01*
X29873034Y-26914500D01*
X29931999Y-26919659D01*
X29932000Y-26919659D01*
X29932001Y-26919659D01*
X29990966Y-26914500D01*
X30167408Y-26899063D01*
X30395663Y-26837903D01*
X30609830Y-26738035D01*
X30803401Y-26602495D01*
X30970495Y-26435401D01*
X31100425Y-26249842D01*
X31155002Y-26206217D01*
X31224500Y-26199023D01*
X31286855Y-26230546D01*
X31303575Y-26249842D01*
X31433281Y-26435082D01*
X31433505Y-26435401D01*
X31600599Y-26602495D01*
X31697384Y-26670265D01*
X31794165Y-26738032D01*
X31794167Y-26738033D01*
X31794170Y-26738035D01*
X32008337Y-26837903D01*
X32236592Y-26899063D01*
X32413034Y-26914500D01*
X32471999Y-26919659D01*
X32472000Y-26919659D01*
X32472001Y-26919659D01*
X32530966Y-26914500D01*
X32707408Y-26899063D01*
X32935663Y-26837903D01*
X33149830Y-26738035D01*
X33343401Y-26602495D01*
X33510495Y-26435401D01*
X33640425Y-26249842D01*
X33695002Y-26206217D01*
X33764500Y-26199023D01*
X33826855Y-26230546D01*
X33843575Y-26249842D01*
X33973281Y-26435082D01*
X33973505Y-26435401D01*
X34140599Y-26602495D01*
X34237384Y-26670265D01*
X34334165Y-26738032D01*
X34334167Y-26738033D01*
X34334170Y-26738035D01*
X34548337Y-26837903D01*
X34776592Y-26899063D01*
X34953034Y-26914500D01*
X35011999Y-26919659D01*
X35012000Y-26919659D01*
X35012001Y-26919659D01*
X35070966Y-26914500D01*
X35247408Y-26899063D01*
X35475663Y-26837903D01*
X35689830Y-26738035D01*
X35883401Y-26602495D01*
X36050495Y-26435401D01*
X36180425Y-26249842D01*
X36235002Y-26206217D01*
X36304500Y-26199023D01*
X36366855Y-26230546D01*
X36383575Y-26249842D01*
X36513281Y-26435082D01*
X36513505Y-26435401D01*
X36680599Y-26602495D01*
X36777384Y-26670265D01*
X36874165Y-26738032D01*
X36874167Y-26738033D01*
X36874170Y-26738035D01*
X37088337Y-26837903D01*
X37316592Y-26899063D01*
X37493034Y-26914500D01*
X37551999Y-26919659D01*
X37552000Y-26919659D01*
X37552001Y-26919659D01*
X37610966Y-26914500D01*
X37787408Y-26899063D01*
X38015663Y-26837903D01*
X38229830Y-26738035D01*
X38423401Y-26602495D01*
X38590495Y-26435401D01*
X38720425Y-26249842D01*
X38775002Y-26206217D01*
X38844500Y-26199023D01*
X38906855Y-26230546D01*
X38923575Y-26249842D01*
X39053281Y-26435082D01*
X39053505Y-26435401D01*
X39220599Y-26602495D01*
X39317384Y-26670265D01*
X39414165Y-26738032D01*
X39414167Y-26738033D01*
X39414170Y-26738035D01*
X39628337Y-26837903D01*
X39856592Y-26899063D01*
X40033034Y-26914500D01*
X40091999Y-26919659D01*
X40092000Y-26919659D01*
X40092001Y-26919659D01*
X40150966Y-26914500D01*
X40327408Y-26899063D01*
X40555663Y-26837903D01*
X40769830Y-26738035D01*
X40963401Y-26602495D01*
X41130495Y-26435401D01*
X41260730Y-26249405D01*
X41315307Y-26205781D01*
X41384805Y-26198587D01*
X41447160Y-26230110D01*
X41463879Y-26249405D01*
X41593890Y-26435078D01*
X41760917Y-26602105D01*
X41954421Y-26737600D01*
X42168507Y-26837429D01*
X42168516Y-26837433D01*
X42382000Y-26894634D01*
X42382000Y-25999501D01*
X42489685Y-26048680D01*
X42596237Y-26064000D01*
X42667763Y-26064000D01*
X42774315Y-26048680D01*
X42882000Y-25999501D01*
X42882000Y-26894633D01*
X43095483Y-26837433D01*
X43095492Y-26837429D01*
X43309578Y-26737600D01*
X43503082Y-26602105D01*
X43670105Y-26435082D01*
X43805600Y-26241578D01*
X43905429Y-26027492D01*
X43905432Y-26027486D01*
X43962636Y-25814000D01*
X43065686Y-25814000D01*
X43091493Y-25773844D01*
X43132000Y-25635889D01*
X43132000Y-25492111D01*
X43091493Y-25354156D01*
X43065686Y-25314000D01*
X43962636Y-25314000D01*
X43962635Y-25313999D01*
X43905432Y-25100513D01*
X43905429Y-25100507D01*
X43805600Y-24886422D01*
X43805599Y-24886420D01*
X43670113Y-24692926D01*
X43670108Y-24692920D01*
X43503082Y-24525894D01*
X43309578Y-24390399D01*
X43095492Y-24290570D01*
X43095486Y-24290567D01*
X42882000Y-24233364D01*
X42882000Y-25128498D01*
X42774315Y-25079320D01*
X42667763Y-25064000D01*
X42596237Y-25064000D01*
X42489685Y-25079320D01*
X42382000Y-25128498D01*
X42382000Y-24233364D01*
X42381999Y-24233364D01*
X42168513Y-24290567D01*
X42168507Y-24290570D01*
X41954422Y-24390399D01*
X41954420Y-24390400D01*
X41760926Y-24525886D01*
X41760920Y-24525891D01*
X41593891Y-24692920D01*
X41593890Y-24692922D01*
X41463880Y-24878595D01*
X41409303Y-24922219D01*
X41339804Y-24929412D01*
X41277450Y-24897890D01*
X41260730Y-24878594D01*
X41130494Y-24692597D01*
X40963402Y-24525506D01*
X40963395Y-24525501D01*
X40769834Y-24389967D01*
X40769830Y-24389965D01*
X40769828Y-24389964D01*
X40555663Y-24290097D01*
X40555659Y-24290096D01*
X40555655Y-24290094D01*
X40327413Y-24228938D01*
X40327403Y-24228936D01*
X40092001Y-24208341D01*
X40091999Y-24208341D01*
X39856596Y-24228936D01*
X39856586Y-24228938D01*
X39628344Y-24290094D01*
X39628335Y-24290098D01*
X39414171Y-24389964D01*
X39414169Y-24389965D01*
X39220597Y-24525505D01*
X39053505Y-24692597D01*
X38923575Y-24878158D01*
X38868998Y-24921783D01*
X38799500Y-24928977D01*
X38737145Y-24897454D01*
X38720425Y-24878158D01*
X38590494Y-24692597D01*
X38423402Y-24525506D01*
X38423395Y-24525501D01*
X38229834Y-24389967D01*
X38229830Y-24389965D01*
X38229828Y-24389964D01*
X38015663Y-24290097D01*
X38015659Y-24290096D01*
X38015655Y-24290094D01*
X37787413Y-24228938D01*
X37787403Y-24228936D01*
X37552001Y-24208341D01*
X37551999Y-24208341D01*
X37316596Y-24228936D01*
X37316586Y-24228938D01*
X37088344Y-24290094D01*
X37088335Y-24290098D01*
X36874171Y-24389964D01*
X36874169Y-24389965D01*
X36680597Y-24525505D01*
X36513505Y-24692597D01*
X36383575Y-24878158D01*
X36328998Y-24921783D01*
X36259500Y-24928977D01*
X36197145Y-24897454D01*
X36180425Y-24878158D01*
X36050494Y-24692597D01*
X35883402Y-24525506D01*
X35883395Y-24525501D01*
X35689834Y-24389967D01*
X35689830Y-24389965D01*
X35689828Y-24389964D01*
X35475663Y-24290097D01*
X35475659Y-24290096D01*
X35475655Y-24290094D01*
X35247413Y-24228938D01*
X35247403Y-24228936D01*
X35012001Y-24208341D01*
X35011999Y-24208341D01*
X34776596Y-24228936D01*
X34776586Y-24228938D01*
X34548344Y-24290094D01*
X34548335Y-24290098D01*
X34334171Y-24389964D01*
X34334169Y-24389965D01*
X34140597Y-24525505D01*
X33973505Y-24692597D01*
X33843575Y-24878158D01*
X33788998Y-24921783D01*
X33719500Y-24928977D01*
X33657145Y-24897454D01*
X33640425Y-24878158D01*
X33510494Y-24692597D01*
X33343402Y-24525506D01*
X33343395Y-24525501D01*
X33149834Y-24389967D01*
X33149830Y-24389965D01*
X33149828Y-24389964D01*
X32935663Y-24290097D01*
X32935659Y-24290096D01*
X32935655Y-24290094D01*
X32707413Y-24228938D01*
X32707403Y-24228936D01*
X32472001Y-24208341D01*
X32471999Y-24208341D01*
X32236596Y-24228936D01*
X32236586Y-24228938D01*
X32008344Y-24290094D01*
X32008335Y-24290098D01*
X31794171Y-24389964D01*
X31794169Y-24389965D01*
X31600597Y-24525505D01*
X31433505Y-24692597D01*
X31303575Y-24878158D01*
X31248998Y-24921783D01*
X31179500Y-24928977D01*
X31117145Y-24897454D01*
X31100425Y-24878158D01*
X30970494Y-24692597D01*
X30803402Y-24525506D01*
X30803395Y-24525501D01*
X30609834Y-24389967D01*
X30609830Y-24389965D01*
X30609828Y-24389964D01*
X30395663Y-24290097D01*
X30395659Y-24290096D01*
X30395655Y-24290094D01*
X30167413Y-24228938D01*
X30167403Y-24228936D01*
X29932001Y-24208341D01*
X29931999Y-24208341D01*
X29696596Y-24228936D01*
X29696586Y-24228938D01*
X29468344Y-24290094D01*
X29468335Y-24290098D01*
X29254171Y-24389964D01*
X29254169Y-24389965D01*
X29060600Y-24525503D01*
X28938673Y-24647430D01*
X28877350Y-24680914D01*
X28807658Y-24675930D01*
X28751725Y-24634058D01*
X28734810Y-24603081D01*
X28685797Y-24471671D01*
X28685793Y-24471664D01*
X28599547Y-24356455D01*
X28599544Y-24356452D01*
X28484335Y-24270206D01*
X28484328Y-24270202D01*
X28349482Y-24219908D01*
X28349483Y-24219908D01*
X28289883Y-24213501D01*
X28289881Y-24213500D01*
X28289873Y-24213500D01*
X28289864Y-24213500D01*
X26494129Y-24213500D01*
X26494123Y-24213501D01*
X26434516Y-24219908D01*
X26299671Y-24270202D01*
X26299664Y-24270206D01*
X26184455Y-24356452D01*
X26184452Y-24356455D01*
X26098206Y-24471664D01*
X26098202Y-24471671D01*
X26047908Y-24606517D01*
X26041501Y-24666116D01*
X26041500Y-24666135D01*
X26041500Y-26461870D01*
X15240000Y-26461870D01*
X15240000Y-21067763D01*
X16433787Y-21067763D01*
X16463413Y-21337013D01*
X16463415Y-21337024D01*
X16531926Y-21599082D01*
X16531928Y-21599088D01*
X16637870Y-21848390D01*
X16709998Y-21966575D01*
X16778979Y-22079605D01*
X16778986Y-22079615D01*
X16952253Y-22287819D01*
X16952259Y-22287824D01*
X17153998Y-22468582D01*
X17379910Y-22618044D01*
X17625176Y-22733020D01*
X17625183Y-22733022D01*
X17625185Y-22733023D01*
X17884557Y-22811057D01*
X17884564Y-22811058D01*
X17884569Y-22811060D01*
X18152561Y-22850500D01*
X18152566Y-22850500D01*
X18355636Y-22850500D01*
X18407133Y-22846730D01*
X18558156Y-22835677D01*
X18670758Y-22810593D01*
X18822546Y-22776782D01*
X18822548Y-22776781D01*
X18822553Y-22776780D01*
X19075558Y-22680014D01*
X19311777Y-22547441D01*
X19526177Y-22381888D01*
X19714186Y-22186881D01*
X19871799Y-21966579D01*
X19945787Y-21822669D01*
X19995649Y-21725690D01*
X19995651Y-21725684D01*
X19995656Y-21725675D01*
X20083118Y-21469305D01*
X20132319Y-21202933D01*
X20137259Y-21067763D01*
X102433787Y-21067763D01*
X102463413Y-21337013D01*
X102463415Y-21337024D01*
X102531926Y-21599082D01*
X102531928Y-21599088D01*
X102637870Y-21848390D01*
X102709998Y-21966575D01*
X102778979Y-22079605D01*
X102778986Y-22079615D01*
X102952253Y-22287819D01*
X102952259Y-22287824D01*
X103153998Y-22468582D01*
X103379910Y-22618044D01*
X103625176Y-22733020D01*
X103625183Y-22733022D01*
X103625185Y-22733023D01*
X103884557Y-22811057D01*
X103884564Y-22811058D01*
X103884569Y-22811060D01*
X104152561Y-22850500D01*
X104152566Y-22850500D01*
X104355636Y-22850500D01*
X104407133Y-22846730D01*
X104558156Y-22835677D01*
X104670758Y-22810593D01*
X104822546Y-22776782D01*
X104822548Y-22776781D01*
X104822553Y-22776780D01*
X105075558Y-22680014D01*
X105311777Y-22547441D01*
X105526177Y-22381888D01*
X105714186Y-22186881D01*
X105871799Y-21966579D01*
X105945787Y-21822669D01*
X105995649Y-21725690D01*
X105995651Y-21725684D01*
X105995656Y-21725675D01*
X106083118Y-21469305D01*
X106132319Y-21202933D01*
X106142212Y-20932235D01*
X106112586Y-20662982D01*
X106044072Y-20400912D01*
X105938130Y-20151610D01*
X105797018Y-19920390D01*
X105707747Y-19813119D01*
X105623746Y-19712180D01*
X105623740Y-19712175D01*
X105422002Y-19531418D01*
X105196092Y-19381957D01*
X105196090Y-19381956D01*
X104950824Y-19266980D01*
X104950819Y-19266978D01*
X104950814Y-19266976D01*
X104691442Y-19188942D01*
X104691428Y-19188939D01*
X104575791Y-19171921D01*
X104423439Y-19149500D01*
X104220369Y-19149500D01*
X104220364Y-19149500D01*
X104017844Y-19164323D01*
X104017831Y-19164325D01*
X103753453Y-19223217D01*
X103753446Y-19223220D01*
X103500439Y-19319987D01*
X103264226Y-19452557D01*
X103049822Y-19618112D01*
X102861822Y-19813109D01*
X102861816Y-19813116D01*
X102704202Y-20033419D01*
X102704199Y-20033424D01*
X102580350Y-20274309D01*
X102580343Y-20274327D01*
X102492884Y-20530685D01*
X102492881Y-20530699D01*
X102443681Y-20797068D01*
X102443680Y-20797075D01*
X102433787Y-21067763D01*
X20137259Y-21067763D01*
X20142212Y-20932235D01*
X20112586Y-20662982D01*
X20044072Y-20400912D01*
X19938130Y-20151610D01*
X19797018Y-19920390D01*
X19707747Y-19813119D01*
X19623746Y-19712180D01*
X19623740Y-19712175D01*
X19422002Y-19531418D01*
X19196092Y-19381957D01*
X19196090Y-19381956D01*
X18950824Y-19266980D01*
X18950819Y-19266978D01*
X18950814Y-19266976D01*
X18691442Y-19188942D01*
X18691428Y-19188939D01*
X18575791Y-19171921D01*
X18423439Y-19149500D01*
X18220369Y-19149500D01*
X18220364Y-19149500D01*
X18017844Y-19164323D01*
X18017831Y-19164325D01*
X17753453Y-19223217D01*
X17753446Y-19223220D01*
X17500439Y-19319987D01*
X17264226Y-19452557D01*
X17049822Y-19618112D01*
X16861822Y-19813109D01*
X16861816Y-19813116D01*
X16704202Y-20033419D01*
X16704199Y-20033424D01*
X16580350Y-20274309D01*
X16580343Y-20274327D01*
X16492884Y-20530685D01*
X16492881Y-20530699D01*
X16443681Y-20797068D01*
X16443680Y-20797075D01*
X16433787Y-21067763D01*
X15240000Y-21067763D01*
X15240000Y-17904000D01*
X15259685Y-17836961D01*
X15312489Y-17791206D01*
X15364000Y-17780000D01*
X107572000Y-17780000D01*
X107639039Y-17799685D01*
G37*
%TD.AperFunction*%
%TD*%
M02*
