%TF.GenerationSoftware,KiCad,Pcbnew,7.0.9*%
%TF.CreationDate,2024-04-05T23:44:34+03:00*%
%TF.ProjectId,FARA_KEYBOARD,46415241-5f4b-4455-9942-4f4152442e6b,rev?*%
%TF.SameCoordinates,Original*%
%TF.FileFunction,Copper,L1,Top*%
%TF.FilePolarity,Positive*%
%FSLAX46Y46*%
G04 Gerber Fmt 4.6, Leading zero omitted, Abs format (unit mm)*
G04 Created by KiCad (PCBNEW 7.0.9) date 2024-04-05 23:44:34*
%MOMM*%
%LPD*%
G01*
G04 APERTURE LIST*
%TA.AperFunction,ComponentPad*%
%ADD10O,1.850000X3.048000*%
%TD*%
%TA.AperFunction,ComponentPad*%
%ADD11R,1.700000X1.700000*%
%TD*%
%TA.AperFunction,ComponentPad*%
%ADD12O,1.700000X1.700000*%
%TD*%
%TA.AperFunction,ViaPad*%
%ADD13C,0.800000*%
%TD*%
%TA.AperFunction,Conductor*%
%ADD14C,0.250000*%
%TD*%
G04 APERTURE END LIST*
D10*
%TO.P,SW6,1,1*%
%TO.N,Net-(J1-Pin_6)*%
X90932000Y-47044000D03*
X90932000Y-34544000D03*
%TO.P,SW6,2,2*%
%TO.N,GND*%
X95932000Y-47044000D03*
X95932000Y-34544000D03*
%TD*%
%TO.P,SW5,1,1*%
%TO.N,Net-(J1-Pin_5)*%
X78232000Y-47044000D03*
X78232000Y-34544000D03*
%TO.P,SW5,2,2*%
%TO.N,GND*%
X83232000Y-47044000D03*
X83232000Y-34544000D03*
%TD*%
%TO.P,SW4,2,2*%
%TO.N,GND*%
X70532000Y-34544000D03*
X70532000Y-47044000D03*
%TO.P,SW4,1,1*%
%TO.N,Net-(J1-Pin_4)*%
X65532000Y-34544000D03*
X65532000Y-47044000D03*
%TD*%
%TO.P,SW3,1,1*%
%TO.N,Net-(J1-Pin_3)*%
X52832000Y-47044000D03*
X52832000Y-34544000D03*
%TO.P,SW3,2,2*%
%TO.N,GND*%
X57832000Y-47044000D03*
X57832000Y-34544000D03*
%TD*%
%TO.P,SW2,1,1*%
%TO.N,Net-(J1-Pin_2)*%
X40132000Y-47044000D03*
X40132000Y-34544000D03*
%TO.P,SW2,2,2*%
%TO.N,GND*%
X45132000Y-47044000D03*
X45132000Y-34544000D03*
%TD*%
%TO.P,SW1,1,1*%
%TO.N,Net-(J1-Pin_1)*%
X27432000Y-47044000D03*
X27432000Y-34544000D03*
%TO.P,SW1,2,2*%
%TO.N,GND*%
X32432000Y-47044000D03*
X32432000Y-34544000D03*
%TD*%
D11*
%TO.P,J1,1,Pin_1*%
%TO.N,Net-(J1-Pin_1)*%
X27392000Y-25564000D03*
D12*
%TO.P,J1,2,Pin_2*%
%TO.N,Net-(J1-Pin_2)*%
X29932000Y-25564000D03*
%TO.P,J1,3,Pin_3*%
%TO.N,Net-(J1-Pin_3)*%
X32472000Y-25564000D03*
%TO.P,J1,4,Pin_4*%
%TO.N,Net-(J1-Pin_4)*%
X35012000Y-25564000D03*
%TO.P,J1,5,Pin_5*%
%TO.N,Net-(J1-Pin_5)*%
X37552000Y-25564000D03*
%TO.P,J1,6,Pin_6*%
%TO.N,Net-(J1-Pin_6)*%
X40092000Y-25564000D03*
%TO.P,J1,7,Pin_7*%
%TO.N,GND*%
X42632000Y-25564000D03*
%TD*%
D13*
%TO.N,GND*%
X60198000Y-31496000D03*
X72644000Y-31242000D03*
X86106000Y-30988000D03*
X104648000Y-38354000D03*
X29464000Y-53848000D03*
X42926000Y-54610000D03*
X55626000Y-54102000D03*
X68072000Y-53848000D03*
X80772000Y-53086000D03*
X93980000Y-53086000D03*
X92964000Y-28702000D03*
X95250000Y-21082000D03*
X81788000Y-20828000D03*
X70358000Y-20574000D03*
X59436000Y-20574000D03*
X49784000Y-20574000D03*
X37084000Y-20320000D03*
X23368000Y-20066000D03*
X93726000Y-40640000D03*
X80772000Y-40640000D03*
X68580000Y-40640000D03*
X55880000Y-40894000D03*
X43180000Y-40640000D03*
X29718000Y-40640000D03*
X18034000Y-47752000D03*
X18034000Y-39116000D03*
X18034000Y-28702000D03*
%TD*%
D14*
%TO.N,Net-(J1-Pin_3)*%
X52832000Y-34544000D02*
X52832000Y-47044000D01*
%TO.N,Net-(J1-Pin_4)*%
X65532000Y-34544000D02*
X65532000Y-47044000D01*
%TO.N,Net-(J1-Pin_5)*%
X78232000Y-34544000D02*
X78232000Y-47044000D01*
%TO.N,Net-(J1-Pin_6)*%
X90932000Y-34544000D02*
X90932000Y-47044000D01*
X87082000Y-27596000D02*
X90932000Y-31446000D01*
X90932000Y-31446000D02*
X90932000Y-34544000D01*
X40600000Y-27596000D02*
X87082000Y-27596000D01*
X40092000Y-27088000D02*
X40600000Y-27596000D01*
X40092000Y-25564000D02*
X40092000Y-27088000D01*
%TO.N,Net-(J1-Pin_5)*%
X78232000Y-30684000D02*
X78232000Y-34544000D01*
X76160000Y-28612000D02*
X78232000Y-30684000D01*
X38060000Y-28612000D02*
X76160000Y-28612000D01*
X37552000Y-25564000D02*
X37552000Y-28104000D01*
X37552000Y-28104000D02*
X38060000Y-28612000D01*
%TO.N,Net-(J1-Pin_4)*%
X65532000Y-31192000D02*
X65532000Y-34544000D01*
X35774000Y-29374000D02*
X63714000Y-29374000D01*
X35012000Y-28612000D02*
X35774000Y-29374000D01*
X63714000Y-29374000D02*
X65532000Y-31192000D01*
X35012000Y-25564000D02*
X35012000Y-28612000D01*
%TO.N,Net-(J1-Pin_3)*%
X51522000Y-30390000D02*
X52832000Y-31700000D01*
X33234000Y-30390000D02*
X51522000Y-30390000D01*
X52832000Y-31700000D02*
X52832000Y-34544000D01*
X32472000Y-29628000D02*
X33234000Y-30390000D01*
X32472000Y-25564000D02*
X32472000Y-29628000D01*
%TO.N,Net-(J1-Pin_2)*%
X40132000Y-47044000D02*
X39220000Y-47044000D01*
X40132000Y-34544000D02*
X40132000Y-47044000D01*
X39220000Y-47044000D02*
X39076000Y-46900000D01*
X40132000Y-32462000D02*
X40132000Y-34544000D01*
X38822000Y-31152000D02*
X40132000Y-32462000D01*
X30948000Y-31152000D02*
X38822000Y-31152000D01*
X29932000Y-25564000D02*
X29932000Y-30136000D01*
X29932000Y-30136000D02*
X30948000Y-31152000D01*
%TO.N,Net-(J1-Pin_1)*%
X27392000Y-47004000D02*
X27392000Y-25564000D01*
X27432000Y-47044000D02*
X27392000Y-47004000D01*
%TD*%
%TA.AperFunction,Conductor*%
%TO.N,GND*%
G36*
X107639039Y-17799685D02*
G01*
X107684794Y-17852489D01*
X107696000Y-17904000D01*
X107696000Y-56264000D01*
X107676315Y-56331039D01*
X107623511Y-56376794D01*
X107572000Y-56388000D01*
X15364000Y-56388000D01*
X15296961Y-56368315D01*
X15251206Y-56315511D01*
X15240000Y-56264000D01*
X15240000Y-53067763D01*
X16433787Y-53067763D01*
X16463413Y-53337013D01*
X16463415Y-53337024D01*
X16531926Y-53599082D01*
X16531928Y-53599088D01*
X16637870Y-53848390D01*
X16709998Y-53966575D01*
X16778979Y-54079605D01*
X16778986Y-54079615D01*
X16952253Y-54287819D01*
X16952259Y-54287824D01*
X17153998Y-54468582D01*
X17379910Y-54618044D01*
X17625176Y-54733020D01*
X17625183Y-54733022D01*
X17625185Y-54733023D01*
X17884557Y-54811057D01*
X17884564Y-54811058D01*
X17884569Y-54811060D01*
X18152561Y-54850500D01*
X18152566Y-54850500D01*
X18355636Y-54850500D01*
X18407133Y-54846730D01*
X18558156Y-54835677D01*
X18670758Y-54810593D01*
X18822546Y-54776782D01*
X18822548Y-54776781D01*
X18822553Y-54776780D01*
X19075558Y-54680014D01*
X19311777Y-54547441D01*
X19526177Y-54381888D01*
X19714186Y-54186881D01*
X19871799Y-53966579D01*
X19945787Y-53822669D01*
X19995649Y-53725690D01*
X19995651Y-53725684D01*
X19995656Y-53725675D01*
X20083118Y-53469305D01*
X20132319Y-53202933D01*
X20137259Y-53067763D01*
X102433787Y-53067763D01*
X102463413Y-53337013D01*
X102463415Y-53337024D01*
X102531926Y-53599082D01*
X102531928Y-53599088D01*
X102637870Y-53848390D01*
X102709998Y-53966575D01*
X102778979Y-54079605D01*
X102778986Y-54079615D01*
X102952253Y-54287819D01*
X102952259Y-54287824D01*
X103153998Y-54468582D01*
X103379910Y-54618044D01*
X103625176Y-54733020D01*
X103625183Y-54733022D01*
X103625185Y-54733023D01*
X103884557Y-54811057D01*
X103884564Y-54811058D01*
X103884569Y-54811060D01*
X104152561Y-54850500D01*
X104152566Y-54850500D01*
X104355636Y-54850500D01*
X104407133Y-54846730D01*
X104558156Y-54835677D01*
X104670758Y-54810593D01*
X104822546Y-54776782D01*
X104822548Y-54776781D01*
X104822553Y-54776780D01*
X105075558Y-54680014D01*
X105311777Y-54547441D01*
X105526177Y-54381888D01*
X105714186Y-54186881D01*
X105871799Y-53966579D01*
X105945787Y-53822669D01*
X105995649Y-53725690D01*
X105995651Y-53725684D01*
X105995656Y-53725675D01*
X106083118Y-53469305D01*
X106132319Y-53202933D01*
X106142212Y-52932235D01*
X106112586Y-52662982D01*
X106044072Y-52400912D01*
X105938130Y-52151610D01*
X105797018Y-51920390D01*
X105707747Y-51813119D01*
X105623746Y-51712180D01*
X105623740Y-51712175D01*
X105422002Y-51531418D01*
X105196092Y-51381957D01*
X105196090Y-51381956D01*
X104950824Y-51266980D01*
X104950819Y-51266978D01*
X104950814Y-51266976D01*
X104691442Y-51188942D01*
X104691428Y-51188939D01*
X104575791Y-51171921D01*
X104423439Y-51149500D01*
X104220369Y-51149500D01*
X104220364Y-51149500D01*
X104017844Y-51164323D01*
X104017831Y-51164325D01*
X103753453Y-51223217D01*
X103753446Y-51223220D01*
X103500439Y-51319987D01*
X103264226Y-51452557D01*
X103049822Y-51618112D01*
X102861822Y-51813109D01*
X102861816Y-51813116D01*
X102704202Y-52033419D01*
X102704199Y-52033424D01*
X102580350Y-52274309D01*
X102580343Y-52274327D01*
X102492884Y-52530685D01*
X102492881Y-52530699D01*
X102443681Y-52797068D01*
X102443680Y-52797075D01*
X102433787Y-53067763D01*
X20137259Y-53067763D01*
X20142212Y-52932235D01*
X20112586Y-52662982D01*
X20044072Y-52400912D01*
X19938130Y-52151610D01*
X19797018Y-51920390D01*
X19707747Y-51813119D01*
X19623746Y-51712180D01*
X19623740Y-51712175D01*
X19422002Y-51531418D01*
X19196092Y-51381957D01*
X19196090Y-51381956D01*
X18950824Y-51266980D01*
X18950819Y-51266978D01*
X18950814Y-51266976D01*
X18691442Y-51188942D01*
X18691428Y-51188939D01*
X18575791Y-51171921D01*
X18423439Y-51149500D01*
X18220369Y-51149500D01*
X18220364Y-51149500D01*
X18017844Y-51164323D01*
X18017831Y-51164325D01*
X17753453Y-51223217D01*
X17753446Y-51223220D01*
X17500439Y-51319987D01*
X17264226Y-51452557D01*
X17049822Y-51618112D01*
X16861822Y-51813109D01*
X16861816Y-51813116D01*
X16704202Y-52033419D01*
X16704199Y-52033424D01*
X16580350Y-52274309D01*
X16580343Y-52274327D01*
X16492884Y-52530685D01*
X16492881Y-52530699D01*
X16443681Y-52797068D01*
X16443680Y-52797075D01*
X16433787Y-53067763D01*
X15240000Y-53067763D01*
X15240000Y-47703559D01*
X26006500Y-47703559D01*
X26021923Y-47884775D01*
X26021924Y-47884777D01*
X26083068Y-48119608D01*
X26083069Y-48119611D01*
X26183013Y-48340713D01*
X26183020Y-48340725D01*
X26318900Y-48541765D01*
X26318902Y-48541767D01*
X26486803Y-48716952D01*
X26486804Y-48716953D01*
X26681893Y-48861241D01*
X26681895Y-48861242D01*
X26681898Y-48861244D01*
X26898571Y-48970488D01*
X27130591Y-49041543D01*
X27371281Y-49072365D01*
X27613719Y-49062066D01*
X27850928Y-49010944D01*
X28076086Y-48920468D01*
X28282714Y-48793242D01*
X28464869Y-48632925D01*
X28617311Y-48444130D01*
X28735653Y-48232288D01*
X28816491Y-48003493D01*
X28836847Y-47884775D01*
X28857499Y-47764337D01*
X28857500Y-47764326D01*
X28857500Y-47703539D01*
X31007000Y-47703539D01*
X31022417Y-47884692D01*
X31083541Y-48119440D01*
X31183453Y-48340472D01*
X31183458Y-48340480D01*
X31319291Y-48541450D01*
X31319293Y-48541453D01*
X31487135Y-48716575D01*
X31487136Y-48716576D01*
X31682156Y-48860813D01*
X31898757Y-48970021D01*
X32130701Y-49041053D01*
X32130699Y-49041053D01*
X32181999Y-49047622D01*
X32182000Y-49047622D01*
X32182000Y-47648310D01*
X32190817Y-47653158D01*
X32349886Y-47694000D01*
X32472894Y-47694000D01*
X32594933Y-47678583D01*
X32682000Y-47644110D01*
X32682000Y-49046837D01*
X32850781Y-49010463D01*
X32850782Y-49010463D01*
X33075856Y-48920021D01*
X33282415Y-48792838D01*
X33464507Y-48632577D01*
X33464511Y-48632573D01*
X33616890Y-48443855D01*
X33616894Y-48443849D01*
X33735194Y-48232082D01*
X33816003Y-48003370D01*
X33816005Y-48003362D01*
X33856999Y-47764293D01*
X33857000Y-47764285D01*
X33857000Y-47294000D01*
X33032728Y-47294000D01*
X33055100Y-47246457D01*
X33085873Y-47085138D01*
X33075561Y-46921234D01*
X33034220Y-46794000D01*
X33857000Y-46794000D01*
X33857000Y-46384461D01*
X33841582Y-46203307D01*
X33780458Y-45968559D01*
X33680546Y-45747527D01*
X33680541Y-45747519D01*
X33544708Y-45546549D01*
X33544706Y-45546546D01*
X33376864Y-45371424D01*
X33376863Y-45371423D01*
X33181843Y-45227186D01*
X32965242Y-45117978D01*
X32733304Y-45046947D01*
X32733297Y-45046946D01*
X32682000Y-45040376D01*
X32682000Y-46439689D01*
X32673183Y-46434842D01*
X32514114Y-46394000D01*
X32391106Y-46394000D01*
X32269067Y-46409417D01*
X32182000Y-46443889D01*
X32182000Y-45041161D01*
X32013217Y-45077536D01*
X32013214Y-45077537D01*
X31788143Y-45167978D01*
X31581584Y-45295161D01*
X31399492Y-45455422D01*
X31399488Y-45455426D01*
X31247109Y-45644144D01*
X31247105Y-45644150D01*
X31128805Y-45855917D01*
X31047996Y-46084629D01*
X31047994Y-46084637D01*
X31007000Y-46323706D01*
X31007000Y-46794000D01*
X31831272Y-46794000D01*
X31808900Y-46841543D01*
X31778127Y-47002862D01*
X31788439Y-47166766D01*
X31829780Y-47294000D01*
X31007000Y-47294000D01*
X31007000Y-47703539D01*
X28857500Y-47703539D01*
X28857500Y-46384441D01*
X28842076Y-46203224D01*
X28842075Y-46203222D01*
X28842075Y-46203218D01*
X28793159Y-46015357D01*
X28780931Y-45968391D01*
X28780930Y-45968388D01*
X28680986Y-45747286D01*
X28680979Y-45747274D01*
X28545099Y-45546234D01*
X28545097Y-45546232D01*
X28377196Y-45371047D01*
X28377195Y-45371046D01*
X28182104Y-45226756D01*
X28085674Y-45178137D01*
X28034675Y-45130379D01*
X28017500Y-45067415D01*
X28017500Y-36525811D01*
X28037185Y-36458772D01*
X28076484Y-36420222D01*
X28282714Y-36293242D01*
X28464869Y-36132925D01*
X28617311Y-35944130D01*
X28735653Y-35732288D01*
X28816491Y-35503493D01*
X28836847Y-35384775D01*
X28857499Y-35264337D01*
X28857500Y-35264326D01*
X28857500Y-35203539D01*
X31007000Y-35203539D01*
X31022417Y-35384692D01*
X31083541Y-35619440D01*
X31183453Y-35840472D01*
X31183458Y-35840480D01*
X31319291Y-36041450D01*
X31319293Y-36041453D01*
X31487135Y-36216575D01*
X31487136Y-36216576D01*
X31682156Y-36360813D01*
X31898757Y-36470021D01*
X32130701Y-36541053D01*
X32130699Y-36541053D01*
X32181999Y-36547622D01*
X32182000Y-36547622D01*
X32182000Y-35148310D01*
X32190817Y-35153158D01*
X32349886Y-35194000D01*
X32472894Y-35194000D01*
X32594933Y-35178583D01*
X32682000Y-35144110D01*
X32682000Y-36546837D01*
X32850781Y-36510463D01*
X32850782Y-36510463D01*
X33075856Y-36420021D01*
X33282415Y-36292838D01*
X33464507Y-36132577D01*
X33464511Y-36132573D01*
X33616890Y-35943855D01*
X33616894Y-35943849D01*
X33735194Y-35732082D01*
X33816003Y-35503370D01*
X33816005Y-35503362D01*
X33856999Y-35264293D01*
X33857000Y-35264285D01*
X33857000Y-34794000D01*
X33032728Y-34794000D01*
X33055100Y-34746457D01*
X33085873Y-34585138D01*
X33075561Y-34421234D01*
X33034220Y-34294000D01*
X33857000Y-34294000D01*
X33857000Y-33884461D01*
X33841582Y-33703307D01*
X33780458Y-33468559D01*
X33680546Y-33247527D01*
X33680541Y-33247519D01*
X33544708Y-33046549D01*
X33544706Y-33046546D01*
X33376864Y-32871424D01*
X33376863Y-32871423D01*
X33181843Y-32727186D01*
X32965242Y-32617978D01*
X32733304Y-32546947D01*
X32733297Y-32546946D01*
X32682000Y-32540376D01*
X32682000Y-33939689D01*
X32673183Y-33934842D01*
X32514114Y-33894000D01*
X32391106Y-33894000D01*
X32269067Y-33909417D01*
X32182000Y-33943889D01*
X32182000Y-32541161D01*
X32013217Y-32577536D01*
X32013214Y-32577537D01*
X31788143Y-32667978D01*
X31581584Y-32795161D01*
X31399492Y-32955422D01*
X31399488Y-32955426D01*
X31247109Y-33144144D01*
X31247105Y-33144150D01*
X31128805Y-33355917D01*
X31047996Y-33584629D01*
X31047994Y-33584637D01*
X31007000Y-33823706D01*
X31007000Y-34294000D01*
X31831272Y-34294000D01*
X31808900Y-34341543D01*
X31778127Y-34502862D01*
X31788439Y-34666766D01*
X31829780Y-34794000D01*
X31007000Y-34794000D01*
X31007000Y-35203539D01*
X28857500Y-35203539D01*
X28857500Y-33884441D01*
X28842076Y-33703224D01*
X28842075Y-33703222D01*
X28842075Y-33703218D01*
X28793159Y-33515357D01*
X28780931Y-33468391D01*
X28780930Y-33468388D01*
X28680986Y-33247286D01*
X28680979Y-33247274D01*
X28545099Y-33046234D01*
X28545097Y-33046232D01*
X28377196Y-32871047D01*
X28377195Y-32871046D01*
X28182104Y-32726756D01*
X28085674Y-32678137D01*
X28034675Y-32630379D01*
X28017500Y-32567415D01*
X28017500Y-27038499D01*
X28037185Y-26971460D01*
X28089989Y-26925705D01*
X28141500Y-26914499D01*
X28289871Y-26914499D01*
X28289872Y-26914499D01*
X28349483Y-26908091D01*
X28484331Y-26857796D01*
X28599546Y-26771546D01*
X28685796Y-26656331D01*
X28734810Y-26524916D01*
X28776681Y-26468984D01*
X28842145Y-26444566D01*
X28910418Y-26459417D01*
X28938673Y-26480569D01*
X29060599Y-26602495D01*
X29253624Y-26737653D01*
X29297248Y-26792228D01*
X29306500Y-26839226D01*
X29306500Y-30053255D01*
X29304775Y-30068872D01*
X29305061Y-30068899D01*
X29304326Y-30076665D01*
X29306500Y-30145814D01*
X29306500Y-30175343D01*
X29306501Y-30175360D01*
X29307368Y-30182231D01*
X29307826Y-30188050D01*
X29309290Y-30234624D01*
X29309291Y-30234627D01*
X29314880Y-30253867D01*
X29318824Y-30272911D01*
X29321336Y-30292792D01*
X29323232Y-30297580D01*
X29338490Y-30336119D01*
X29340382Y-30341647D01*
X29353381Y-30386388D01*
X29363580Y-30403634D01*
X29372138Y-30421103D01*
X29379514Y-30439732D01*
X29406898Y-30477423D01*
X29410106Y-30482307D01*
X29433827Y-30522416D01*
X29433833Y-30522424D01*
X29447990Y-30536580D01*
X29460628Y-30551376D01*
X29472405Y-30567586D01*
X29472406Y-30567587D01*
X29508309Y-30597288D01*
X29512620Y-30601210D01*
X30220493Y-31309084D01*
X30447197Y-31535788D01*
X30457022Y-31548051D01*
X30457243Y-31547869D01*
X30462214Y-31553878D01*
X30472002Y-31563069D01*
X30512635Y-31601226D01*
X30533529Y-31622120D01*
X30539011Y-31626373D01*
X30543443Y-31630157D01*
X30577418Y-31662062D01*
X30594976Y-31671714D01*
X30611233Y-31682393D01*
X30627064Y-31694673D01*
X30646737Y-31703186D01*
X30669833Y-31713182D01*
X30675077Y-31715750D01*
X30715908Y-31738197D01*
X30728523Y-31741435D01*
X30735305Y-31743177D01*
X30753719Y-31749481D01*
X30772104Y-31757438D01*
X30818157Y-31764732D01*
X30823826Y-31765906D01*
X30868981Y-31777500D01*
X30889016Y-31777500D01*
X30908413Y-31779026D01*
X30928196Y-31782160D01*
X30974584Y-31777775D01*
X30980422Y-31777500D01*
X38511548Y-31777500D01*
X38578587Y-31797185D01*
X38599229Y-31813819D01*
X39355288Y-32569878D01*
X39388773Y-32631201D01*
X39383789Y-32700893D01*
X39341917Y-32756826D01*
X39332622Y-32763148D01*
X39281288Y-32794756D01*
X39099130Y-32955075D01*
X39099126Y-32955079D01*
X38946688Y-33143870D01*
X38828347Y-33355709D01*
X38747511Y-33584499D01*
X38747507Y-33584513D01*
X38706500Y-33823662D01*
X38706500Y-35203559D01*
X38721923Y-35384775D01*
X38721924Y-35384777D01*
X38783068Y-35619608D01*
X38783069Y-35619611D01*
X38883013Y-35840713D01*
X38883019Y-35840723D01*
X39018900Y-36041765D01*
X39186803Y-36216952D01*
X39381898Y-36361244D01*
X39438326Y-36389694D01*
X39489324Y-36437450D01*
X39506500Y-36500416D01*
X39506500Y-45086817D01*
X39486815Y-45153856D01*
X39447514Y-45192407D01*
X39281286Y-45294757D01*
X39099130Y-45455075D01*
X39099126Y-45455079D01*
X38946688Y-45643870D01*
X38828347Y-45855709D01*
X38747511Y-46084499D01*
X38747507Y-46084513D01*
X38706500Y-46323662D01*
X38706500Y-46329265D01*
X38686815Y-46396304D01*
X38664507Y-46422275D01*
X38659065Y-46427072D01*
X38554550Y-46545621D01*
X38482802Y-46686433D01*
X38465564Y-46763551D01*
X38458759Y-46794000D01*
X38448327Y-46840669D01*
X38453291Y-46998628D01*
X38497380Y-47150385D01*
X38497382Y-47150390D01*
X38577827Y-47286416D01*
X38577829Y-47286419D01*
X38577830Y-47286420D01*
X38670182Y-47378772D01*
X38703666Y-47440093D01*
X38706500Y-47466452D01*
X38706500Y-47703559D01*
X38721923Y-47884775D01*
X38721924Y-47884777D01*
X38783068Y-48119608D01*
X38783069Y-48119611D01*
X38883013Y-48340713D01*
X38883020Y-48340725D01*
X39018900Y-48541765D01*
X39018902Y-48541767D01*
X39186803Y-48716952D01*
X39186804Y-48716953D01*
X39381893Y-48861241D01*
X39381895Y-48861242D01*
X39381898Y-48861244D01*
X39598571Y-48970488D01*
X39830591Y-49041543D01*
X40071281Y-49072365D01*
X40313719Y-49062066D01*
X40550928Y-49010944D01*
X40776086Y-48920468D01*
X40982714Y-48793242D01*
X41164869Y-48632925D01*
X41317311Y-48444130D01*
X41435653Y-48232288D01*
X41516491Y-48003493D01*
X41536847Y-47884775D01*
X41557499Y-47764337D01*
X41557500Y-47764326D01*
X41557500Y-47703539D01*
X43707000Y-47703539D01*
X43722417Y-47884692D01*
X43783541Y-48119440D01*
X43883453Y-48340472D01*
X43883458Y-48340480D01*
X44019291Y-48541450D01*
X44019293Y-48541453D01*
X44187135Y-48716575D01*
X44187136Y-48716576D01*
X44382156Y-48860813D01*
X44598757Y-48970021D01*
X44830701Y-49041053D01*
X44830699Y-49041053D01*
X44882000Y-49047622D01*
X44882000Y-47648310D01*
X44890817Y-47653158D01*
X45049886Y-47694000D01*
X45172894Y-47694000D01*
X45294933Y-47678583D01*
X45382000Y-47644110D01*
X45382000Y-49046837D01*
X45550781Y-49010463D01*
X45550782Y-49010463D01*
X45775856Y-48920021D01*
X45982415Y-48792838D01*
X46164507Y-48632577D01*
X46164511Y-48632573D01*
X46316890Y-48443855D01*
X46316894Y-48443849D01*
X46435194Y-48232082D01*
X46516003Y-48003370D01*
X46516005Y-48003362D01*
X46556999Y-47764293D01*
X46557000Y-47764285D01*
X46557000Y-47294000D01*
X45732728Y-47294000D01*
X45755100Y-47246457D01*
X45785873Y-47085138D01*
X45775561Y-46921234D01*
X45734220Y-46794000D01*
X46557000Y-46794000D01*
X46557000Y-46384461D01*
X46541582Y-46203307D01*
X46480458Y-45968559D01*
X46380546Y-45747527D01*
X46380541Y-45747519D01*
X46244708Y-45546549D01*
X46244706Y-45546546D01*
X46076864Y-45371424D01*
X46076863Y-45371423D01*
X45881843Y-45227186D01*
X45665242Y-45117978D01*
X45433304Y-45046947D01*
X45433297Y-45046946D01*
X45382000Y-45040376D01*
X45382000Y-46439689D01*
X45373183Y-46434842D01*
X45214114Y-46394000D01*
X45091106Y-46394000D01*
X44969067Y-46409417D01*
X44882000Y-46443889D01*
X44882000Y-45041161D01*
X44713217Y-45077536D01*
X44713214Y-45077537D01*
X44488143Y-45167978D01*
X44281584Y-45295161D01*
X44099492Y-45455422D01*
X44099488Y-45455426D01*
X43947109Y-45644144D01*
X43947105Y-45644150D01*
X43828805Y-45855917D01*
X43747996Y-46084629D01*
X43747994Y-46084637D01*
X43707000Y-46323706D01*
X43707000Y-46794000D01*
X44531272Y-46794000D01*
X44508900Y-46841543D01*
X44478127Y-47002862D01*
X44488439Y-47166766D01*
X44529780Y-47294000D01*
X43707000Y-47294000D01*
X43707000Y-47703539D01*
X41557500Y-47703539D01*
X41557500Y-46384441D01*
X41542076Y-46203224D01*
X41542075Y-46203222D01*
X41542075Y-46203218D01*
X41493159Y-46015357D01*
X41480931Y-45968391D01*
X41480930Y-45968388D01*
X41380986Y-45747286D01*
X41380979Y-45747274D01*
X41245099Y-45546234D01*
X41245097Y-45546232D01*
X41077196Y-45371047D01*
X41077195Y-45371046D01*
X40882108Y-45226760D01*
X40882106Y-45226759D01*
X40882102Y-45226756D01*
X40825673Y-45198305D01*
X40774675Y-45150547D01*
X40757500Y-45087583D01*
X40757500Y-36501182D01*
X40777185Y-36434143D01*
X40816484Y-36395593D01*
X40982714Y-36293242D01*
X41164869Y-36132925D01*
X41317311Y-35944130D01*
X41435653Y-35732288D01*
X41516491Y-35503493D01*
X41536847Y-35384775D01*
X41557499Y-35264337D01*
X41557500Y-35264326D01*
X41557500Y-35203539D01*
X43707000Y-35203539D01*
X43722417Y-35384692D01*
X43783541Y-35619440D01*
X43883453Y-35840472D01*
X43883458Y-35840480D01*
X44019291Y-36041450D01*
X44019293Y-36041453D01*
X44187135Y-36216575D01*
X44187136Y-36216576D01*
X44382156Y-36360813D01*
X44598757Y-36470021D01*
X44830701Y-36541053D01*
X44830699Y-36541053D01*
X44882000Y-36547622D01*
X44882000Y-35148310D01*
X44890817Y-35153158D01*
X45049886Y-35194000D01*
X45172894Y-35194000D01*
X45294933Y-35178583D01*
X45382000Y-35144110D01*
X45382000Y-36546837D01*
X45550781Y-36510463D01*
X45550782Y-36510463D01*
X45775856Y-36420021D01*
X45982415Y-36292838D01*
X46164507Y-36132577D01*
X46164511Y-36132573D01*
X46316890Y-35943855D01*
X46316894Y-35943849D01*
X46435194Y-35732082D01*
X46516003Y-35503370D01*
X46516005Y-35503362D01*
X46556999Y-35264293D01*
X46557000Y-35264285D01*
X46557000Y-34794000D01*
X45732728Y-34794000D01*
X45755100Y-34746457D01*
X45785873Y-34585138D01*
X45775561Y-34421234D01*
X45734220Y-34294000D01*
X46557000Y-34294000D01*
X46557000Y-33884461D01*
X46541582Y-33703307D01*
X46480458Y-33468559D01*
X46380546Y-33247527D01*
X46380541Y-33247519D01*
X46244708Y-33046549D01*
X46244706Y-33046546D01*
X46076864Y-32871424D01*
X46076863Y-32871423D01*
X45881843Y-32727186D01*
X45665242Y-32617978D01*
X45433304Y-32546947D01*
X45433297Y-32546946D01*
X45382000Y-32540376D01*
X45382000Y-33939689D01*
X45373183Y-33934842D01*
X45214114Y-33894000D01*
X45091106Y-33894000D01*
X44969067Y-33909417D01*
X44882000Y-33943889D01*
X44882000Y-32541161D01*
X44713217Y-32577536D01*
X44713214Y-32577537D01*
X44488143Y-32667978D01*
X44281584Y-32795161D01*
X44099492Y-32955422D01*
X44099488Y-32955426D01*
X43947109Y-33144144D01*
X43947105Y-33144150D01*
X43828805Y-33355917D01*
X43747996Y-33584629D01*
X43747994Y-33584637D01*
X43707000Y-33823706D01*
X43707000Y-34294000D01*
X44531272Y-34294000D01*
X44508900Y-34341543D01*
X44478127Y-34502862D01*
X44488439Y-34666766D01*
X44529780Y-34794000D01*
X43707000Y-34794000D01*
X43707000Y-35203539D01*
X41557500Y-35203539D01*
X41557500Y-33884441D01*
X41542076Y-33703224D01*
X41542075Y-33703222D01*
X41542075Y-33703218D01*
X41493159Y-33515357D01*
X41480931Y-33468391D01*
X41480930Y-33468388D01*
X41380986Y-33247286D01*
X41380979Y-33247274D01*
X41245099Y-33046234D01*
X41245097Y-33046232D01*
X41077196Y-32871047D01*
X41077195Y-32871046D01*
X40882108Y-32726760D01*
X40882106Y-32726759D01*
X40882102Y-32726756D01*
X40825673Y-32698305D01*
X40774675Y-32650547D01*
X40757500Y-32587583D01*
X40757500Y-32544742D01*
X40759224Y-32529122D01*
X40758939Y-32529095D01*
X40759673Y-32521333D01*
X40757500Y-32452172D01*
X40757500Y-32422656D01*
X40757500Y-32422650D01*
X40756631Y-32415779D01*
X40756173Y-32409952D01*
X40754710Y-32363373D01*
X40749119Y-32344130D01*
X40745173Y-32325078D01*
X40742664Y-32305208D01*
X40725504Y-32261867D01*
X40723624Y-32256379D01*
X40710618Y-32211610D01*
X40700422Y-32194370D01*
X40691861Y-32176894D01*
X40684487Y-32158270D01*
X40684486Y-32158268D01*
X40657079Y-32120545D01*
X40653888Y-32115686D01*
X40630172Y-32075583D01*
X40630165Y-32075574D01*
X40616006Y-32061415D01*
X40603368Y-32046619D01*
X40591594Y-32030413D01*
X40555688Y-32000709D01*
X40551376Y-31996786D01*
X39781772Y-31227181D01*
X39748287Y-31165858D01*
X39753271Y-31096166D01*
X39795143Y-31040233D01*
X39860607Y-31015816D01*
X39869453Y-31015500D01*
X51211548Y-31015500D01*
X51278587Y-31035185D01*
X51299229Y-31051819D01*
X52170181Y-31922771D01*
X52203666Y-31984094D01*
X52206500Y-32010452D01*
X52206500Y-32586817D01*
X52186815Y-32653856D01*
X52147514Y-32692407D01*
X51981286Y-32794757D01*
X51799130Y-32955075D01*
X51799126Y-32955079D01*
X51646688Y-33143870D01*
X51528347Y-33355709D01*
X51447511Y-33584499D01*
X51447507Y-33584513D01*
X51406500Y-33823662D01*
X51406500Y-35203559D01*
X51421923Y-35384775D01*
X51421924Y-35384777D01*
X51483068Y-35619608D01*
X51483069Y-35619611D01*
X51583013Y-35840713D01*
X51583019Y-35840723D01*
X51718900Y-36041765D01*
X51886803Y-36216952D01*
X52081898Y-36361244D01*
X52138326Y-36389694D01*
X52189324Y-36437450D01*
X52206500Y-36500416D01*
X52206500Y-45086817D01*
X52186815Y-45153856D01*
X52147514Y-45192407D01*
X51981286Y-45294757D01*
X51799130Y-45455075D01*
X51799126Y-45455079D01*
X51646688Y-45643870D01*
X51528347Y-45855709D01*
X51447511Y-46084499D01*
X51447507Y-46084513D01*
X51406500Y-46323662D01*
X51406500Y-47703559D01*
X51421923Y-47884775D01*
X51421924Y-47884777D01*
X51483068Y-48119608D01*
X51483069Y-48119611D01*
X51583013Y-48340713D01*
X51583020Y-48340725D01*
X51718900Y-48541765D01*
X51718902Y-48541767D01*
X51886803Y-48716952D01*
X51886804Y-48716953D01*
X52081893Y-48861241D01*
X52081895Y-48861242D01*
X52081898Y-48861244D01*
X52298571Y-48970488D01*
X52530591Y-49041543D01*
X52771281Y-49072365D01*
X53013719Y-49062066D01*
X53250928Y-49010944D01*
X53476086Y-48920468D01*
X53682714Y-48793242D01*
X53864869Y-48632925D01*
X54017311Y-48444130D01*
X54135653Y-48232288D01*
X54216491Y-48003493D01*
X54236847Y-47884775D01*
X54257499Y-47764337D01*
X54257500Y-47764326D01*
X54257500Y-47703539D01*
X56407000Y-47703539D01*
X56422417Y-47884692D01*
X56483541Y-48119440D01*
X56583453Y-48340472D01*
X56583458Y-48340480D01*
X56719291Y-48541450D01*
X56719293Y-48541453D01*
X56887135Y-48716575D01*
X56887136Y-48716576D01*
X57082156Y-48860813D01*
X57298757Y-48970021D01*
X57530701Y-49041053D01*
X57530699Y-49041053D01*
X57582000Y-49047622D01*
X57582000Y-47648310D01*
X57590817Y-47653158D01*
X57749886Y-47694000D01*
X57872894Y-47694000D01*
X57994933Y-47678583D01*
X58082000Y-47644110D01*
X58082000Y-49046837D01*
X58250781Y-49010463D01*
X58250782Y-49010463D01*
X58475856Y-48920021D01*
X58682415Y-48792838D01*
X58864507Y-48632577D01*
X58864511Y-48632573D01*
X59016890Y-48443855D01*
X59016894Y-48443849D01*
X59135194Y-48232082D01*
X59216003Y-48003370D01*
X59216005Y-48003362D01*
X59256999Y-47764293D01*
X59257000Y-47764285D01*
X59257000Y-47294000D01*
X58432728Y-47294000D01*
X58455100Y-47246457D01*
X58485873Y-47085138D01*
X58475561Y-46921234D01*
X58434220Y-46794000D01*
X59257000Y-46794000D01*
X59257000Y-46384461D01*
X59241582Y-46203307D01*
X59180458Y-45968559D01*
X59080546Y-45747527D01*
X59080541Y-45747519D01*
X58944708Y-45546549D01*
X58944706Y-45546546D01*
X58776864Y-45371424D01*
X58776863Y-45371423D01*
X58581843Y-45227186D01*
X58365242Y-45117978D01*
X58133304Y-45046947D01*
X58133297Y-45046946D01*
X58082000Y-45040376D01*
X58082000Y-46439689D01*
X58073183Y-46434842D01*
X57914114Y-46394000D01*
X57791106Y-46394000D01*
X57669067Y-46409417D01*
X57582000Y-46443889D01*
X57582000Y-45041161D01*
X57413217Y-45077536D01*
X57413214Y-45077537D01*
X57188143Y-45167978D01*
X56981584Y-45295161D01*
X56799492Y-45455422D01*
X56799488Y-45455426D01*
X56647109Y-45644144D01*
X56647105Y-45644150D01*
X56528805Y-45855917D01*
X56447996Y-46084629D01*
X56447994Y-46084637D01*
X56407000Y-46323706D01*
X56407000Y-46794000D01*
X57231272Y-46794000D01*
X57208900Y-46841543D01*
X57178127Y-47002862D01*
X57188439Y-47166766D01*
X57229780Y-47294000D01*
X56407000Y-47294000D01*
X56407000Y-47703539D01*
X54257500Y-47703539D01*
X54257500Y-46384441D01*
X54242076Y-46203224D01*
X54242075Y-46203222D01*
X54242075Y-46203218D01*
X54193159Y-46015357D01*
X54180931Y-45968391D01*
X54180930Y-45968388D01*
X54080986Y-45747286D01*
X54080979Y-45747274D01*
X53945099Y-45546234D01*
X53945097Y-45546232D01*
X53777196Y-45371047D01*
X53777195Y-45371046D01*
X53582108Y-45226760D01*
X53582106Y-45226759D01*
X53582102Y-45226756D01*
X53525673Y-45198305D01*
X53474675Y-45150547D01*
X53457500Y-45087583D01*
X53457500Y-36501182D01*
X53477185Y-36434143D01*
X53516484Y-36395593D01*
X53682714Y-36293242D01*
X53864869Y-36132925D01*
X54017311Y-35944130D01*
X54135653Y-35732288D01*
X54216491Y-35503493D01*
X54236847Y-35384775D01*
X54257499Y-35264337D01*
X54257500Y-35264326D01*
X54257500Y-35203539D01*
X56407000Y-35203539D01*
X56422417Y-35384692D01*
X56483541Y-35619440D01*
X56583453Y-35840472D01*
X56583458Y-35840480D01*
X56719291Y-36041450D01*
X56719293Y-36041453D01*
X56887135Y-36216575D01*
X56887136Y-36216576D01*
X57082156Y-36360813D01*
X57298757Y-36470021D01*
X57530701Y-36541053D01*
X57530699Y-36541053D01*
X57581999Y-36547622D01*
X57582000Y-36547622D01*
X57582000Y-35148310D01*
X57590817Y-35153158D01*
X57749886Y-35194000D01*
X57872894Y-35194000D01*
X57994933Y-35178583D01*
X58082000Y-35144110D01*
X58082000Y-36546837D01*
X58250781Y-36510463D01*
X58250782Y-36510463D01*
X58475856Y-36420021D01*
X58682415Y-36292838D01*
X58864507Y-36132577D01*
X58864511Y-36132573D01*
X59016890Y-35943855D01*
X59016894Y-35943849D01*
X59135194Y-35732082D01*
X59216003Y-35503370D01*
X59216005Y-35503362D01*
X59256999Y-35264293D01*
X59257000Y-35264285D01*
X59257000Y-34794000D01*
X58432728Y-34794000D01*
X58455100Y-34746457D01*
X58485873Y-34585138D01*
X58475561Y-34421234D01*
X58434220Y-34294000D01*
X59257000Y-34294000D01*
X59257000Y-33884461D01*
X59241582Y-33703307D01*
X59180458Y-33468559D01*
X59080546Y-33247527D01*
X59080541Y-33247519D01*
X58944708Y-33046549D01*
X58944706Y-33046546D01*
X58776864Y-32871424D01*
X58776863Y-32871423D01*
X58581843Y-32727186D01*
X58365242Y-32617978D01*
X58133304Y-32546947D01*
X58133297Y-32546946D01*
X58082000Y-32540376D01*
X58082000Y-33939689D01*
X58073183Y-33934842D01*
X57914114Y-33894000D01*
X57791106Y-33894000D01*
X57669067Y-33909417D01*
X57582000Y-33943889D01*
X57582000Y-32541161D01*
X57413217Y-32577536D01*
X57413214Y-32577537D01*
X57188143Y-32667978D01*
X56981584Y-32795161D01*
X56799492Y-32955422D01*
X56799488Y-32955426D01*
X56647109Y-33144144D01*
X56647105Y-33144150D01*
X56528805Y-33355917D01*
X56447996Y-33584629D01*
X56447994Y-33584637D01*
X56407000Y-33823706D01*
X56407000Y-34294000D01*
X57231272Y-34294000D01*
X57208900Y-34341543D01*
X57178127Y-34502862D01*
X57188439Y-34666766D01*
X57229780Y-34794000D01*
X56407000Y-34794000D01*
X56407000Y-35203539D01*
X54257500Y-35203539D01*
X54257500Y-33884441D01*
X54242076Y-33703224D01*
X54242075Y-33703222D01*
X54242075Y-33703218D01*
X54193159Y-33515357D01*
X54180931Y-33468391D01*
X54180930Y-33468388D01*
X54080986Y-33247286D01*
X54080979Y-33247274D01*
X53945099Y-33046234D01*
X53945097Y-33046232D01*
X53777196Y-32871047D01*
X53777195Y-32871046D01*
X53582108Y-32726760D01*
X53582106Y-32726759D01*
X53582102Y-32726756D01*
X53525673Y-32698305D01*
X53474675Y-32650547D01*
X53457500Y-32587583D01*
X53457500Y-31782742D01*
X53459224Y-31767122D01*
X53458939Y-31767095D01*
X53459673Y-31759333D01*
X53457500Y-31690172D01*
X53457500Y-31660656D01*
X53457500Y-31660650D01*
X53456631Y-31653779D01*
X53456173Y-31647952D01*
X53455614Y-31630161D01*
X53454710Y-31601373D01*
X53449119Y-31582130D01*
X53445173Y-31563078D01*
X53442664Y-31543208D01*
X53425504Y-31499867D01*
X53423624Y-31494379D01*
X53410618Y-31449610D01*
X53400422Y-31432370D01*
X53391861Y-31414894D01*
X53384487Y-31396270D01*
X53382798Y-31393945D01*
X53357079Y-31358545D01*
X53353888Y-31353686D01*
X53330172Y-31313583D01*
X53330165Y-31313574D01*
X53316006Y-31299415D01*
X53303368Y-31284619D01*
X53291594Y-31268413D01*
X53282691Y-31261048D01*
X53255688Y-31238709D01*
X53251376Y-31234786D01*
X52227772Y-30211181D01*
X52194287Y-30149858D01*
X52199271Y-30080166D01*
X52241143Y-30024233D01*
X52306607Y-29999816D01*
X52315453Y-29999500D01*
X63403548Y-29999500D01*
X63470587Y-30019185D01*
X63491229Y-30035819D01*
X64870181Y-31414771D01*
X64903666Y-31476094D01*
X64906500Y-31502452D01*
X64906500Y-32586817D01*
X64886815Y-32653856D01*
X64847514Y-32692407D01*
X64681286Y-32794757D01*
X64499130Y-32955075D01*
X64499126Y-32955079D01*
X64346688Y-33143870D01*
X64228347Y-33355709D01*
X64147511Y-33584499D01*
X64147507Y-33584513D01*
X64106500Y-33823662D01*
X64106500Y-35203559D01*
X64121923Y-35384775D01*
X64121924Y-35384777D01*
X64183068Y-35619608D01*
X64183069Y-35619611D01*
X64283013Y-35840713D01*
X64283019Y-35840723D01*
X64418900Y-36041765D01*
X64586803Y-36216952D01*
X64781898Y-36361244D01*
X64838326Y-36389694D01*
X64889324Y-36437450D01*
X64906500Y-36500416D01*
X64906500Y-45086817D01*
X64886815Y-45153856D01*
X64847514Y-45192407D01*
X64681286Y-45294757D01*
X64499130Y-45455075D01*
X64499126Y-45455079D01*
X64346688Y-45643870D01*
X64228347Y-45855709D01*
X64147511Y-46084499D01*
X64147507Y-46084513D01*
X64106500Y-46323662D01*
X64106500Y-47703559D01*
X64121923Y-47884775D01*
X64121924Y-47884777D01*
X64183068Y-48119608D01*
X64183069Y-48119611D01*
X64283013Y-48340713D01*
X64283020Y-48340725D01*
X64418900Y-48541765D01*
X64418902Y-48541767D01*
X64586803Y-48716952D01*
X64586804Y-48716953D01*
X64781893Y-48861241D01*
X64781895Y-48861242D01*
X64781898Y-48861244D01*
X64998571Y-48970488D01*
X65230591Y-49041543D01*
X65471281Y-49072365D01*
X65713719Y-49062066D01*
X65950928Y-49010944D01*
X66176086Y-48920468D01*
X66382714Y-48793242D01*
X66564869Y-48632925D01*
X66717311Y-48444130D01*
X66835653Y-48232288D01*
X66916491Y-48003493D01*
X66936847Y-47884775D01*
X66957499Y-47764337D01*
X66957500Y-47764326D01*
X66957500Y-47703539D01*
X69107000Y-47703539D01*
X69122417Y-47884692D01*
X69183541Y-48119440D01*
X69283453Y-48340472D01*
X69283458Y-48340480D01*
X69419291Y-48541450D01*
X69419293Y-48541453D01*
X69587135Y-48716575D01*
X69587136Y-48716576D01*
X69782156Y-48860813D01*
X69998757Y-48970021D01*
X70230701Y-49041053D01*
X70230699Y-49041053D01*
X70281999Y-49047622D01*
X70282000Y-49047622D01*
X70282000Y-47648310D01*
X70290817Y-47653158D01*
X70449886Y-47694000D01*
X70572894Y-47694000D01*
X70694933Y-47678583D01*
X70782000Y-47644110D01*
X70782000Y-49046837D01*
X70950781Y-49010463D01*
X70950782Y-49010463D01*
X71175856Y-48920021D01*
X71382415Y-48792838D01*
X71564507Y-48632577D01*
X71564511Y-48632573D01*
X71716890Y-48443855D01*
X71716894Y-48443849D01*
X71835194Y-48232082D01*
X71916003Y-48003370D01*
X71916005Y-48003362D01*
X71956999Y-47764293D01*
X71957000Y-47764285D01*
X71957000Y-47294000D01*
X71132728Y-47294000D01*
X71155100Y-47246457D01*
X71185873Y-47085138D01*
X71175561Y-46921234D01*
X71134220Y-46794000D01*
X71957000Y-46794000D01*
X71957000Y-46384461D01*
X71941582Y-46203307D01*
X71880458Y-45968559D01*
X71780546Y-45747527D01*
X71780541Y-45747519D01*
X71644708Y-45546549D01*
X71644706Y-45546546D01*
X71476864Y-45371424D01*
X71476863Y-45371423D01*
X71281843Y-45227186D01*
X71065242Y-45117978D01*
X70833304Y-45046947D01*
X70833297Y-45046946D01*
X70782000Y-45040376D01*
X70782000Y-46439689D01*
X70773183Y-46434842D01*
X70614114Y-46394000D01*
X70491106Y-46394000D01*
X70369067Y-46409417D01*
X70282000Y-46443889D01*
X70282000Y-45041161D01*
X70113217Y-45077536D01*
X70113214Y-45077537D01*
X69888143Y-45167978D01*
X69681584Y-45295161D01*
X69499492Y-45455422D01*
X69499488Y-45455426D01*
X69347109Y-45644144D01*
X69347105Y-45644150D01*
X69228805Y-45855917D01*
X69147996Y-46084629D01*
X69147994Y-46084637D01*
X69107000Y-46323706D01*
X69107000Y-46794000D01*
X69931272Y-46794000D01*
X69908900Y-46841543D01*
X69878127Y-47002862D01*
X69888439Y-47166766D01*
X69929780Y-47294000D01*
X69107000Y-47294000D01*
X69107000Y-47703539D01*
X66957500Y-47703539D01*
X66957500Y-46384441D01*
X66942076Y-46203224D01*
X66942075Y-46203222D01*
X66942075Y-46203218D01*
X66893159Y-46015357D01*
X66880931Y-45968391D01*
X66880930Y-45968388D01*
X66780986Y-45747286D01*
X66780979Y-45747274D01*
X66645099Y-45546234D01*
X66645097Y-45546232D01*
X66477196Y-45371047D01*
X66477195Y-45371046D01*
X66282108Y-45226760D01*
X66282106Y-45226759D01*
X66282102Y-45226756D01*
X66225673Y-45198305D01*
X66174675Y-45150547D01*
X66157500Y-45087583D01*
X66157500Y-36501182D01*
X66177185Y-36434143D01*
X66216484Y-36395593D01*
X66382714Y-36293242D01*
X66564869Y-36132925D01*
X66717311Y-35944130D01*
X66835653Y-35732288D01*
X66916491Y-35503493D01*
X66936847Y-35384775D01*
X66957499Y-35264337D01*
X66957500Y-35264326D01*
X66957500Y-35203539D01*
X69107000Y-35203539D01*
X69122417Y-35384692D01*
X69183541Y-35619440D01*
X69283453Y-35840472D01*
X69283458Y-35840480D01*
X69419291Y-36041450D01*
X69419293Y-36041453D01*
X69587135Y-36216575D01*
X69587136Y-36216576D01*
X69782156Y-36360813D01*
X69998757Y-36470021D01*
X70230701Y-36541053D01*
X70230699Y-36541053D01*
X70281999Y-36547622D01*
X70282000Y-36547622D01*
X70282000Y-35148310D01*
X70290817Y-35153158D01*
X70449886Y-35194000D01*
X70572894Y-35194000D01*
X70694933Y-35178583D01*
X70782000Y-35144110D01*
X70782000Y-36546837D01*
X70950781Y-36510463D01*
X70950782Y-36510463D01*
X71175856Y-36420021D01*
X71382415Y-36292838D01*
X71564507Y-36132577D01*
X71564511Y-36132573D01*
X71716890Y-35943855D01*
X71716894Y-35943849D01*
X71835194Y-35732082D01*
X71916003Y-35503370D01*
X71916005Y-35503362D01*
X71956999Y-35264293D01*
X71957000Y-35264285D01*
X71957000Y-34794000D01*
X71132728Y-34794000D01*
X71155100Y-34746457D01*
X71185873Y-34585138D01*
X71175561Y-34421234D01*
X71134220Y-34294000D01*
X71957000Y-34294000D01*
X71957000Y-33884461D01*
X71941582Y-33703307D01*
X71880458Y-33468559D01*
X71780546Y-33247527D01*
X71780541Y-33247519D01*
X71644708Y-33046549D01*
X71644706Y-33046546D01*
X71476864Y-32871424D01*
X71476863Y-32871423D01*
X71281843Y-32727186D01*
X71065242Y-32617978D01*
X70833304Y-32546947D01*
X70833297Y-32546946D01*
X70782000Y-32540376D01*
X70782000Y-33939689D01*
X70773183Y-33934842D01*
X70614114Y-33894000D01*
X70491106Y-33894000D01*
X70369067Y-33909417D01*
X70282000Y-33943889D01*
X70282000Y-32541161D01*
X70113217Y-32577536D01*
X70113214Y-32577537D01*
X69888143Y-32667978D01*
X69681584Y-32795161D01*
X69499492Y-32955422D01*
X69499488Y-32955426D01*
X69347109Y-33144144D01*
X69347105Y-33144150D01*
X69228805Y-33355917D01*
X69147996Y-33584629D01*
X69147994Y-33584637D01*
X69107000Y-33823706D01*
X69107000Y-34294000D01*
X69931272Y-34294000D01*
X69908900Y-34341543D01*
X69878127Y-34502862D01*
X69888439Y-34666766D01*
X69929780Y-34794000D01*
X69107000Y-34794000D01*
X69107000Y-35203539D01*
X66957500Y-35203539D01*
X66957500Y-33884441D01*
X66942076Y-33703224D01*
X66942075Y-33703222D01*
X66942075Y-33703218D01*
X66893159Y-33515357D01*
X66880931Y-33468391D01*
X66880930Y-33468388D01*
X66780986Y-33247286D01*
X66780979Y-33247274D01*
X66645099Y-33046234D01*
X66645097Y-33046232D01*
X66477196Y-32871047D01*
X66477195Y-32871046D01*
X66282108Y-32726760D01*
X66282106Y-32726759D01*
X66282102Y-32726756D01*
X66225673Y-32698305D01*
X66174675Y-32650547D01*
X66157500Y-32587583D01*
X66157500Y-31274737D01*
X66159224Y-31259123D01*
X66158938Y-31259096D01*
X66159672Y-31251333D01*
X66157500Y-31182203D01*
X66157500Y-31152651D01*
X66157500Y-31152650D01*
X66156629Y-31145759D01*
X66156172Y-31139945D01*
X66154709Y-31093372D01*
X66149122Y-31074144D01*
X66145174Y-31055084D01*
X66144762Y-31051819D01*
X66142664Y-31035208D01*
X66125507Y-30991875D01*
X66123619Y-30986359D01*
X66110619Y-30941612D01*
X66100418Y-30924363D01*
X66091860Y-30906894D01*
X66084486Y-30888268D01*
X66084483Y-30888264D01*
X66084483Y-30888263D01*
X66057098Y-30850571D01*
X66053890Y-30845687D01*
X66030172Y-30805582D01*
X66030163Y-30805571D01*
X66016005Y-30791413D01*
X66003370Y-30776620D01*
X65991593Y-30760412D01*
X65955693Y-30730713D01*
X65951381Y-30726790D01*
X64673772Y-29449181D01*
X64640287Y-29387858D01*
X64645271Y-29318166D01*
X64687143Y-29262233D01*
X64752607Y-29237816D01*
X64761453Y-29237500D01*
X75849548Y-29237500D01*
X75916587Y-29257185D01*
X75937229Y-29273819D01*
X77570181Y-30906771D01*
X77603666Y-30968094D01*
X77606500Y-30994452D01*
X77606500Y-32586817D01*
X77586815Y-32653856D01*
X77547514Y-32692407D01*
X77381286Y-32794757D01*
X77199130Y-32955075D01*
X77199126Y-32955079D01*
X77046688Y-33143870D01*
X76928347Y-33355709D01*
X76847511Y-33584499D01*
X76847507Y-33584513D01*
X76806500Y-33823662D01*
X76806500Y-35203559D01*
X76821923Y-35384775D01*
X76821924Y-35384777D01*
X76883068Y-35619608D01*
X76883069Y-35619611D01*
X76983013Y-35840713D01*
X76983019Y-35840723D01*
X77118900Y-36041765D01*
X77286803Y-36216952D01*
X77481898Y-36361244D01*
X77538326Y-36389694D01*
X77589324Y-36437450D01*
X77606500Y-36500416D01*
X77606500Y-45086817D01*
X77586815Y-45153856D01*
X77547514Y-45192407D01*
X77381286Y-45294757D01*
X77199130Y-45455075D01*
X77199126Y-45455079D01*
X77046688Y-45643870D01*
X76928347Y-45855709D01*
X76847511Y-46084499D01*
X76847507Y-46084513D01*
X76806500Y-46323662D01*
X76806500Y-47703559D01*
X76821923Y-47884775D01*
X76821924Y-47884777D01*
X76883068Y-48119608D01*
X76883069Y-48119611D01*
X76983013Y-48340713D01*
X76983020Y-48340725D01*
X77118900Y-48541765D01*
X77118902Y-48541767D01*
X77286803Y-48716952D01*
X77286804Y-48716953D01*
X77481893Y-48861241D01*
X77481895Y-48861242D01*
X77481898Y-48861244D01*
X77698571Y-48970488D01*
X77930591Y-49041543D01*
X78171281Y-49072365D01*
X78413719Y-49062066D01*
X78650928Y-49010944D01*
X78876086Y-48920468D01*
X79082714Y-48793242D01*
X79264869Y-48632925D01*
X79417311Y-48444130D01*
X79535653Y-48232288D01*
X79616491Y-48003493D01*
X79636847Y-47884775D01*
X79657499Y-47764337D01*
X79657500Y-47764326D01*
X79657500Y-47703539D01*
X81807000Y-47703539D01*
X81822417Y-47884692D01*
X81883541Y-48119440D01*
X81983453Y-48340472D01*
X81983458Y-48340480D01*
X82119291Y-48541450D01*
X82119293Y-48541453D01*
X82287135Y-48716575D01*
X82287136Y-48716576D01*
X82482156Y-48860813D01*
X82698757Y-48970021D01*
X82930701Y-49041053D01*
X82930699Y-49041053D01*
X82981999Y-49047622D01*
X82982000Y-49047622D01*
X82982000Y-47648310D01*
X82990817Y-47653158D01*
X83149886Y-47694000D01*
X83272894Y-47694000D01*
X83394933Y-47678583D01*
X83482000Y-47644110D01*
X83482000Y-49046837D01*
X83650781Y-49010463D01*
X83650782Y-49010463D01*
X83875856Y-48920021D01*
X84082415Y-48792838D01*
X84264507Y-48632577D01*
X84264511Y-48632573D01*
X84416890Y-48443855D01*
X84416894Y-48443849D01*
X84535194Y-48232082D01*
X84616003Y-48003370D01*
X84616005Y-48003362D01*
X84656999Y-47764293D01*
X84657000Y-47764285D01*
X84657000Y-47294000D01*
X83832728Y-47294000D01*
X83855100Y-47246457D01*
X83885873Y-47085138D01*
X83875561Y-46921234D01*
X83834220Y-46794000D01*
X84657000Y-46794000D01*
X84657000Y-46384461D01*
X84641582Y-46203307D01*
X84580458Y-45968559D01*
X84480546Y-45747527D01*
X84480541Y-45747519D01*
X84344708Y-45546549D01*
X84344706Y-45546546D01*
X84176864Y-45371424D01*
X84176863Y-45371423D01*
X83981843Y-45227186D01*
X83765242Y-45117978D01*
X83533304Y-45046947D01*
X83533297Y-45046946D01*
X83482000Y-45040376D01*
X83482000Y-46439689D01*
X83473183Y-46434842D01*
X83314114Y-46394000D01*
X83191106Y-46394000D01*
X83069067Y-46409417D01*
X82982000Y-46443889D01*
X82982000Y-45041161D01*
X82813217Y-45077536D01*
X82813214Y-45077537D01*
X82588143Y-45167978D01*
X82381584Y-45295161D01*
X82199492Y-45455422D01*
X82199488Y-45455426D01*
X82047109Y-45644144D01*
X82047105Y-45644150D01*
X81928805Y-45855917D01*
X81847996Y-46084629D01*
X81847994Y-46084637D01*
X81807000Y-46323706D01*
X81807000Y-46794000D01*
X82631272Y-46794000D01*
X82608900Y-46841543D01*
X82578127Y-47002862D01*
X82588439Y-47166766D01*
X82629780Y-47294000D01*
X81807000Y-47294000D01*
X81807000Y-47703539D01*
X79657500Y-47703539D01*
X79657500Y-46384441D01*
X79642076Y-46203224D01*
X79642075Y-46203222D01*
X79642075Y-46203218D01*
X79593159Y-46015357D01*
X79580931Y-45968391D01*
X79580930Y-45968388D01*
X79480986Y-45747286D01*
X79480979Y-45747274D01*
X79345099Y-45546234D01*
X79345097Y-45546232D01*
X79177196Y-45371047D01*
X79177195Y-45371046D01*
X78982108Y-45226760D01*
X78982106Y-45226759D01*
X78982102Y-45226756D01*
X78925673Y-45198305D01*
X78874675Y-45150547D01*
X78857500Y-45087583D01*
X78857500Y-36501182D01*
X78877185Y-36434143D01*
X78916484Y-36395593D01*
X79082714Y-36293242D01*
X79264869Y-36132925D01*
X79417311Y-35944130D01*
X79535653Y-35732288D01*
X79616491Y-35503493D01*
X79636847Y-35384775D01*
X79657499Y-35264337D01*
X79657500Y-35264326D01*
X79657500Y-35203539D01*
X81807000Y-35203539D01*
X81822417Y-35384692D01*
X81883541Y-35619440D01*
X81983453Y-35840472D01*
X81983458Y-35840480D01*
X82119291Y-36041450D01*
X82119293Y-36041453D01*
X82287135Y-36216575D01*
X82287136Y-36216576D01*
X82482156Y-36360813D01*
X82698757Y-36470021D01*
X82930701Y-36541053D01*
X82930699Y-36541053D01*
X82981999Y-36547622D01*
X82982000Y-36547622D01*
X82982000Y-35148310D01*
X82990817Y-35153158D01*
X83149886Y-35194000D01*
X83272894Y-35194000D01*
X83394933Y-35178583D01*
X83482000Y-35144110D01*
X83482000Y-36546837D01*
X83650781Y-36510463D01*
X83650782Y-36510463D01*
X83875856Y-36420021D01*
X84082415Y-36292838D01*
X84264507Y-36132577D01*
X84264511Y-36132573D01*
X84416890Y-35943855D01*
X84416894Y-35943849D01*
X84535194Y-35732082D01*
X84616003Y-35503370D01*
X84616005Y-35503362D01*
X84656999Y-35264293D01*
X84657000Y-35264285D01*
X84657000Y-34794000D01*
X83832728Y-34794000D01*
X83855100Y-34746457D01*
X83885873Y-34585138D01*
X83875561Y-34421234D01*
X83834220Y-34294000D01*
X84657000Y-34294000D01*
X84657000Y-33884461D01*
X84641582Y-33703307D01*
X84580458Y-33468559D01*
X84480546Y-33247527D01*
X84480541Y-33247519D01*
X84344708Y-33046549D01*
X84344706Y-33046546D01*
X84176864Y-32871424D01*
X84176863Y-32871423D01*
X83981843Y-32727186D01*
X83765242Y-32617978D01*
X83533304Y-32546947D01*
X83533297Y-32546946D01*
X83482000Y-32540376D01*
X83482000Y-33939689D01*
X83473183Y-33934842D01*
X83314114Y-33894000D01*
X83191106Y-33894000D01*
X83069067Y-33909417D01*
X82982000Y-33943889D01*
X82982000Y-32541161D01*
X82813217Y-32577536D01*
X82813214Y-32577537D01*
X82588143Y-32667978D01*
X82381584Y-32795161D01*
X82199492Y-32955422D01*
X82199488Y-32955426D01*
X82047109Y-33144144D01*
X82047105Y-33144150D01*
X81928805Y-33355917D01*
X81847996Y-33584629D01*
X81847994Y-33584637D01*
X81807000Y-33823706D01*
X81807000Y-34294000D01*
X82631272Y-34294000D01*
X82608900Y-34341543D01*
X82578127Y-34502862D01*
X82588439Y-34666766D01*
X82629780Y-34794000D01*
X81807000Y-34794000D01*
X81807000Y-35203539D01*
X79657500Y-35203539D01*
X79657500Y-33884441D01*
X79642076Y-33703224D01*
X79642075Y-33703222D01*
X79642075Y-33703218D01*
X79593159Y-33515357D01*
X79580931Y-33468391D01*
X79580930Y-33468388D01*
X79480986Y-33247286D01*
X79480979Y-33247274D01*
X79345099Y-33046234D01*
X79345097Y-33046232D01*
X79177196Y-32871047D01*
X79177195Y-32871046D01*
X78982108Y-32726760D01*
X78982106Y-32726759D01*
X78982102Y-32726756D01*
X78925673Y-32698305D01*
X78874675Y-32650547D01*
X78857500Y-32587583D01*
X78857500Y-30766742D01*
X78859224Y-30751122D01*
X78858939Y-30751095D01*
X78859673Y-30743333D01*
X78857500Y-30674172D01*
X78857500Y-30644656D01*
X78857500Y-30644650D01*
X78856631Y-30637779D01*
X78856173Y-30631952D01*
X78854710Y-30585373D01*
X78849119Y-30566130D01*
X78845173Y-30547078D01*
X78842664Y-30527208D01*
X78825504Y-30483867D01*
X78823624Y-30478379D01*
X78810618Y-30433610D01*
X78810617Y-30433608D01*
X78800419Y-30416364D01*
X78791858Y-30398888D01*
X78784487Y-30380270D01*
X78781488Y-30376142D01*
X78757090Y-30342560D01*
X78753892Y-30337691D01*
X78752962Y-30336119D01*
X78730171Y-30297580D01*
X78730169Y-30297578D01*
X78730166Y-30297574D01*
X78716005Y-30283413D01*
X78703370Y-30268620D01*
X78691593Y-30252412D01*
X78655693Y-30222713D01*
X78651381Y-30218790D01*
X76865772Y-28433181D01*
X76832287Y-28371858D01*
X76837271Y-28302166D01*
X76879143Y-28246233D01*
X76944607Y-28221816D01*
X76953453Y-28221500D01*
X86771548Y-28221500D01*
X86838587Y-28241185D01*
X86859229Y-28257819D01*
X90270181Y-31668771D01*
X90303666Y-31730094D01*
X90306500Y-31756452D01*
X90306500Y-32586817D01*
X90286815Y-32653856D01*
X90247514Y-32692407D01*
X90081286Y-32794757D01*
X89899130Y-32955075D01*
X89899126Y-32955079D01*
X89746688Y-33143870D01*
X89628347Y-33355709D01*
X89547511Y-33584499D01*
X89547507Y-33584513D01*
X89506500Y-33823662D01*
X89506500Y-35203559D01*
X89521923Y-35384775D01*
X89521924Y-35384777D01*
X89583068Y-35619608D01*
X89583069Y-35619611D01*
X89683013Y-35840713D01*
X89683019Y-35840723D01*
X89818900Y-36041765D01*
X89986803Y-36216952D01*
X90181898Y-36361244D01*
X90238326Y-36389694D01*
X90289324Y-36437450D01*
X90306500Y-36500416D01*
X90306500Y-45086817D01*
X90286815Y-45153856D01*
X90247514Y-45192407D01*
X90081286Y-45294757D01*
X89899130Y-45455075D01*
X89899126Y-45455079D01*
X89746688Y-45643870D01*
X89628347Y-45855709D01*
X89547511Y-46084499D01*
X89547507Y-46084513D01*
X89506500Y-46323662D01*
X89506500Y-47703559D01*
X89521923Y-47884775D01*
X89521924Y-47884777D01*
X89583068Y-48119608D01*
X89583069Y-48119611D01*
X89683013Y-48340713D01*
X89683020Y-48340725D01*
X89818900Y-48541765D01*
X89818902Y-48541767D01*
X89986803Y-48716952D01*
X89986804Y-48716953D01*
X90181893Y-48861241D01*
X90181895Y-48861242D01*
X90181898Y-48861244D01*
X90398571Y-48970488D01*
X90630591Y-49041543D01*
X90871281Y-49072365D01*
X91113719Y-49062066D01*
X91350928Y-49010944D01*
X91576086Y-48920468D01*
X91782714Y-48793242D01*
X91964869Y-48632925D01*
X92117311Y-48444130D01*
X92235653Y-48232288D01*
X92316491Y-48003493D01*
X92336847Y-47884775D01*
X92357499Y-47764337D01*
X92357500Y-47764326D01*
X92357500Y-47703539D01*
X94507000Y-47703539D01*
X94522417Y-47884692D01*
X94583541Y-48119440D01*
X94683453Y-48340472D01*
X94683458Y-48340480D01*
X94819291Y-48541450D01*
X94819293Y-48541453D01*
X94987135Y-48716575D01*
X94987136Y-48716576D01*
X95182156Y-48860813D01*
X95398757Y-48970021D01*
X95630701Y-49041053D01*
X95630699Y-49041053D01*
X95681999Y-49047622D01*
X95682000Y-49047622D01*
X95682000Y-47648310D01*
X95690817Y-47653158D01*
X95849886Y-47694000D01*
X95972894Y-47694000D01*
X96094933Y-47678583D01*
X96182000Y-47644110D01*
X96182000Y-49046837D01*
X96350781Y-49010463D01*
X96350782Y-49010463D01*
X96575856Y-48920021D01*
X96782415Y-48792838D01*
X96964507Y-48632577D01*
X96964511Y-48632573D01*
X97116890Y-48443855D01*
X97116894Y-48443849D01*
X97235194Y-48232082D01*
X97316003Y-48003370D01*
X97316005Y-48003362D01*
X97356999Y-47764293D01*
X97357000Y-47764285D01*
X97357000Y-47294000D01*
X96532728Y-47294000D01*
X96555100Y-47246457D01*
X96585873Y-47085138D01*
X96575561Y-46921234D01*
X96534220Y-46794000D01*
X97357000Y-46794000D01*
X97357000Y-46384461D01*
X97341582Y-46203307D01*
X97280458Y-45968559D01*
X97180546Y-45747527D01*
X97180541Y-45747519D01*
X97044708Y-45546549D01*
X97044706Y-45546546D01*
X96876864Y-45371424D01*
X96876863Y-45371423D01*
X96681843Y-45227186D01*
X96465242Y-45117978D01*
X96233304Y-45046947D01*
X96233297Y-45046946D01*
X96182000Y-45040376D01*
X96182000Y-46439689D01*
X96173183Y-46434842D01*
X96014114Y-46394000D01*
X95891106Y-46394000D01*
X95769067Y-46409417D01*
X95682000Y-46443889D01*
X95682000Y-45041161D01*
X95513217Y-45077536D01*
X95513214Y-45077537D01*
X95288143Y-45167978D01*
X95081584Y-45295161D01*
X94899492Y-45455422D01*
X94899488Y-45455426D01*
X94747109Y-45644144D01*
X94747105Y-45644150D01*
X94628805Y-45855917D01*
X94547996Y-46084629D01*
X94547994Y-46084637D01*
X94507000Y-46323706D01*
X94507000Y-46794000D01*
X95331272Y-46794000D01*
X95308900Y-46841543D01*
X95278127Y-47002862D01*
X95288439Y-47166766D01*
X95329780Y-47294000D01*
X94507000Y-47294000D01*
X94507000Y-47703539D01*
X92357500Y-47703539D01*
X92357500Y-46384441D01*
X92342076Y-46203224D01*
X92342075Y-46203222D01*
X92342075Y-46203218D01*
X92293159Y-46015357D01*
X92280931Y-45968391D01*
X92280930Y-45968388D01*
X92180986Y-45747286D01*
X92180979Y-45747274D01*
X92045099Y-45546234D01*
X92045097Y-45546232D01*
X91877196Y-45371047D01*
X91877195Y-45371046D01*
X91682108Y-45226760D01*
X91682106Y-45226759D01*
X91682102Y-45226756D01*
X91625673Y-45198305D01*
X91574675Y-45150547D01*
X91557500Y-45087583D01*
X91557500Y-36501182D01*
X91577185Y-36434143D01*
X91616484Y-36395593D01*
X91782714Y-36293242D01*
X91964869Y-36132925D01*
X92117311Y-35944130D01*
X92235653Y-35732288D01*
X92316491Y-35503493D01*
X92336847Y-35384775D01*
X92357499Y-35264337D01*
X92357500Y-35264326D01*
X92357500Y-35203539D01*
X94507000Y-35203539D01*
X94522417Y-35384692D01*
X94583541Y-35619440D01*
X94683453Y-35840472D01*
X94683458Y-35840480D01*
X94819291Y-36041450D01*
X94819293Y-36041453D01*
X94987135Y-36216575D01*
X94987136Y-36216576D01*
X95182156Y-36360813D01*
X95398757Y-36470021D01*
X95630701Y-36541053D01*
X95630699Y-36541053D01*
X95681999Y-36547622D01*
X95682000Y-36547622D01*
X95682000Y-35148310D01*
X95690817Y-35153158D01*
X95849886Y-35194000D01*
X95972894Y-35194000D01*
X96094933Y-35178583D01*
X96182000Y-35144110D01*
X96182000Y-36546837D01*
X96350781Y-36510463D01*
X96350782Y-36510463D01*
X96575856Y-36420021D01*
X96782415Y-36292838D01*
X96964507Y-36132577D01*
X96964511Y-36132573D01*
X97116890Y-35943855D01*
X97116894Y-35943849D01*
X97235194Y-35732082D01*
X97316003Y-35503370D01*
X97316005Y-35503362D01*
X97356999Y-35264293D01*
X97357000Y-35264285D01*
X97357000Y-34794000D01*
X96532728Y-34794000D01*
X96555100Y-34746457D01*
X96585873Y-34585138D01*
X96575561Y-34421234D01*
X96534220Y-34294000D01*
X97357000Y-34294000D01*
X97357000Y-33884461D01*
X97341582Y-33703307D01*
X97280458Y-33468559D01*
X97180546Y-33247527D01*
X97180541Y-33247519D01*
X97044708Y-33046549D01*
X97044706Y-33046546D01*
X96876864Y-32871424D01*
X96876863Y-32871423D01*
X96681843Y-32727186D01*
X96465242Y-32617978D01*
X96233304Y-32546947D01*
X96233297Y-32546946D01*
X96182000Y-32540376D01*
X96182000Y-33939689D01*
X96173183Y-33934842D01*
X96014114Y-33894000D01*
X95891106Y-33894000D01*
X95769067Y-33909417D01*
X95682000Y-33943889D01*
X95682000Y-32541161D01*
X95513217Y-32577536D01*
X95513214Y-32577537D01*
X95288143Y-32667978D01*
X95081584Y-32795161D01*
X94899492Y-32955422D01*
X94899488Y-32955426D01*
X94747109Y-33144144D01*
X94747105Y-33144150D01*
X94628805Y-33355917D01*
X94547996Y-33584629D01*
X94547994Y-33584637D01*
X94507000Y-33823706D01*
X94507000Y-34294000D01*
X95331272Y-34294000D01*
X95308900Y-34341543D01*
X95278127Y-34502862D01*
X95288439Y-34666766D01*
X95329780Y-34794000D01*
X94507000Y-34794000D01*
X94507000Y-35203539D01*
X92357500Y-35203539D01*
X92357500Y-33884441D01*
X92342076Y-33703224D01*
X92342075Y-33703222D01*
X92342075Y-33703218D01*
X92293159Y-33515357D01*
X92280931Y-33468391D01*
X92280930Y-33468388D01*
X92180986Y-33247286D01*
X92180979Y-33247274D01*
X92045099Y-33046234D01*
X92045097Y-33046232D01*
X91877196Y-32871047D01*
X91877195Y-32871046D01*
X91682108Y-32726760D01*
X91682106Y-32726759D01*
X91682102Y-32726756D01*
X91625673Y-32698305D01*
X91574675Y-32650547D01*
X91557500Y-32587583D01*
X91557500Y-31528737D01*
X91559224Y-31513123D01*
X91558938Y-31513096D01*
X91559672Y-31505333D01*
X91559581Y-31502452D01*
X91557500Y-31436203D01*
X91557500Y-31406650D01*
X91556629Y-31399759D01*
X91556172Y-31393945D01*
X91554709Y-31347372D01*
X91549122Y-31328144D01*
X91545174Y-31309084D01*
X91543953Y-31299415D01*
X91542664Y-31289208D01*
X91525507Y-31245875D01*
X91523619Y-31240359D01*
X91510619Y-31195612D01*
X91500418Y-31178363D01*
X91491860Y-31160894D01*
X91484486Y-31142268D01*
X91484483Y-31142264D01*
X91484483Y-31142263D01*
X91457098Y-31104571D01*
X91453890Y-31099687D01*
X91430172Y-31059582D01*
X91430163Y-31059571D01*
X91416005Y-31045413D01*
X91403370Y-31030620D01*
X91391593Y-31014412D01*
X91355693Y-30984713D01*
X91351381Y-30980790D01*
X87582803Y-27212212D01*
X87572980Y-27199950D01*
X87572759Y-27200134D01*
X87567786Y-27194123D01*
X87559800Y-27186624D01*
X87517364Y-27146773D01*
X87504822Y-27134231D01*
X87496475Y-27125883D01*
X87490986Y-27121625D01*
X87486561Y-27117847D01*
X87452582Y-27085938D01*
X87452580Y-27085936D01*
X87452577Y-27085935D01*
X87435029Y-27076288D01*
X87418763Y-27065604D01*
X87402933Y-27053325D01*
X87360168Y-27034818D01*
X87354922Y-27032248D01*
X87314093Y-27009803D01*
X87314092Y-27009802D01*
X87294693Y-27004822D01*
X87276281Y-26998518D01*
X87257898Y-26990562D01*
X87257892Y-26990560D01*
X87211874Y-26983272D01*
X87206152Y-26982087D01*
X87161021Y-26970500D01*
X87161019Y-26970500D01*
X87140984Y-26970500D01*
X87121586Y-26968973D01*
X87114162Y-26967797D01*
X87101805Y-26965840D01*
X87101804Y-26965840D01*
X87055416Y-26970225D01*
X87049578Y-26970500D01*
X43368958Y-26970500D01*
X43301919Y-26950815D01*
X43256164Y-26898011D01*
X43246220Y-26828853D01*
X43275245Y-26765297D01*
X43306963Y-26739110D01*
X43309576Y-26737601D01*
X43503082Y-26602105D01*
X43670105Y-26435082D01*
X43805600Y-26241578D01*
X43905429Y-26027492D01*
X43905432Y-26027486D01*
X43962636Y-25814000D01*
X43065686Y-25814000D01*
X43091493Y-25773844D01*
X43132000Y-25635889D01*
X43132000Y-25492111D01*
X43091493Y-25354156D01*
X43065686Y-25314000D01*
X43962636Y-25314000D01*
X43962635Y-25313999D01*
X43905432Y-25100513D01*
X43905429Y-25100507D01*
X43805600Y-24886422D01*
X43805599Y-24886420D01*
X43670113Y-24692926D01*
X43670108Y-24692920D01*
X43503082Y-24525894D01*
X43309578Y-24390399D01*
X43095492Y-24290570D01*
X43095486Y-24290567D01*
X42882000Y-24233364D01*
X42882000Y-25128498D01*
X42774315Y-25079320D01*
X42667763Y-25064000D01*
X42596237Y-25064000D01*
X42489685Y-25079320D01*
X42382000Y-25128498D01*
X42382000Y-24233364D01*
X42381999Y-24233364D01*
X42168513Y-24290567D01*
X42168507Y-24290570D01*
X41954422Y-24390399D01*
X41954420Y-24390400D01*
X41760926Y-24525886D01*
X41760920Y-24525891D01*
X41593891Y-24692920D01*
X41593890Y-24692922D01*
X41463880Y-24878595D01*
X41409303Y-24922219D01*
X41339804Y-24929412D01*
X41277450Y-24897890D01*
X41260730Y-24878594D01*
X41130494Y-24692597D01*
X40963402Y-24525506D01*
X40963395Y-24525501D01*
X40769834Y-24389967D01*
X40769830Y-24389965D01*
X40769828Y-24389964D01*
X40555663Y-24290097D01*
X40555659Y-24290096D01*
X40555655Y-24290094D01*
X40327413Y-24228938D01*
X40327403Y-24228936D01*
X40092001Y-24208341D01*
X40091999Y-24208341D01*
X39856596Y-24228936D01*
X39856586Y-24228938D01*
X39628344Y-24290094D01*
X39628335Y-24290098D01*
X39414171Y-24389964D01*
X39414169Y-24389965D01*
X39220597Y-24525505D01*
X39053505Y-24692597D01*
X38923575Y-24878158D01*
X38868998Y-24921783D01*
X38799500Y-24928977D01*
X38737145Y-24897454D01*
X38720425Y-24878158D01*
X38590494Y-24692597D01*
X38423402Y-24525506D01*
X38423395Y-24525501D01*
X38229834Y-24389967D01*
X38229830Y-24389965D01*
X38229828Y-24389964D01*
X38015663Y-24290097D01*
X38015659Y-24290096D01*
X38015655Y-24290094D01*
X37787413Y-24228938D01*
X37787403Y-24228936D01*
X37552001Y-24208341D01*
X37551999Y-24208341D01*
X37316596Y-24228936D01*
X37316586Y-24228938D01*
X37088344Y-24290094D01*
X37088335Y-24290098D01*
X36874171Y-24389964D01*
X36874169Y-24389965D01*
X36680597Y-24525505D01*
X36513505Y-24692597D01*
X36383575Y-24878158D01*
X36328998Y-24921783D01*
X36259500Y-24928977D01*
X36197145Y-24897454D01*
X36180425Y-24878158D01*
X36050494Y-24692597D01*
X35883402Y-24525506D01*
X35883395Y-24525501D01*
X35689834Y-24389967D01*
X35689830Y-24389965D01*
X35689828Y-24389964D01*
X35475663Y-24290097D01*
X35475659Y-24290096D01*
X35475655Y-24290094D01*
X35247413Y-24228938D01*
X35247403Y-24228936D01*
X35012001Y-24208341D01*
X35011999Y-24208341D01*
X34776596Y-24228936D01*
X34776586Y-24228938D01*
X34548344Y-24290094D01*
X34548335Y-24290098D01*
X34334171Y-24389964D01*
X34334169Y-24389965D01*
X34140597Y-24525505D01*
X33973505Y-24692597D01*
X33843575Y-24878158D01*
X33788998Y-24921783D01*
X33719500Y-24928977D01*
X33657145Y-24897454D01*
X33640425Y-24878158D01*
X33510494Y-24692597D01*
X33343402Y-24525506D01*
X33343395Y-24525501D01*
X33149834Y-24389967D01*
X33149830Y-24389965D01*
X33149828Y-24389964D01*
X32935663Y-24290097D01*
X32935659Y-24290096D01*
X32935655Y-24290094D01*
X32707413Y-24228938D01*
X32707403Y-24228936D01*
X32472001Y-24208341D01*
X32471999Y-24208341D01*
X32236596Y-24228936D01*
X32236586Y-24228938D01*
X32008344Y-24290094D01*
X32008335Y-24290098D01*
X31794171Y-24389964D01*
X31794169Y-24389965D01*
X31600597Y-24525505D01*
X31433505Y-24692597D01*
X31303575Y-24878158D01*
X31248998Y-24921783D01*
X31179500Y-24928977D01*
X31117145Y-24897454D01*
X31100425Y-24878158D01*
X30970494Y-24692597D01*
X30803402Y-24525506D01*
X30803395Y-24525501D01*
X30609834Y-24389967D01*
X30609830Y-24389965D01*
X30609828Y-24389964D01*
X30395663Y-24290097D01*
X30395659Y-24290096D01*
X30395655Y-24290094D01*
X30167413Y-24228938D01*
X30167403Y-24228936D01*
X29932001Y-24208341D01*
X29931999Y-24208341D01*
X29696596Y-24228936D01*
X29696586Y-24228938D01*
X29468344Y-24290094D01*
X29468335Y-24290098D01*
X29254171Y-24389964D01*
X29254169Y-24389965D01*
X29060600Y-24525503D01*
X28938673Y-24647430D01*
X28877350Y-24680914D01*
X28807658Y-24675930D01*
X28751725Y-24634058D01*
X28734810Y-24603081D01*
X28685797Y-24471671D01*
X28685793Y-24471664D01*
X28599547Y-24356455D01*
X28599544Y-24356452D01*
X28484335Y-24270206D01*
X28484328Y-24270202D01*
X28349482Y-24219908D01*
X28349483Y-24219908D01*
X28289883Y-24213501D01*
X28289881Y-24213500D01*
X28289873Y-24213500D01*
X28289864Y-24213500D01*
X26494129Y-24213500D01*
X26494123Y-24213501D01*
X26434516Y-24219908D01*
X26299671Y-24270202D01*
X26299664Y-24270206D01*
X26184455Y-24356452D01*
X26184452Y-24356455D01*
X26098206Y-24471664D01*
X26098202Y-24471671D01*
X26047908Y-24606517D01*
X26041501Y-24666116D01*
X26041500Y-24666135D01*
X26041500Y-26461870D01*
X26041501Y-26461876D01*
X26047908Y-26521483D01*
X26098202Y-26656328D01*
X26098206Y-26656335D01*
X26184452Y-26771544D01*
X26184455Y-26771547D01*
X26299664Y-26857793D01*
X26299671Y-26857797D01*
X26300969Y-26858281D01*
X26434517Y-26908091D01*
X26494127Y-26914500D01*
X26642500Y-26914499D01*
X26709539Y-26934183D01*
X26755294Y-26986987D01*
X26766500Y-27038499D01*
X26766500Y-32611446D01*
X26746815Y-32678485D01*
X26707514Y-32717036D01*
X26581286Y-32794757D01*
X26399130Y-32955075D01*
X26399126Y-32955079D01*
X26246688Y-33143870D01*
X26128347Y-33355709D01*
X26047511Y-33584499D01*
X26047507Y-33584513D01*
X26006500Y-33823662D01*
X26006500Y-35203559D01*
X26021923Y-35384775D01*
X26021924Y-35384777D01*
X26083068Y-35619608D01*
X26083069Y-35619611D01*
X26183013Y-35840713D01*
X26183020Y-35840725D01*
X26318900Y-36041765D01*
X26318902Y-36041767D01*
X26486803Y-36216952D01*
X26486804Y-36216953D01*
X26681893Y-36361241D01*
X26681896Y-36361243D01*
X26698323Y-36369525D01*
X26749323Y-36417282D01*
X26766500Y-36480249D01*
X26766500Y-45111446D01*
X26746815Y-45178485D01*
X26707514Y-45217036D01*
X26581286Y-45294757D01*
X26399130Y-45455075D01*
X26399126Y-45455079D01*
X26246688Y-45643870D01*
X26128347Y-45855709D01*
X26047511Y-46084499D01*
X26047507Y-46084513D01*
X26006500Y-46323662D01*
X26006500Y-47703559D01*
X15240000Y-47703559D01*
X15240000Y-21067763D01*
X16433787Y-21067763D01*
X16463413Y-21337013D01*
X16463415Y-21337024D01*
X16531926Y-21599082D01*
X16531928Y-21599088D01*
X16637870Y-21848390D01*
X16709998Y-21966575D01*
X16778979Y-22079605D01*
X16778986Y-22079615D01*
X16952253Y-22287819D01*
X16952259Y-22287824D01*
X17153998Y-22468582D01*
X17379910Y-22618044D01*
X17625176Y-22733020D01*
X17625183Y-22733022D01*
X17625185Y-22733023D01*
X17884557Y-22811057D01*
X17884564Y-22811058D01*
X17884569Y-22811060D01*
X18152561Y-22850500D01*
X18152566Y-22850500D01*
X18355636Y-22850500D01*
X18407133Y-22846730D01*
X18558156Y-22835677D01*
X18670758Y-22810593D01*
X18822546Y-22776782D01*
X18822548Y-22776781D01*
X18822553Y-22776780D01*
X19075558Y-22680014D01*
X19311777Y-22547441D01*
X19526177Y-22381888D01*
X19714186Y-22186881D01*
X19871799Y-21966579D01*
X19945787Y-21822669D01*
X19995649Y-21725690D01*
X19995651Y-21725684D01*
X19995656Y-21725675D01*
X20083118Y-21469305D01*
X20132319Y-21202933D01*
X20137259Y-21067763D01*
X102433787Y-21067763D01*
X102463413Y-21337013D01*
X102463415Y-21337024D01*
X102531926Y-21599082D01*
X102531928Y-21599088D01*
X102637870Y-21848390D01*
X102709998Y-21966575D01*
X102778979Y-22079605D01*
X102778986Y-22079615D01*
X102952253Y-22287819D01*
X102952259Y-22287824D01*
X103153998Y-22468582D01*
X103379910Y-22618044D01*
X103625176Y-22733020D01*
X103625183Y-22733022D01*
X103625185Y-22733023D01*
X103884557Y-22811057D01*
X103884564Y-22811058D01*
X103884569Y-22811060D01*
X104152561Y-22850500D01*
X104152566Y-22850500D01*
X104355636Y-22850500D01*
X104407133Y-22846730D01*
X104558156Y-22835677D01*
X104670758Y-22810593D01*
X104822546Y-22776782D01*
X104822548Y-22776781D01*
X104822553Y-22776780D01*
X105075558Y-22680014D01*
X105311777Y-22547441D01*
X105526177Y-22381888D01*
X105714186Y-22186881D01*
X105871799Y-21966579D01*
X105945787Y-21822669D01*
X105995649Y-21725690D01*
X105995651Y-21725684D01*
X105995656Y-21725675D01*
X106083118Y-21469305D01*
X106132319Y-21202933D01*
X106142212Y-20932235D01*
X106112586Y-20662982D01*
X106044072Y-20400912D01*
X105938130Y-20151610D01*
X105797018Y-19920390D01*
X105707747Y-19813119D01*
X105623746Y-19712180D01*
X105623740Y-19712175D01*
X105422002Y-19531418D01*
X105196092Y-19381957D01*
X105196090Y-19381956D01*
X104950824Y-19266980D01*
X104950819Y-19266978D01*
X104950814Y-19266976D01*
X104691442Y-19188942D01*
X104691428Y-19188939D01*
X104575791Y-19171921D01*
X104423439Y-19149500D01*
X104220369Y-19149500D01*
X104220364Y-19149500D01*
X104017844Y-19164323D01*
X104017831Y-19164325D01*
X103753453Y-19223217D01*
X103753446Y-19223220D01*
X103500439Y-19319987D01*
X103264226Y-19452557D01*
X103049822Y-19618112D01*
X102861822Y-19813109D01*
X102861816Y-19813116D01*
X102704202Y-20033419D01*
X102704199Y-20033424D01*
X102580350Y-20274309D01*
X102580343Y-20274327D01*
X102492884Y-20530685D01*
X102492881Y-20530699D01*
X102443681Y-20797068D01*
X102443680Y-20797075D01*
X102433787Y-21067763D01*
X20137259Y-21067763D01*
X20142212Y-20932235D01*
X20112586Y-20662982D01*
X20044072Y-20400912D01*
X19938130Y-20151610D01*
X19797018Y-19920390D01*
X19707747Y-19813119D01*
X19623746Y-19712180D01*
X19623740Y-19712175D01*
X19422002Y-19531418D01*
X19196092Y-19381957D01*
X19196090Y-19381956D01*
X18950824Y-19266980D01*
X18950819Y-19266978D01*
X18950814Y-19266976D01*
X18691442Y-19188942D01*
X18691428Y-19188939D01*
X18575791Y-19171921D01*
X18423439Y-19149500D01*
X18220369Y-19149500D01*
X18220364Y-19149500D01*
X18017844Y-19164323D01*
X18017831Y-19164325D01*
X17753453Y-19223217D01*
X17753446Y-19223220D01*
X17500439Y-19319987D01*
X17264226Y-19452557D01*
X17049822Y-19618112D01*
X16861822Y-19813109D01*
X16861816Y-19813116D01*
X16704202Y-20033419D01*
X16704199Y-20033424D01*
X16580350Y-20274309D01*
X16580343Y-20274327D01*
X16492884Y-20530685D01*
X16492881Y-20530699D01*
X16443681Y-20797068D01*
X16443680Y-20797075D01*
X16433787Y-21067763D01*
X15240000Y-21067763D01*
X15240000Y-17904000D01*
X15259685Y-17836961D01*
X15312489Y-17791206D01*
X15364000Y-17780000D01*
X107572000Y-17780000D01*
X107639039Y-17799685D01*
G37*
%TD.AperFunction*%
%TD*%
M02*
