M48
; DRILL file {KiCad 8.0.2} date 2024-06-07T02:59:55+0300
; FORMAT={-:-/ absolute / metric / decimal}
; #@! TF.CreationDate,2024-06-07T02:59:55+03:00
; #@! TF.GenerationSoftware,Kicad,Pcbnew,8.0.2
; #@! TF.FileFunction,Plated,1,2,PTH
FMAT,2
METRIC
; #@! TA.AperFunction,Plated,PTH,ViaDrill
T1C0.400
; #@! TA.AperFunction,Plated,PTH,ComponentDrill
T2C1.000
; #@! TA.AperFunction,Plated,PTH,ComponentDrill
T3C1.100
%
G90
G05
T1
X28.073Y-108.82
X28.173Y-134.3
X28.273Y-119.42
X28.273Y-120.82
X28.273Y-131.4
X28.473Y-111.82
X28.473Y-113.42
X28.473Y-115.62
X28.473Y-117.22
X28.473Y-123.42
X30.873Y-131.4
X30.873Y-134.4
X31.073Y-108.82
X31.073Y-111.82
X31.073Y-113.42
X31.073Y-115.62
X31.073Y-117.22
X31.073Y-119.42
X31.073Y-123.02
X31.073Y-124.22
X31.273Y-120.82
X31.473Y-127.02
X33.073Y-123.62
X33.073Y-127.02
X36.073Y-133.2
X37.273Y-114.6
X37.473Y-111.2
X37.873Y-117.8
X38.573Y-100.8
X38.673Y-89.0
X40.673Y-113.2
X41.873Y-100.6
X42.073Y-103.02
X42.073Y-105.22
X42.073Y-110.42
X42.073Y-123.4
X42.073Y-128.6
X42.073Y-131.42
X42.873Y-115.6
X43.473Y-134.6
X44.073Y-96.9
X44.273Y-118.42
X44.473Y-128.62
X44.673Y-103.02
X44.673Y-105.22
X44.673Y-110.22
X44.673Y-123.4
X44.673Y-131.42
X46.073Y-94.0
X46.123Y-85.65
X47.073Y-97.8
X47.073Y-111.4
X49.073Y-118.4
X49.273Y-99.6
X52.473Y-102.4
X53.173Y-134.6
X53.273Y-98.2
X53.673Y-94.2
X53.723Y-85.65
X53.984Y-116.235
X54.873Y-103.02
X54.873Y-105.42
X54.873Y-110.62
X54.873Y-123.4
X54.873Y-129.02
X54.873Y-131.22
X57.273Y-105.42
X57.273Y-129.02
X57.273Y-131.22
X57.473Y-98.4
X57.473Y-103.02
X57.473Y-110.62
X57.473Y-123.4
X57.873Y-133.8
X59.873Y-102.8
X60.273Y-98.4
X61.273Y-94.6
X61.323Y-85.65
X61.473Y-90.2
X62.45Y-116.058
X62.473Y-99.8
X62.473Y-102.6
X66.273Y-133.8
X67.273Y-99.6
X67.273Y-101.6
X67.473Y-110.42
X67.473Y-131.2
X67.673Y-103.02
X67.673Y-105.62
X67.673Y-123.62
X67.673Y-128.62
X67.873Y-118.2
X68.923Y-85.65
X69.273Y-90.2
X69.673Y-95.2
X69.873Y-93.4
X69.873Y-99.6
X69.873Y-101.6
X69.873Y-123.62
X69.873Y-128.62
X70.073Y-103.02
X70.073Y-105.62
X70.073Y-110.42
X70.073Y-131.2
X71.951Y-115.709
X72.273Y-95.4
X72.36Y-93.518
X74.973Y-133.8
X75.673Y-96.0
X76.473Y-89.8
X76.523Y-85.65
X76.673Y-120.42
X77.273Y-93.2
X77.673Y-96.6
X78.873Y-120.22
X79.273Y-99.4
X79.673Y-116.8
X79.873Y-93.4
X79.873Y-97.0
X79.873Y-101.62
X80.073Y-131.42
X80.273Y-102.82
X80.273Y-105.62
X80.273Y-110.62
X80.273Y-123.82
X80.273Y-128.82
X81.073Y-96.0
X81.873Y-100.42
X82.173Y-133.8
X82.473Y-131.42
X82.673Y-102.82
X82.673Y-105.62
X82.673Y-123.82
X82.673Y-128.82
X82.873Y-110.62
X83.073Y-97.0
X83.473Y-101.42
X83.807Y-116.232
X84.123Y-85.65
X84.273Y-96.2
X84.673Y-92.4
X86.073Y-98.2
X87.073Y-121.2
X87.873Y-116.22
X87.873Y-118.02
X87.873Y-123.4
X88.273Y-98.8
X89.273Y-133.8
X90.083Y-106.905
X91.273Y-109.8
X91.473Y-88.8
X91.473Y-117.42
X92.273Y-134.6
X92.41Y-105.332
X92.473Y-101.6
X92.473Y-102.8
X92.673Y-98.6
X93.873Y-108.0
X93.873Y-114.8
X94.073Y-131.2
X94.173Y-133.3
X94.273Y-98.6
X94.273Y-101.8
X94.273Y-102.8
X94.273Y-105.4
T2
X29.718Y-110.645
X29.783Y-132.575
X29.793Y-114.42
X29.793Y-118.22
X29.793Y-125.42
X29.918Y-121.845
X32.258Y-110.645
X32.323Y-132.575
X32.333Y-114.42
X32.333Y-118.22
X32.333Y-125.42
X32.458Y-121.845
X34.798Y-110.645
X34.873Y-114.42
X34.873Y-118.22
X34.873Y-125.42
X34.998Y-121.845
X38.273Y-130.2
X38.293Y-104.2
X38.333Y-108.2
X38.333Y-125.98
X40.813Y-130.2
X40.833Y-104.2
X40.873Y-108.2
X40.873Y-125.98
X43.353Y-130.2
X43.373Y-104.2
X43.413Y-108.2
X43.413Y-125.98
X45.893Y-130.2
X45.913Y-104.2
X45.953Y-108.2
X45.953Y-125.98
X48.433Y-130.2
X48.453Y-104.2
X48.493Y-108.2
X48.493Y-125.98
X50.973Y-130.2
X50.993Y-104.2
X51.033Y-108.2
X51.033Y-125.98
X53.513Y-130.2
X53.533Y-104.2
X53.573Y-108.2
X53.573Y-125.98
X56.053Y-130.2
X56.073Y-104.2
X56.113Y-108.2
X56.113Y-125.98
X58.593Y-130.2
X58.613Y-104.2
X58.653Y-108.2
X58.653Y-125.98
X61.133Y-130.2
X61.153Y-104.2
X61.193Y-108.2
X61.193Y-125.98
X63.673Y-130.2
X63.693Y-104.2
X63.733Y-108.2
X63.733Y-125.98
X66.053Y-100.6
X66.213Y-130.2
X66.233Y-104.2
X66.273Y-108.2
X66.273Y-125.98
X68.593Y-100.6
X68.753Y-130.2
X68.773Y-104.2
X68.813Y-108.2
X68.813Y-125.98
X71.033Y-94.4
X71.133Y-100.6
X71.293Y-130.2
X71.313Y-104.2
X71.353Y-108.2
X71.353Y-125.98
X73.573Y-94.4
X73.673Y-100.6
X73.833Y-130.2
X73.853Y-104.2
X73.893Y-108.2
X73.893Y-125.98
X76.113Y-94.4
X76.373Y-130.2
X76.393Y-104.2
X76.433Y-108.2
X76.433Y-125.98
X78.653Y-94.4
X78.913Y-130.2
X78.933Y-104.2
X78.973Y-108.2
X78.973Y-125.98
X81.193Y-94.4
X81.453Y-130.2
X81.473Y-104.2
X81.513Y-108.2
X81.513Y-125.98
X83.733Y-94.4
X83.993Y-130.2
X84.013Y-104.2
X84.053Y-108.2
X84.053Y-125.98
X86.273Y-94.4
X86.533Y-130.2
X86.553Y-104.2
X86.593Y-108.2
X86.593Y-125.98
X89.873Y-119.73
X89.873Y-122.27
X90.408Y-128.4
X90.96Y-104.108
X90.98Y-100.507
X92.948Y-128.4
X93.473Y-119.73
X93.473Y-122.27
X93.5Y-104.108
X93.52Y-100.507
T3
X43.873Y-82.4
X43.873Y-88.9
X48.373Y-82.4
X48.373Y-88.9
X51.473Y-82.4
X51.473Y-88.9
X55.973Y-82.4
X55.973Y-88.9
X59.073Y-82.4
X59.073Y-88.9
X63.573Y-82.4
X63.573Y-88.9
X66.673Y-82.4
X66.673Y-88.9
X71.173Y-82.4
X71.173Y-88.9
X74.273Y-82.4
X74.273Y-88.9
X78.773Y-82.4
X78.773Y-88.9
X81.873Y-82.4
X81.873Y-88.9
X86.373Y-82.4
X86.373Y-88.9
M30
