M48
; DRILL file {KiCad 7.0.9} date Fri Apr  5 23:44:30 2024
; FORMAT={-:-/ absolute / metric / decimal}
; #@! TF.CreationDate,2024-04-05T23:44:30+03:00
; #@! TF.GenerationSoftware,Kicad,Pcbnew,7.0.9
; #@! TF.FileFunction,Plated,1,2,PTH
FMAT,2
METRIC
; #@! TA.AperFunction,Plated,PTH,ViaDrill
T1C0.400
; #@! TA.AperFunction,Plated,PTH,ComponentDrill
T2C1.000
; #@! TA.AperFunction,Plated,PTH,ComponentDrill
T3C1.300
%
G90
G05
T1
X18.034Y-28.702
X18.034Y-39.116
X18.034Y-47.752
X23.368Y-20.066
X29.464Y-53.848
X29.718Y-40.64
X37.084Y-20.32
X42.926Y-54.61
X43.18Y-40.64
X49.784Y-20.574
X55.626Y-54.102
X55.88Y-40.894
X59.436Y-20.574
X60.198Y-31.496
X68.072Y-53.848
X68.58Y-40.64
X70.358Y-20.574
X72.644Y-31.242
X80.772Y-40.64
X80.772Y-53.086
X81.788Y-20.828
X86.106Y-30.988
X92.964Y-28.702
X93.726Y-40.64
X93.98Y-53.086
X95.25Y-21.082
X104.648Y-38.354
T2
X27.392Y-25.564
X29.932Y-25.564
X32.472Y-25.564
X35.012Y-25.564
X37.552Y-25.564
X40.092Y-25.564
X42.632Y-25.564
T3
X27.432Y-34.544
X27.432Y-47.044
X32.432Y-34.544
X32.432Y-47.044
X40.132Y-34.544
X40.132Y-47.044
X45.132Y-34.544
X45.132Y-47.044
X52.832Y-34.544
X52.832Y-47.044
X57.832Y-34.544
X57.832Y-47.044
X65.532Y-34.544
X65.532Y-47.044
X70.532Y-34.544
X70.532Y-47.044
X78.232Y-34.544
X78.232Y-47.044
X83.232Y-34.544
X83.232Y-47.044
X90.932Y-34.544
X90.932Y-47.044
X95.932Y-34.544
X95.932Y-47.044
T0
M30
