M48
; DRILL file {KiCad 8.0.2} date 2024-06-06T20:57:12+0300
; FORMAT={-:-/ absolute / metric / decimal}
; #@! TF.CreationDate,2024-06-06T20:57:12+03:00
; #@! TF.GenerationSoftware,Kicad,Pcbnew,8.0.2
; #@! TF.FileFunction,Plated,1,2,PTH
FMAT,2
METRIC
; #@! TA.AperFunction,Plated,PTH,ViaDrill
T1C0.400
; #@! TA.AperFunction,Plated,PTH,ComponentDrill
T2C1.000
; #@! TA.AperFunction,Plated,PTH,ComponentDrill
T3C1.100
%
G90
G05
T1
X48.4Y-107.0
X48.6Y-131.4
X48.6Y-133.6
X49.062Y-102.932
X49.062Y-105.332
X49.262Y-101.733
X49.4Y-112.6
X51.462Y-101.733
X51.462Y-102.733
X51.462Y-105.332
X51.6Y-134.6
X52.4Y-88.8
X52.4Y-117.42
X52.6Y-109.8
X53.79Y-106.905
X54.6Y-133.8
X55.6Y-98.8
X56.0Y-116.22
X56.0Y-118.02
X56.0Y-123.4
X56.8Y-121.2
X57.8Y-98.2
X59.2Y-92.4
X59.6Y-96.2
X59.75Y-85.65
X60.066Y-116.232
X60.4Y-101.42
X60.8Y-97.0
X61.0Y-110.62
X61.2Y-102.82
X61.2Y-105.62
X61.2Y-123.82
X61.2Y-128.82
X61.4Y-131.42
X61.7Y-133.8
X62.0Y-100.42
X62.8Y-96.0
X63.6Y-102.82
X63.6Y-105.62
X63.6Y-110.62
X63.6Y-123.82
X63.6Y-128.82
X63.8Y-131.42
X64.0Y-93.4
X64.0Y-97.0
X64.0Y-101.62
X64.2Y-116.8
X64.6Y-99.4
X65.0Y-120.22
X66.2Y-96.6
X66.6Y-93.2
X67.2Y-120.42
X67.35Y-85.65
X67.4Y-89.8
X68.2Y-96.0
X68.9Y-133.8
X71.513Y-93.518
X71.6Y-95.4
X71.921Y-115.709
X73.8Y-103.02
X73.8Y-105.62
X73.8Y-110.42
X73.8Y-131.2
X74.0Y-93.4
X74.0Y-99.6
X74.0Y-101.6
X74.0Y-123.62
X74.0Y-128.62
X74.2Y-95.2
X74.6Y-90.2
X74.95Y-85.65
X76.0Y-118.2
X76.2Y-103.02
X76.2Y-105.62
X76.2Y-123.62
X76.2Y-128.62
X76.4Y-110.42
X76.4Y-131.2
X76.6Y-99.6
X76.6Y-101.6
X77.6Y-133.8
X81.4Y-99.8
X81.4Y-102.6
X81.423Y-116.058
X82.4Y-90.2
X82.55Y-85.65
X82.6Y-94.6
X83.6Y-98.4
X84.0Y-102.8
X86.0Y-133.8
X86.4Y-98.4
X86.4Y-103.02
X86.4Y-110.62
X86.4Y-123.4
X86.6Y-105.42
X86.6Y-129.02
X86.6Y-131.22
X89.0Y-103.02
X89.0Y-105.42
X89.0Y-110.62
X89.0Y-123.4
X89.0Y-129.02
X89.0Y-131.22
X89.889Y-116.235
X90.15Y-85.65
X90.2Y-94.2
X90.7Y-134.6
X91.4Y-102.4
X94.6Y-99.6
X94.8Y-118.4
X96.8Y-97.8
X96.8Y-111.4
X97.75Y-85.65
X97.8Y-94.0
X99.2Y-103.02
X99.2Y-105.22
X99.2Y-110.22
X99.2Y-123.4
X99.2Y-131.42
X99.4Y-128.62
X99.6Y-118.42
X100.4Y-134.6
X101.0Y-115.6
X101.8Y-103.02
X101.8Y-105.22
X101.8Y-110.42
X101.8Y-123.4
X101.8Y-128.6
X101.8Y-131.42
X102.0Y-100.6
X103.2Y-113.2
X105.2Y-89.0
X106.0Y-117.8
X106.4Y-111.2
X106.6Y-114.6
X110.2Y-131.6
X110.8Y-123.62
X110.8Y-127.02
X112.4Y-127.02
X112.6Y-85.4
X112.6Y-102.02
X112.6Y-120.82
X112.8Y-94.4
X112.8Y-108.82
X112.8Y-111.82
X112.8Y-113.42
X112.8Y-115.62
X112.8Y-117.22
X112.8Y-119.42
X112.8Y-123.02
X112.8Y-124.22
X115.4Y-111.82
X115.4Y-113.42
X115.4Y-115.62
X115.4Y-117.22
X115.4Y-123.42
X115.6Y-119.42
X115.6Y-120.82
X115.6Y-130.0
X115.7Y-134.3
X115.8Y-108.82
T2
X50.352Y-100.507
X50.372Y-104.108
X50.4Y-119.73
X50.4Y-122.27
X50.925Y-128.4
X52.892Y-100.507
X52.912Y-104.108
X53.465Y-128.4
X54.0Y-119.73
X54.0Y-122.27
X57.28Y-108.2
X57.28Y-125.98
X57.32Y-104.2
X57.34Y-130.2
X57.6Y-94.4
X59.82Y-108.2
X59.82Y-125.98
X59.86Y-104.2
X59.88Y-130.2
X60.14Y-94.4
X62.36Y-108.2
X62.36Y-125.98
X62.4Y-104.2
X62.42Y-130.2
X62.68Y-94.4
X64.9Y-108.2
X64.9Y-125.98
X64.94Y-104.2
X64.96Y-130.2
X65.22Y-94.4
X67.44Y-108.2
X67.44Y-125.98
X67.48Y-104.2
X67.5Y-130.2
X67.76Y-94.4
X69.98Y-108.2
X69.98Y-125.98
X70.02Y-104.2
X70.04Y-130.2
X70.2Y-100.6
X70.3Y-94.4
X72.52Y-108.2
X72.52Y-125.98
X72.56Y-104.2
X72.58Y-130.2
X72.74Y-100.6
X72.84Y-94.4
X75.06Y-108.2
X75.06Y-125.98
X75.1Y-104.2
X75.12Y-130.2
X75.28Y-100.6
X77.6Y-108.2
X77.6Y-125.98
X77.64Y-104.2
X77.66Y-130.2
X77.82Y-100.6
X80.14Y-108.2
X80.14Y-125.98
X80.18Y-104.2
X80.2Y-130.2
X82.68Y-108.2
X82.68Y-125.98
X82.72Y-104.2
X82.74Y-130.2
X85.22Y-108.2
X85.22Y-125.98
X85.26Y-104.2
X85.28Y-130.2
X87.76Y-108.2
X87.76Y-125.98
X87.8Y-104.2
X87.82Y-130.2
X90.3Y-108.2
X90.3Y-125.98
X90.34Y-104.2
X90.36Y-130.2
X92.84Y-108.2
X92.84Y-125.98
X92.88Y-104.2
X92.9Y-130.2
X95.38Y-108.2
X95.38Y-125.98
X95.42Y-104.2
X95.44Y-130.2
X97.92Y-108.2
X97.92Y-125.98
X97.96Y-104.2
X97.98Y-130.2
X100.46Y-108.2
X100.46Y-125.98
X100.5Y-104.2
X100.52Y-130.2
X103.0Y-108.2
X103.0Y-125.98
X103.04Y-104.2
X103.06Y-130.2
X105.54Y-108.2
X105.54Y-125.98
X105.58Y-104.2
X105.6Y-130.2
X108.875Y-121.845
X109.0Y-114.42
X109.0Y-118.22
X109.0Y-125.42
X109.075Y-110.645
X111.415Y-121.845
X111.54Y-114.42
X111.54Y-118.22
X111.54Y-125.42
X111.615Y-110.645
X113.955Y-121.845
X114.08Y-114.42
X114.08Y-118.22
X114.08Y-125.42
X114.155Y-110.645
T3
X57.5Y-82.4
X57.5Y-88.9
X62.0Y-82.4
X62.0Y-88.9
X65.1Y-82.4
X65.1Y-88.9
X69.6Y-82.4
X69.6Y-88.9
X72.7Y-82.4
X72.7Y-88.9
X77.2Y-82.4
X77.2Y-88.9
X80.3Y-82.4
X80.3Y-88.9
X84.8Y-82.4
X84.8Y-88.9
X87.9Y-82.4
X87.9Y-88.9
X92.4Y-82.4
X92.4Y-88.9
X95.5Y-82.4
X95.5Y-88.9
X100.0Y-82.4
X100.0Y-88.9
M30
