%TF.GenerationSoftware,KiCad,Pcbnew,8.0.2*%
%TF.CreationDate,2024-06-07T02:59:58+03:00*%
%TF.ProjectId,FARA_KEYBOARD,46415241-5f4b-4455-9942-4f4152442e6b,rev?*%
%TF.SameCoordinates,Original*%
%TF.FileFunction,Soldermask,Top*%
%TF.FilePolarity,Negative*%
%FSLAX46Y46*%
G04 Gerber Fmt 4.6, Leading zero omitted, Abs format (unit mm)*
G04 Created by KiCad (PCBNEW 8.0.2) date 2024-06-07 02:59:58*
%MOMM*%
%LPD*%
G01*
G04 APERTURE LIST*
G04 Aperture macros list*
%AMRoundRect*
0 Rectangle with rounded corners*
0 $1 Rounding radius*
0 $2 $3 $4 $5 $6 $7 $8 $9 X,Y pos of 4 corners*
0 Add a 4 corners polygon primitive as box body*
4,1,4,$2,$3,$4,$5,$6,$7,$8,$9,$2,$3,0*
0 Add four circle primitives for the rounded corners*
1,1,$1+$1,$2,$3*
1,1,$1+$1,$4,$5*
1,1,$1+$1,$6,$7*
1,1,$1+$1,$8,$9*
0 Add four rect primitives between the rounded corners*
20,1,$1+$1,$2,$3,$4,$5,0*
20,1,$1+$1,$4,$5,$6,$7,0*
20,1,$1+$1,$6,$7,$8,$9,0*
20,1,$1+$1,$8,$9,$2,$3,0*%
G04 Aperture macros list end*
%ADD10C,2.000000*%
%ADD11C,3.200000*%
%ADD12O,1.700000X1.700000*%
%ADD13R,1.700000X1.700000*%
%ADD14O,1.600000X4.000000*%
%ADD15RoundRect,0.150000X-0.587500X-0.150000X0.587500X-0.150000X0.587500X0.150000X-0.587500X0.150000X0*%
%ADD16RoundRect,0.250000X0.300000X0.300000X-0.300000X0.300000X-0.300000X-0.300000X0.300000X-0.300000X0*%
%ADD17RoundRect,0.160000X-0.160000X0.197500X-0.160000X-0.197500X0.160000X-0.197500X0.160000X0.197500X0*%
%ADD18RoundRect,0.237500X0.250000X0.237500X-0.250000X0.237500X-0.250000X-0.237500X0.250000X-0.237500X0*%
%ADD19RoundRect,0.150000X0.587500X0.150000X-0.587500X0.150000X-0.587500X-0.150000X0.587500X-0.150000X0*%
%ADD20RoundRect,0.250000X-0.350000X-0.450000X0.350000X-0.450000X0.350000X0.450000X-0.350000X0.450000X0*%
G04 APERTURE END LIST*
D10*
%TO.C,SW4*%
X59072684Y-82400000D03*
X59072684Y-88900000D03*
X63572684Y-82400000D03*
X63572684Y-88900000D03*
%TD*%
%TO.C,SW1*%
X81872684Y-82400000D03*
X81872684Y-88900000D03*
X86372684Y-82400000D03*
X86372684Y-88900000D03*
%TD*%
%TO.C,SW5*%
X51472684Y-82400000D03*
X51472684Y-88900000D03*
X55972684Y-82400000D03*
X55972684Y-88900000D03*
%TD*%
D11*
%TO.C,REF\u002A\u002A*%
X38672684Y-94000000D03*
%TD*%
%TO.C,REF\u002A\u002A*%
X38672684Y-83600000D03*
%TD*%
D12*
%TO.C,J1*%
X71032684Y-94400000D03*
X73572684Y-94400000D03*
X76112684Y-94400000D03*
X78652684Y-94400000D03*
X81192684Y-94400000D03*
X83732684Y-94400000D03*
D13*
X86272684Y-94400000D03*
%TD*%
D11*
%TO.C,REF\u002A\u002A*%
X91672684Y-94000000D03*
%TD*%
D10*
%TO.C,SW6*%
X43872684Y-82400000D03*
X43872684Y-88900000D03*
X48372684Y-82400000D03*
X48372684Y-88900000D03*
%TD*%
D11*
%TO.C,REF\u002A\u002A*%
X91672684Y-83600000D03*
%TD*%
D10*
%TO.C,SW3*%
X66672684Y-82400000D03*
X66672684Y-88900000D03*
X71172684Y-82400000D03*
X71172684Y-88900000D03*
%TD*%
%TO.C,SW2*%
X74272684Y-82400000D03*
X74272684Y-88900000D03*
X78772684Y-82400000D03*
X78772684Y-88900000D03*
%TD*%
D11*
%TO.C,REF\u002A\u002A*%
X65172684Y-94000000D03*
%TD*%
D14*
%TO.C,U1*%
X86592684Y-125980000D03*
X84052684Y-125980000D03*
X81512684Y-125980000D03*
X78972684Y-125980000D03*
X76432684Y-125980000D03*
X73892684Y-125980000D03*
X71352684Y-125980000D03*
X68812684Y-125980000D03*
X66272684Y-125980000D03*
X63732684Y-125980000D03*
X61192684Y-125980000D03*
X58652684Y-125980000D03*
X56112684Y-125980000D03*
X53572684Y-125980000D03*
X51032684Y-125980000D03*
X48492684Y-125980000D03*
X45952684Y-125980000D03*
X43412684Y-125980000D03*
X40872684Y-125980000D03*
X38332684Y-125980000D03*
X38332684Y-108200000D03*
X40872684Y-108200000D03*
X43412684Y-108200000D03*
X45952684Y-108200000D03*
X48492684Y-108200000D03*
X51032684Y-108200000D03*
X53572684Y-108200000D03*
X56112684Y-108200000D03*
X58652684Y-108200000D03*
X61192684Y-108200000D03*
X63732684Y-108200000D03*
X66272684Y-108200000D03*
X68812684Y-108200000D03*
X71352684Y-108200000D03*
X73892684Y-108200000D03*
X76432684Y-108200000D03*
X78972684Y-108200000D03*
X81512684Y-108200000D03*
X84052684Y-108200000D03*
X86592684Y-108200000D03*
%TD*%
D15*
%TO.C,Q2*%
X91147684Y-115970000D03*
X89272684Y-116920000D03*
X89272684Y-115020000D03*
%TD*%
D16*
%TO.C,D1*%
X90672684Y-125400000D03*
X93472684Y-125400000D03*
%TD*%
D12*
%TO.C,J11*%
X93472684Y-119730000D03*
D13*
X93472684Y-122270000D03*
%TD*%
D17*
%TO.C,R4*%
X83992684Y-123597500D03*
X83992684Y-122402500D03*
%TD*%
D12*
%TO.C,J12*%
X89872684Y-119730000D03*
D13*
X89872684Y-122270000D03*
%TD*%
D12*
%TO.C,J9*%
X29717684Y-110645000D03*
X32257684Y-110645000D03*
D13*
X34797684Y-110645000D03*
%TD*%
D12*
%TO.C,J13*%
X93520184Y-100507500D03*
D13*
X90980184Y-100507500D03*
%TD*%
D12*
%TO.C,J3*%
X38292684Y-104200000D03*
X40832684Y-104200000D03*
X43372684Y-104200000D03*
X45912684Y-104200000D03*
X48452684Y-104200000D03*
X50992684Y-104200000D03*
X53532684Y-104200000D03*
X56072684Y-104200000D03*
X58612684Y-104200000D03*
X61152684Y-104200000D03*
X63692684Y-104200000D03*
X66232684Y-104200000D03*
X68772684Y-104200000D03*
X71312684Y-104200000D03*
X73852684Y-104200000D03*
X76392684Y-104200000D03*
X78932684Y-104200000D03*
X81472684Y-104200000D03*
X84012684Y-104200000D03*
D13*
X86552684Y-104200000D03*
%TD*%
D12*
%TO.C,J2*%
X38272684Y-130200000D03*
X40812684Y-130200000D03*
X43352684Y-130200000D03*
X45892684Y-130200000D03*
X48432684Y-130200000D03*
X50972684Y-130200000D03*
X53512684Y-130200000D03*
X56052684Y-130200000D03*
X58592684Y-130200000D03*
X61132684Y-130200000D03*
X63672684Y-130200000D03*
X66212684Y-130200000D03*
X68752684Y-130200000D03*
X71292684Y-130200000D03*
X73832684Y-130200000D03*
X76372684Y-130200000D03*
X78912684Y-130200000D03*
X81452684Y-130200000D03*
X83992684Y-130200000D03*
D13*
X86532684Y-130200000D03*
%TD*%
D18*
%TO.C,R1*%
X76280184Y-101600000D03*
X78105184Y-101600000D03*
%TD*%
D12*
%TO.C,J4*%
X66052684Y-100600000D03*
X68592684Y-100600000D03*
X71132684Y-100600000D03*
D13*
X73672684Y-100600000D03*
%TD*%
D18*
%TO.C,R2*%
X76280184Y-100000000D03*
X78105184Y-100000000D03*
%TD*%
D12*
%TO.C,J6*%
X29917684Y-121845000D03*
X32457684Y-121845000D03*
D13*
X34997684Y-121845000D03*
%TD*%
D12*
%TO.C,J7*%
X29792684Y-118220000D03*
X32332684Y-118220000D03*
D13*
X34872684Y-118220000D03*
%TD*%
D12*
%TO.C,J10*%
X93500184Y-104107500D03*
D13*
X90960184Y-104107500D03*
%TD*%
D12*
%TO.C,J5*%
X29792684Y-125420000D03*
X32332684Y-125420000D03*
D13*
X34872684Y-125420000D03*
%TD*%
D12*
%TO.C,J14*%
X29782684Y-132575000D03*
D13*
X32322684Y-132575000D03*
%TD*%
D19*
%TO.C,Q3*%
X90535184Y-132000000D03*
X92410184Y-131050000D03*
X92410184Y-132950000D03*
%TD*%
D12*
%TO.C,J8*%
X29792684Y-114420000D03*
X32332684Y-114420000D03*
D13*
X34872684Y-114420000D03*
%TD*%
D15*
%TO.C,Q1*%
X83810184Y-100420000D03*
X81935184Y-101370000D03*
X81935184Y-99470000D03*
%TD*%
D20*
%TO.C,R7*%
X87472684Y-133200000D03*
X85472684Y-133200000D03*
%TD*%
D17*
%TO.C,R3*%
X76392684Y-123397500D03*
X76392684Y-122202500D03*
%TD*%
D12*
%TO.C,BZ1*%
X90407684Y-128400000D03*
D13*
X92947684Y-128400000D03*
%TD*%
M02*
