%TF.GenerationSoftware,KiCad,Pcbnew,8.0.2*%
%TF.CreationDate,2024-06-07T02:59:58+03:00*%
%TF.ProjectId,FARA_KEYBOARD,46415241-5f4b-4455-9942-4f4152442e6b,rev?*%
%TF.SameCoordinates,Original*%
%TF.FileFunction,Legend,Bot*%
%TF.FilePolarity,Positive*%
%FSLAX46Y46*%
G04 Gerber Fmt 4.6, Leading zero omitted, Abs format (unit mm)*
G04 Created by KiCad (PCBNEW 8.0.2) date 2024-06-07 02:59:58*
%MOMM*%
%LPD*%
G01*
G04 APERTURE LIST*
%ADD10C,0.150000*%
%ADD11C,0.120000*%
G04 APERTURE END LIST*
D10*
X63206016Y-92207200D02*
X63063159Y-92254819D01*
X63063159Y-92254819D02*
X62825064Y-92254819D01*
X62825064Y-92254819D02*
X62729826Y-92207200D01*
X62729826Y-92207200D02*
X62682207Y-92159580D01*
X62682207Y-92159580D02*
X62634588Y-92064342D01*
X62634588Y-92064342D02*
X62634588Y-91969104D01*
X62634588Y-91969104D02*
X62682207Y-91873866D01*
X62682207Y-91873866D02*
X62729826Y-91826247D01*
X62729826Y-91826247D02*
X62825064Y-91778628D01*
X62825064Y-91778628D02*
X63015540Y-91731009D01*
X63015540Y-91731009D02*
X63110778Y-91683390D01*
X63110778Y-91683390D02*
X63158397Y-91635771D01*
X63158397Y-91635771D02*
X63206016Y-91540533D01*
X63206016Y-91540533D02*
X63206016Y-91445295D01*
X63206016Y-91445295D02*
X63158397Y-91350057D01*
X63158397Y-91350057D02*
X63110778Y-91302438D01*
X63110778Y-91302438D02*
X63015540Y-91254819D01*
X63015540Y-91254819D02*
X62777445Y-91254819D01*
X62777445Y-91254819D02*
X62634588Y-91302438D01*
X62301254Y-91254819D02*
X62063159Y-92254819D01*
X62063159Y-92254819D02*
X61872683Y-91540533D01*
X61872683Y-91540533D02*
X61682207Y-92254819D01*
X61682207Y-92254819D02*
X61444112Y-91254819D01*
X60634588Y-91588152D02*
X60634588Y-92254819D01*
X60872683Y-91207200D02*
X61110778Y-91921485D01*
X61110778Y-91921485D02*
X60491731Y-91921485D01*
X85606016Y-91607200D02*
X85463159Y-91654819D01*
X85463159Y-91654819D02*
X85225064Y-91654819D01*
X85225064Y-91654819D02*
X85129826Y-91607200D01*
X85129826Y-91607200D02*
X85082207Y-91559580D01*
X85082207Y-91559580D02*
X85034588Y-91464342D01*
X85034588Y-91464342D02*
X85034588Y-91369104D01*
X85034588Y-91369104D02*
X85082207Y-91273866D01*
X85082207Y-91273866D02*
X85129826Y-91226247D01*
X85129826Y-91226247D02*
X85225064Y-91178628D01*
X85225064Y-91178628D02*
X85415540Y-91131009D01*
X85415540Y-91131009D02*
X85510778Y-91083390D01*
X85510778Y-91083390D02*
X85558397Y-91035771D01*
X85558397Y-91035771D02*
X85606016Y-90940533D01*
X85606016Y-90940533D02*
X85606016Y-90845295D01*
X85606016Y-90845295D02*
X85558397Y-90750057D01*
X85558397Y-90750057D02*
X85510778Y-90702438D01*
X85510778Y-90702438D02*
X85415540Y-90654819D01*
X85415540Y-90654819D02*
X85177445Y-90654819D01*
X85177445Y-90654819D02*
X85034588Y-90702438D01*
X84701254Y-90654819D02*
X84463159Y-91654819D01*
X84463159Y-91654819D02*
X84272683Y-90940533D01*
X84272683Y-90940533D02*
X84082207Y-91654819D01*
X84082207Y-91654819D02*
X83844112Y-90654819D01*
X82939350Y-91654819D02*
X83510778Y-91654819D01*
X83225064Y-91654819D02*
X83225064Y-90654819D01*
X83225064Y-90654819D02*
X83320302Y-90797676D01*
X83320302Y-90797676D02*
X83415540Y-90892914D01*
X83415540Y-90892914D02*
X83510778Y-90940533D01*
X75039350Y-123254819D02*
X75372683Y-122778628D01*
X75610778Y-123254819D02*
X75610778Y-122254819D01*
X75610778Y-122254819D02*
X75229826Y-122254819D01*
X75229826Y-122254819D02*
X75134588Y-122302438D01*
X75134588Y-122302438D02*
X75086969Y-122350057D01*
X75086969Y-122350057D02*
X75039350Y-122445295D01*
X75039350Y-122445295D02*
X75039350Y-122588152D01*
X75039350Y-122588152D02*
X75086969Y-122683390D01*
X75086969Y-122683390D02*
X75134588Y-122731009D01*
X75134588Y-122731009D02*
X75229826Y-122778628D01*
X75229826Y-122778628D02*
X75610778Y-122778628D01*
X74182207Y-122254819D02*
X74372683Y-122254819D01*
X74372683Y-122254819D02*
X74467921Y-122302438D01*
X74467921Y-122302438D02*
X74515540Y-122350057D01*
X74515540Y-122350057D02*
X74610778Y-122492914D01*
X74610778Y-122492914D02*
X74658397Y-122683390D01*
X74658397Y-122683390D02*
X74658397Y-123064342D01*
X74658397Y-123064342D02*
X74610778Y-123159580D01*
X74610778Y-123159580D02*
X74563159Y-123207200D01*
X74563159Y-123207200D02*
X74467921Y-123254819D01*
X74467921Y-123254819D02*
X74277445Y-123254819D01*
X74277445Y-123254819D02*
X74182207Y-123207200D01*
X74182207Y-123207200D02*
X74134588Y-123159580D01*
X74134588Y-123159580D02*
X74086969Y-123064342D01*
X74086969Y-123064342D02*
X74086969Y-122826247D01*
X74086969Y-122826247D02*
X74134588Y-122731009D01*
X74134588Y-122731009D02*
X74182207Y-122683390D01*
X74182207Y-122683390D02*
X74277445Y-122635771D01*
X74277445Y-122635771D02*
X74467921Y-122635771D01*
X74467921Y-122635771D02*
X74563159Y-122683390D01*
X74563159Y-122683390D02*
X74610778Y-122731009D01*
X74610778Y-122731009D02*
X74658397Y-122826247D01*
X55606016Y-92007200D02*
X55463159Y-92054819D01*
X55463159Y-92054819D02*
X55225064Y-92054819D01*
X55225064Y-92054819D02*
X55129826Y-92007200D01*
X55129826Y-92007200D02*
X55082207Y-91959580D01*
X55082207Y-91959580D02*
X55034588Y-91864342D01*
X55034588Y-91864342D02*
X55034588Y-91769104D01*
X55034588Y-91769104D02*
X55082207Y-91673866D01*
X55082207Y-91673866D02*
X55129826Y-91626247D01*
X55129826Y-91626247D02*
X55225064Y-91578628D01*
X55225064Y-91578628D02*
X55415540Y-91531009D01*
X55415540Y-91531009D02*
X55510778Y-91483390D01*
X55510778Y-91483390D02*
X55558397Y-91435771D01*
X55558397Y-91435771D02*
X55606016Y-91340533D01*
X55606016Y-91340533D02*
X55606016Y-91245295D01*
X55606016Y-91245295D02*
X55558397Y-91150057D01*
X55558397Y-91150057D02*
X55510778Y-91102438D01*
X55510778Y-91102438D02*
X55415540Y-91054819D01*
X55415540Y-91054819D02*
X55177445Y-91054819D01*
X55177445Y-91054819D02*
X55034588Y-91102438D01*
X54701254Y-91054819D02*
X54463159Y-92054819D01*
X54463159Y-92054819D02*
X54272683Y-91340533D01*
X54272683Y-91340533D02*
X54082207Y-92054819D01*
X54082207Y-92054819D02*
X53844112Y-91054819D01*
X52986969Y-91054819D02*
X53463159Y-91054819D01*
X53463159Y-91054819D02*
X53510778Y-91531009D01*
X53510778Y-91531009D02*
X53463159Y-91483390D01*
X53463159Y-91483390D02*
X53367921Y-91435771D01*
X53367921Y-91435771D02*
X53129826Y-91435771D01*
X53129826Y-91435771D02*
X53034588Y-91483390D01*
X53034588Y-91483390D02*
X52986969Y-91531009D01*
X52986969Y-91531009D02*
X52939350Y-91626247D01*
X52939350Y-91626247D02*
X52939350Y-91864342D01*
X52939350Y-91864342D02*
X52986969Y-91959580D01*
X52986969Y-91959580D02*
X53034588Y-92007200D01*
X53034588Y-92007200D02*
X53129826Y-92054819D01*
X53129826Y-92054819D02*
X53367921Y-92054819D01*
X53367921Y-92054819D02*
X53463159Y-92007200D01*
X53463159Y-92007200D02*
X53510778Y-91959580D01*
X82839350Y-122874819D02*
X83172683Y-122398628D01*
X83410778Y-122874819D02*
X83410778Y-121874819D01*
X83410778Y-121874819D02*
X83029826Y-121874819D01*
X83029826Y-121874819D02*
X82934588Y-121922438D01*
X82934588Y-121922438D02*
X82886969Y-121970057D01*
X82886969Y-121970057D02*
X82839350Y-122065295D01*
X82839350Y-122065295D02*
X82839350Y-122208152D01*
X82839350Y-122208152D02*
X82886969Y-122303390D01*
X82886969Y-122303390D02*
X82934588Y-122351009D01*
X82934588Y-122351009D02*
X83029826Y-122398628D01*
X83029826Y-122398628D02*
X83410778Y-122398628D01*
X81934588Y-121874819D02*
X82410778Y-121874819D01*
X82410778Y-121874819D02*
X82458397Y-122351009D01*
X82458397Y-122351009D02*
X82410778Y-122303390D01*
X82410778Y-122303390D02*
X82315540Y-122255771D01*
X82315540Y-122255771D02*
X82077445Y-122255771D01*
X82077445Y-122255771D02*
X81982207Y-122303390D01*
X81982207Y-122303390D02*
X81934588Y-122351009D01*
X81934588Y-122351009D02*
X81886969Y-122446247D01*
X81886969Y-122446247D02*
X81886969Y-122684342D01*
X81886969Y-122684342D02*
X81934588Y-122779580D01*
X81934588Y-122779580D02*
X81982207Y-122827200D01*
X81982207Y-122827200D02*
X82077445Y-122874819D01*
X82077445Y-122874819D02*
X82315540Y-122874819D01*
X82315540Y-122874819D02*
X82410778Y-122827200D01*
X82410778Y-122827200D02*
X82458397Y-122779580D01*
X47606016Y-92007200D02*
X47463159Y-92054819D01*
X47463159Y-92054819D02*
X47225064Y-92054819D01*
X47225064Y-92054819D02*
X47129826Y-92007200D01*
X47129826Y-92007200D02*
X47082207Y-91959580D01*
X47082207Y-91959580D02*
X47034588Y-91864342D01*
X47034588Y-91864342D02*
X47034588Y-91769104D01*
X47034588Y-91769104D02*
X47082207Y-91673866D01*
X47082207Y-91673866D02*
X47129826Y-91626247D01*
X47129826Y-91626247D02*
X47225064Y-91578628D01*
X47225064Y-91578628D02*
X47415540Y-91531009D01*
X47415540Y-91531009D02*
X47510778Y-91483390D01*
X47510778Y-91483390D02*
X47558397Y-91435771D01*
X47558397Y-91435771D02*
X47606016Y-91340533D01*
X47606016Y-91340533D02*
X47606016Y-91245295D01*
X47606016Y-91245295D02*
X47558397Y-91150057D01*
X47558397Y-91150057D02*
X47510778Y-91102438D01*
X47510778Y-91102438D02*
X47415540Y-91054819D01*
X47415540Y-91054819D02*
X47177445Y-91054819D01*
X47177445Y-91054819D02*
X47034588Y-91102438D01*
X46701254Y-91054819D02*
X46463159Y-92054819D01*
X46463159Y-92054819D02*
X46272683Y-91340533D01*
X46272683Y-91340533D02*
X46082207Y-92054819D01*
X46082207Y-92054819D02*
X45844112Y-91054819D01*
X45034588Y-91054819D02*
X45225064Y-91054819D01*
X45225064Y-91054819D02*
X45320302Y-91102438D01*
X45320302Y-91102438D02*
X45367921Y-91150057D01*
X45367921Y-91150057D02*
X45463159Y-91292914D01*
X45463159Y-91292914D02*
X45510778Y-91483390D01*
X45510778Y-91483390D02*
X45510778Y-91864342D01*
X45510778Y-91864342D02*
X45463159Y-91959580D01*
X45463159Y-91959580D02*
X45415540Y-92007200D01*
X45415540Y-92007200D02*
X45320302Y-92054819D01*
X45320302Y-92054819D02*
X45129826Y-92054819D01*
X45129826Y-92054819D02*
X45034588Y-92007200D01*
X45034588Y-92007200D02*
X44986969Y-91959580D01*
X44986969Y-91959580D02*
X44939350Y-91864342D01*
X44939350Y-91864342D02*
X44939350Y-91626247D01*
X44939350Y-91626247D02*
X44986969Y-91531009D01*
X44986969Y-91531009D02*
X45034588Y-91483390D01*
X45034588Y-91483390D02*
X45129826Y-91435771D01*
X45129826Y-91435771D02*
X45320302Y-91435771D01*
X45320302Y-91435771D02*
X45415540Y-91483390D01*
X45415540Y-91483390D02*
X45463159Y-91531009D01*
X45463159Y-91531009D02*
X45510778Y-91626247D01*
X70206016Y-92207200D02*
X70063159Y-92254819D01*
X70063159Y-92254819D02*
X69825064Y-92254819D01*
X69825064Y-92254819D02*
X69729826Y-92207200D01*
X69729826Y-92207200D02*
X69682207Y-92159580D01*
X69682207Y-92159580D02*
X69634588Y-92064342D01*
X69634588Y-92064342D02*
X69634588Y-91969104D01*
X69634588Y-91969104D02*
X69682207Y-91873866D01*
X69682207Y-91873866D02*
X69729826Y-91826247D01*
X69729826Y-91826247D02*
X69825064Y-91778628D01*
X69825064Y-91778628D02*
X70015540Y-91731009D01*
X70015540Y-91731009D02*
X70110778Y-91683390D01*
X70110778Y-91683390D02*
X70158397Y-91635771D01*
X70158397Y-91635771D02*
X70206016Y-91540533D01*
X70206016Y-91540533D02*
X70206016Y-91445295D01*
X70206016Y-91445295D02*
X70158397Y-91350057D01*
X70158397Y-91350057D02*
X70110778Y-91302438D01*
X70110778Y-91302438D02*
X70015540Y-91254819D01*
X70015540Y-91254819D02*
X69777445Y-91254819D01*
X69777445Y-91254819D02*
X69634588Y-91302438D01*
X69301254Y-91254819D02*
X69063159Y-92254819D01*
X69063159Y-92254819D02*
X68872683Y-91540533D01*
X68872683Y-91540533D02*
X68682207Y-92254819D01*
X68682207Y-92254819D02*
X68444112Y-91254819D01*
X68158397Y-91254819D02*
X67539350Y-91254819D01*
X67539350Y-91254819D02*
X67872683Y-91635771D01*
X67872683Y-91635771D02*
X67729826Y-91635771D01*
X67729826Y-91635771D02*
X67634588Y-91683390D01*
X67634588Y-91683390D02*
X67586969Y-91731009D01*
X67586969Y-91731009D02*
X67539350Y-91826247D01*
X67539350Y-91826247D02*
X67539350Y-92064342D01*
X67539350Y-92064342D02*
X67586969Y-92159580D01*
X67586969Y-92159580D02*
X67634588Y-92207200D01*
X67634588Y-92207200D02*
X67729826Y-92254819D01*
X67729826Y-92254819D02*
X68015540Y-92254819D01*
X68015540Y-92254819D02*
X68110778Y-92207200D01*
X68110778Y-92207200D02*
X68158397Y-92159580D01*
X78406016Y-91807200D02*
X78263159Y-91854819D01*
X78263159Y-91854819D02*
X78025064Y-91854819D01*
X78025064Y-91854819D02*
X77929826Y-91807200D01*
X77929826Y-91807200D02*
X77882207Y-91759580D01*
X77882207Y-91759580D02*
X77834588Y-91664342D01*
X77834588Y-91664342D02*
X77834588Y-91569104D01*
X77834588Y-91569104D02*
X77882207Y-91473866D01*
X77882207Y-91473866D02*
X77929826Y-91426247D01*
X77929826Y-91426247D02*
X78025064Y-91378628D01*
X78025064Y-91378628D02*
X78215540Y-91331009D01*
X78215540Y-91331009D02*
X78310778Y-91283390D01*
X78310778Y-91283390D02*
X78358397Y-91235771D01*
X78358397Y-91235771D02*
X78406016Y-91140533D01*
X78406016Y-91140533D02*
X78406016Y-91045295D01*
X78406016Y-91045295D02*
X78358397Y-90950057D01*
X78358397Y-90950057D02*
X78310778Y-90902438D01*
X78310778Y-90902438D02*
X78215540Y-90854819D01*
X78215540Y-90854819D02*
X77977445Y-90854819D01*
X77977445Y-90854819D02*
X77834588Y-90902438D01*
X77501254Y-90854819D02*
X77263159Y-91854819D01*
X77263159Y-91854819D02*
X77072683Y-91140533D01*
X77072683Y-91140533D02*
X76882207Y-91854819D01*
X76882207Y-91854819D02*
X76644112Y-90854819D01*
X76310778Y-90950057D02*
X76263159Y-90902438D01*
X76263159Y-90902438D02*
X76167921Y-90854819D01*
X76167921Y-90854819D02*
X75929826Y-90854819D01*
X75929826Y-90854819D02*
X75834588Y-90902438D01*
X75834588Y-90902438D02*
X75786969Y-90950057D01*
X75786969Y-90950057D02*
X75739350Y-91045295D01*
X75739350Y-91045295D02*
X75739350Y-91140533D01*
X75739350Y-91140533D02*
X75786969Y-91283390D01*
X75786969Y-91283390D02*
X76358397Y-91854819D01*
X76358397Y-91854819D02*
X75739350Y-91854819D01*
D11*
%TO.C,SW4*%
X58072684Y-83400000D02*
X58072684Y-87900000D01*
X62072684Y-82150000D02*
X60572684Y-82150000D01*
X60572684Y-89150000D02*
X62072684Y-89150000D01*
X64572684Y-87900000D02*
X64572684Y-83400000D01*
%TO.C,SW1*%
X80872684Y-83400000D02*
X80872684Y-87900000D01*
X84872684Y-82150000D02*
X83372684Y-82150000D01*
X83372684Y-89150000D02*
X84872684Y-89150000D01*
X87372684Y-87900000D02*
X87372684Y-83400000D01*
%TO.C,R6*%
X76012684Y-122967621D02*
X76012684Y-122632379D01*
X76772684Y-122967621D02*
X76772684Y-122632379D01*
%TO.C,SW5*%
X50472684Y-83400000D02*
X50472684Y-87900000D01*
X54472684Y-82150000D02*
X52972684Y-82150000D01*
X52972684Y-89150000D02*
X54472684Y-89150000D01*
X56972684Y-87900000D02*
X56972684Y-83400000D01*
%TO.C,R5*%
X83612684Y-123167621D02*
X83612684Y-122832379D01*
X84372684Y-123167621D02*
X84372684Y-122832379D01*
%TO.C,SW6*%
X42872684Y-83400000D02*
X42872684Y-87900000D01*
X46872684Y-82150000D02*
X45372684Y-82150000D01*
X45372684Y-89150000D02*
X46872684Y-89150000D01*
X49372684Y-87900000D02*
X49372684Y-83400000D01*
%TO.C,SW3*%
X65672684Y-83400000D02*
X65672684Y-87900000D01*
X69672684Y-82150000D02*
X68172684Y-82150000D01*
X68172684Y-89150000D02*
X69672684Y-89150000D01*
X72172684Y-87900000D02*
X72172684Y-83400000D01*
%TO.C,SW2*%
X73272684Y-83400000D02*
X73272684Y-87900000D01*
X77272684Y-82150000D02*
X75772684Y-82150000D01*
X75772684Y-89150000D02*
X77272684Y-89150000D01*
X79772684Y-87900000D02*
X79772684Y-83400000D01*
%TD*%
M02*
