%TF.GenerationSoftware,KiCad,Pcbnew,8.0.2*%
%TF.CreationDate,2024-06-07T02:59:58+03:00*%
%TF.ProjectId,FARA_KEYBOARD,46415241-5f4b-4455-9942-4f4152442e6b,rev?*%
%TF.SameCoordinates,Original*%
%TF.FileFunction,Legend,Top*%
%TF.FilePolarity,Positive*%
%FSLAX46Y46*%
G04 Gerber Fmt 4.6, Leading zero omitted, Abs format (unit mm)*
G04 Created by KiCad (PCBNEW 8.0.2) date 2024-06-07 02:59:58*
%MOMM*%
%LPD*%
G01*
G04 APERTURE LIST*
%ADD10C,0.150000*%
%ADD11C,0.120000*%
G04 APERTURE END LIST*
D10*
X68339350Y-94854819D02*
X68339350Y-95569104D01*
X68339350Y-95569104D02*
X68291731Y-95711961D01*
X68291731Y-95711961D02*
X68196493Y-95807200D01*
X68196493Y-95807200D02*
X68053636Y-95854819D01*
X68053636Y-95854819D02*
X67958398Y-95854819D01*
X69339350Y-95854819D02*
X68767922Y-95854819D01*
X69053636Y-95854819D02*
X69053636Y-94854819D01*
X69053636Y-94854819D02*
X68958398Y-94997676D01*
X68958398Y-94997676D02*
X68863160Y-95092914D01*
X68863160Y-95092914D02*
X68767922Y-95140533D01*
X88510779Y-107854819D02*
X88510779Y-108664342D01*
X88510779Y-108664342D02*
X88558398Y-108759580D01*
X88558398Y-108759580D02*
X88606017Y-108807200D01*
X88606017Y-108807200D02*
X88701255Y-108854819D01*
X88701255Y-108854819D02*
X88891731Y-108854819D01*
X88891731Y-108854819D02*
X88986969Y-108807200D01*
X88986969Y-108807200D02*
X89034588Y-108759580D01*
X89034588Y-108759580D02*
X89082207Y-108664342D01*
X89082207Y-108664342D02*
X89082207Y-107854819D01*
X90082207Y-108854819D02*
X89510779Y-108854819D01*
X89796493Y-108854819D02*
X89796493Y-107854819D01*
X89796493Y-107854819D02*
X89701255Y-107997676D01*
X89701255Y-107997676D02*
X89606017Y-108092914D01*
X89606017Y-108092914D02*
X89510779Y-108140533D01*
X91277445Y-111850057D02*
X91182207Y-111802438D01*
X91182207Y-111802438D02*
X91086969Y-111707200D01*
X91086969Y-111707200D02*
X90944112Y-111564342D01*
X90944112Y-111564342D02*
X90848874Y-111516723D01*
X90848874Y-111516723D02*
X90753636Y-111516723D01*
X90801255Y-111754819D02*
X90706017Y-111707200D01*
X90706017Y-111707200D02*
X90610779Y-111611961D01*
X90610779Y-111611961D02*
X90563160Y-111421485D01*
X90563160Y-111421485D02*
X90563160Y-111088152D01*
X90563160Y-111088152D02*
X90610779Y-110897676D01*
X90610779Y-110897676D02*
X90706017Y-110802438D01*
X90706017Y-110802438D02*
X90801255Y-110754819D01*
X90801255Y-110754819D02*
X90991731Y-110754819D01*
X90991731Y-110754819D02*
X91086969Y-110802438D01*
X91086969Y-110802438D02*
X91182207Y-110897676D01*
X91182207Y-110897676D02*
X91229826Y-111088152D01*
X91229826Y-111088152D02*
X91229826Y-111421485D01*
X91229826Y-111421485D02*
X91182207Y-111611961D01*
X91182207Y-111611961D02*
X91086969Y-111707200D01*
X91086969Y-111707200D02*
X90991731Y-111754819D01*
X90991731Y-111754819D02*
X90801255Y-111754819D01*
X91610779Y-110850057D02*
X91658398Y-110802438D01*
X91658398Y-110802438D02*
X91753636Y-110754819D01*
X91753636Y-110754819D02*
X91991731Y-110754819D01*
X91991731Y-110754819D02*
X92086969Y-110802438D01*
X92086969Y-110802438D02*
X92134588Y-110850057D01*
X92134588Y-110850057D02*
X92182207Y-110945295D01*
X92182207Y-110945295D02*
X92182207Y-111040533D01*
X92182207Y-111040533D02*
X92134588Y-111183390D01*
X92134588Y-111183390D02*
X91563160Y-111754819D01*
X91563160Y-111754819D02*
X92182207Y-111754819D01*
X88434589Y-125954819D02*
X88434589Y-124954819D01*
X88434589Y-124954819D02*
X88672684Y-124954819D01*
X88672684Y-124954819D02*
X88815541Y-125002438D01*
X88815541Y-125002438D02*
X88910779Y-125097676D01*
X88910779Y-125097676D02*
X88958398Y-125192914D01*
X88958398Y-125192914D02*
X89006017Y-125383390D01*
X89006017Y-125383390D02*
X89006017Y-125526247D01*
X89006017Y-125526247D02*
X88958398Y-125716723D01*
X88958398Y-125716723D02*
X88910779Y-125811961D01*
X88910779Y-125811961D02*
X88815541Y-125907200D01*
X88815541Y-125907200D02*
X88672684Y-125954819D01*
X88672684Y-125954819D02*
X88434589Y-125954819D01*
X89958398Y-125954819D02*
X89386970Y-125954819D01*
X89672684Y-125954819D02*
X89672684Y-124954819D01*
X89672684Y-124954819D02*
X89577446Y-125097676D01*
X89577446Y-125097676D02*
X89482208Y-125192914D01*
X89482208Y-125192914D02*
X89386970Y-125240533D01*
X92863160Y-112654819D02*
X92863160Y-113369104D01*
X92863160Y-113369104D02*
X92815541Y-113511961D01*
X92815541Y-113511961D02*
X92720303Y-113607200D01*
X92720303Y-113607200D02*
X92577446Y-113654819D01*
X92577446Y-113654819D02*
X92482208Y-113654819D01*
X93863160Y-113654819D02*
X93291732Y-113654819D01*
X93577446Y-113654819D02*
X93577446Y-112654819D01*
X93577446Y-112654819D02*
X93482208Y-112797676D01*
X93482208Y-112797676D02*
X93386970Y-112892914D01*
X93386970Y-112892914D02*
X93291732Y-112940533D01*
X94815541Y-113654819D02*
X94244113Y-113654819D01*
X94529827Y-113654819D02*
X94529827Y-112654819D01*
X94529827Y-112654819D02*
X94434589Y-112797676D01*
X94434589Y-112797676D02*
X94339351Y-112892914D01*
X94339351Y-112892914D02*
X94244113Y-112940533D01*
X85306017Y-123474819D02*
X84972684Y-122998628D01*
X84734589Y-123474819D02*
X84734589Y-122474819D01*
X84734589Y-122474819D02*
X85115541Y-122474819D01*
X85115541Y-122474819D02*
X85210779Y-122522438D01*
X85210779Y-122522438D02*
X85258398Y-122570057D01*
X85258398Y-122570057D02*
X85306017Y-122665295D01*
X85306017Y-122665295D02*
X85306017Y-122808152D01*
X85306017Y-122808152D02*
X85258398Y-122903390D01*
X85258398Y-122903390D02*
X85210779Y-122951009D01*
X85210779Y-122951009D02*
X85115541Y-122998628D01*
X85115541Y-122998628D02*
X84734589Y-122998628D01*
X86163160Y-122808152D02*
X86163160Y-123474819D01*
X85925065Y-122427200D02*
X85686970Y-123141485D01*
X85686970Y-123141485D02*
X86306017Y-123141485D01*
X88563160Y-112654819D02*
X88563160Y-113369104D01*
X88563160Y-113369104D02*
X88515541Y-113511961D01*
X88515541Y-113511961D02*
X88420303Y-113607200D01*
X88420303Y-113607200D02*
X88277446Y-113654819D01*
X88277446Y-113654819D02*
X88182208Y-113654819D01*
X89563160Y-113654819D02*
X88991732Y-113654819D01*
X89277446Y-113654819D02*
X89277446Y-112654819D01*
X89277446Y-112654819D02*
X89182208Y-112797676D01*
X89182208Y-112797676D02*
X89086970Y-112892914D01*
X89086970Y-112892914D02*
X88991732Y-112940533D01*
X89944113Y-112750057D02*
X89991732Y-112702438D01*
X89991732Y-112702438D02*
X90086970Y-112654819D01*
X90086970Y-112654819D02*
X90325065Y-112654819D01*
X90325065Y-112654819D02*
X90420303Y-112702438D01*
X90420303Y-112702438D02*
X90467922Y-112750057D01*
X90467922Y-112750057D02*
X90515541Y-112845295D01*
X90515541Y-112845295D02*
X90515541Y-112940533D01*
X90515541Y-112940533D02*
X90467922Y-113083390D01*
X90467922Y-113083390D02*
X89896494Y-113654819D01*
X89896494Y-113654819D02*
X90515541Y-113654819D01*
X26739350Y-110074819D02*
X26739350Y-110789104D01*
X26739350Y-110789104D02*
X26691731Y-110931961D01*
X26691731Y-110931961D02*
X26596493Y-111027200D01*
X26596493Y-111027200D02*
X26453636Y-111074819D01*
X26453636Y-111074819D02*
X26358398Y-111074819D01*
X27263160Y-111074819D02*
X27453636Y-111074819D01*
X27453636Y-111074819D02*
X27548874Y-111027200D01*
X27548874Y-111027200D02*
X27596493Y-110979580D01*
X27596493Y-110979580D02*
X27691731Y-110836723D01*
X27691731Y-110836723D02*
X27739350Y-110646247D01*
X27739350Y-110646247D02*
X27739350Y-110265295D01*
X27739350Y-110265295D02*
X27691731Y-110170057D01*
X27691731Y-110170057D02*
X27644112Y-110122438D01*
X27644112Y-110122438D02*
X27548874Y-110074819D01*
X27548874Y-110074819D02*
X27358398Y-110074819D01*
X27358398Y-110074819D02*
X27263160Y-110122438D01*
X27263160Y-110122438D02*
X27215541Y-110170057D01*
X27215541Y-110170057D02*
X27167922Y-110265295D01*
X27167922Y-110265295D02*
X27167922Y-110503390D01*
X27167922Y-110503390D02*
X27215541Y-110598628D01*
X27215541Y-110598628D02*
X27263160Y-110646247D01*
X27263160Y-110646247D02*
X27358398Y-110693866D01*
X27358398Y-110693866D02*
X27548874Y-110693866D01*
X27548874Y-110693866D02*
X27644112Y-110646247D01*
X27644112Y-110646247D02*
X27691731Y-110598628D01*
X27691731Y-110598628D02*
X27739350Y-110503390D01*
X89863160Y-97454819D02*
X89863160Y-98169104D01*
X89863160Y-98169104D02*
X89815541Y-98311961D01*
X89815541Y-98311961D02*
X89720303Y-98407200D01*
X89720303Y-98407200D02*
X89577446Y-98454819D01*
X89577446Y-98454819D02*
X89482208Y-98454819D01*
X90863160Y-98454819D02*
X90291732Y-98454819D01*
X90577446Y-98454819D02*
X90577446Y-97454819D01*
X90577446Y-97454819D02*
X90482208Y-97597676D01*
X90482208Y-97597676D02*
X90386970Y-97692914D01*
X90386970Y-97692914D02*
X90291732Y-97740533D01*
X91196494Y-97454819D02*
X91815541Y-97454819D01*
X91815541Y-97454819D02*
X91482208Y-97835771D01*
X91482208Y-97835771D02*
X91625065Y-97835771D01*
X91625065Y-97835771D02*
X91720303Y-97883390D01*
X91720303Y-97883390D02*
X91767922Y-97931009D01*
X91767922Y-97931009D02*
X91815541Y-98026247D01*
X91815541Y-98026247D02*
X91815541Y-98264342D01*
X91815541Y-98264342D02*
X91767922Y-98359580D01*
X91767922Y-98359580D02*
X91720303Y-98407200D01*
X91720303Y-98407200D02*
X91625065Y-98454819D01*
X91625065Y-98454819D02*
X91339351Y-98454819D01*
X91339351Y-98454819D02*
X91244113Y-98407200D01*
X91244113Y-98407200D02*
X91196494Y-98359580D01*
X86739350Y-101454819D02*
X86739350Y-102169104D01*
X86739350Y-102169104D02*
X86691731Y-102311961D01*
X86691731Y-102311961D02*
X86596493Y-102407200D01*
X86596493Y-102407200D02*
X86453636Y-102454819D01*
X86453636Y-102454819D02*
X86358398Y-102454819D01*
X87120303Y-101454819D02*
X87739350Y-101454819D01*
X87739350Y-101454819D02*
X87406017Y-101835771D01*
X87406017Y-101835771D02*
X87548874Y-101835771D01*
X87548874Y-101835771D02*
X87644112Y-101883390D01*
X87644112Y-101883390D02*
X87691731Y-101931009D01*
X87691731Y-101931009D02*
X87739350Y-102026247D01*
X87739350Y-102026247D02*
X87739350Y-102264342D01*
X87739350Y-102264342D02*
X87691731Y-102359580D01*
X87691731Y-102359580D02*
X87644112Y-102407200D01*
X87644112Y-102407200D02*
X87548874Y-102454819D01*
X87548874Y-102454819D02*
X87263160Y-102454819D01*
X87263160Y-102454819D02*
X87167922Y-102407200D01*
X87167922Y-102407200D02*
X87120303Y-102359580D01*
X50539350Y-131854819D02*
X50539350Y-132569104D01*
X50539350Y-132569104D02*
X50491731Y-132711961D01*
X50491731Y-132711961D02*
X50396493Y-132807200D01*
X50396493Y-132807200D02*
X50253636Y-132854819D01*
X50253636Y-132854819D02*
X50158398Y-132854819D01*
X50967922Y-131950057D02*
X51015541Y-131902438D01*
X51015541Y-131902438D02*
X51110779Y-131854819D01*
X51110779Y-131854819D02*
X51348874Y-131854819D01*
X51348874Y-131854819D02*
X51444112Y-131902438D01*
X51444112Y-131902438D02*
X51491731Y-131950057D01*
X51491731Y-131950057D02*
X51539350Y-132045295D01*
X51539350Y-132045295D02*
X51539350Y-132140533D01*
X51539350Y-132140533D02*
X51491731Y-132283390D01*
X51491731Y-132283390D02*
X50920303Y-132854819D01*
X50920303Y-132854819D02*
X51539350Y-132854819D01*
X79906017Y-101054819D02*
X79572684Y-100578628D01*
X79334589Y-101054819D02*
X79334589Y-100054819D01*
X79334589Y-100054819D02*
X79715541Y-100054819D01*
X79715541Y-100054819D02*
X79810779Y-100102438D01*
X79810779Y-100102438D02*
X79858398Y-100150057D01*
X79858398Y-100150057D02*
X79906017Y-100245295D01*
X79906017Y-100245295D02*
X79906017Y-100388152D01*
X79906017Y-100388152D02*
X79858398Y-100483390D01*
X79858398Y-100483390D02*
X79810779Y-100531009D01*
X79810779Y-100531009D02*
X79715541Y-100578628D01*
X79715541Y-100578628D02*
X79334589Y-100578628D01*
X80858398Y-101054819D02*
X80286970Y-101054819D01*
X80572684Y-101054819D02*
X80572684Y-100054819D01*
X80572684Y-100054819D02*
X80477446Y-100197676D01*
X80477446Y-100197676D02*
X80382208Y-100292914D01*
X80382208Y-100292914D02*
X80286970Y-100340533D01*
X63059350Y-100454819D02*
X63059350Y-101169104D01*
X63059350Y-101169104D02*
X63011731Y-101311961D01*
X63011731Y-101311961D02*
X62916493Y-101407200D01*
X62916493Y-101407200D02*
X62773636Y-101454819D01*
X62773636Y-101454819D02*
X62678398Y-101454819D01*
X63964112Y-100788152D02*
X63964112Y-101454819D01*
X63726017Y-100407200D02*
X63487922Y-101121485D01*
X63487922Y-101121485D02*
X64106969Y-101121485D01*
X76506017Y-98874819D02*
X76172684Y-98398628D01*
X75934589Y-98874819D02*
X75934589Y-97874819D01*
X75934589Y-97874819D02*
X76315541Y-97874819D01*
X76315541Y-97874819D02*
X76410779Y-97922438D01*
X76410779Y-97922438D02*
X76458398Y-97970057D01*
X76458398Y-97970057D02*
X76506017Y-98065295D01*
X76506017Y-98065295D02*
X76506017Y-98208152D01*
X76506017Y-98208152D02*
X76458398Y-98303390D01*
X76458398Y-98303390D02*
X76410779Y-98351009D01*
X76410779Y-98351009D02*
X76315541Y-98398628D01*
X76315541Y-98398628D02*
X75934589Y-98398628D01*
X76886970Y-97970057D02*
X76934589Y-97922438D01*
X76934589Y-97922438D02*
X77029827Y-97874819D01*
X77029827Y-97874819D02*
X77267922Y-97874819D01*
X77267922Y-97874819D02*
X77363160Y-97922438D01*
X77363160Y-97922438D02*
X77410779Y-97970057D01*
X77410779Y-97970057D02*
X77458398Y-98065295D01*
X77458398Y-98065295D02*
X77458398Y-98160533D01*
X77458398Y-98160533D02*
X77410779Y-98303390D01*
X77410779Y-98303390D02*
X76839351Y-98874819D01*
X76839351Y-98874819D02*
X77458398Y-98874819D01*
X26539350Y-121274819D02*
X26539350Y-121989104D01*
X26539350Y-121989104D02*
X26491731Y-122131961D01*
X26491731Y-122131961D02*
X26396493Y-122227200D01*
X26396493Y-122227200D02*
X26253636Y-122274819D01*
X26253636Y-122274819D02*
X26158398Y-122274819D01*
X27444112Y-121274819D02*
X27253636Y-121274819D01*
X27253636Y-121274819D02*
X27158398Y-121322438D01*
X27158398Y-121322438D02*
X27110779Y-121370057D01*
X27110779Y-121370057D02*
X27015541Y-121512914D01*
X27015541Y-121512914D02*
X26967922Y-121703390D01*
X26967922Y-121703390D02*
X26967922Y-122084342D01*
X26967922Y-122084342D02*
X27015541Y-122179580D01*
X27015541Y-122179580D02*
X27063160Y-122227200D01*
X27063160Y-122227200D02*
X27158398Y-122274819D01*
X27158398Y-122274819D02*
X27348874Y-122274819D01*
X27348874Y-122274819D02*
X27444112Y-122227200D01*
X27444112Y-122227200D02*
X27491731Y-122179580D01*
X27491731Y-122179580D02*
X27539350Y-122084342D01*
X27539350Y-122084342D02*
X27539350Y-121846247D01*
X27539350Y-121846247D02*
X27491731Y-121751009D01*
X27491731Y-121751009D02*
X27444112Y-121703390D01*
X27444112Y-121703390D02*
X27348874Y-121655771D01*
X27348874Y-121655771D02*
X27158398Y-121655771D01*
X27158398Y-121655771D02*
X27063160Y-121703390D01*
X27063160Y-121703390D02*
X27015541Y-121751009D01*
X27015541Y-121751009D02*
X26967922Y-121846247D01*
X26739350Y-117274819D02*
X26739350Y-117989104D01*
X26739350Y-117989104D02*
X26691731Y-118131961D01*
X26691731Y-118131961D02*
X26596493Y-118227200D01*
X26596493Y-118227200D02*
X26453636Y-118274819D01*
X26453636Y-118274819D02*
X26358398Y-118274819D01*
X27120303Y-117274819D02*
X27786969Y-117274819D01*
X27786969Y-117274819D02*
X27358398Y-118274819D01*
X92063160Y-106454819D02*
X92063160Y-107169104D01*
X92063160Y-107169104D02*
X92015541Y-107311961D01*
X92015541Y-107311961D02*
X91920303Y-107407200D01*
X91920303Y-107407200D02*
X91777446Y-107454819D01*
X91777446Y-107454819D02*
X91682208Y-107454819D01*
X93063160Y-107454819D02*
X92491732Y-107454819D01*
X92777446Y-107454819D02*
X92777446Y-106454819D01*
X92777446Y-106454819D02*
X92682208Y-106597676D01*
X92682208Y-106597676D02*
X92586970Y-106692914D01*
X92586970Y-106692914D02*
X92491732Y-106740533D01*
X93682208Y-106454819D02*
X93777446Y-106454819D01*
X93777446Y-106454819D02*
X93872684Y-106502438D01*
X93872684Y-106502438D02*
X93920303Y-106550057D01*
X93920303Y-106550057D02*
X93967922Y-106645295D01*
X93967922Y-106645295D02*
X94015541Y-106835771D01*
X94015541Y-106835771D02*
X94015541Y-107073866D01*
X94015541Y-107073866D02*
X93967922Y-107264342D01*
X93967922Y-107264342D02*
X93920303Y-107359580D01*
X93920303Y-107359580D02*
X93872684Y-107407200D01*
X93872684Y-107407200D02*
X93777446Y-107454819D01*
X93777446Y-107454819D02*
X93682208Y-107454819D01*
X93682208Y-107454819D02*
X93586970Y-107407200D01*
X93586970Y-107407200D02*
X93539351Y-107359580D01*
X93539351Y-107359580D02*
X93491732Y-107264342D01*
X93491732Y-107264342D02*
X93444113Y-107073866D01*
X93444113Y-107073866D02*
X93444113Y-106835771D01*
X93444113Y-106835771D02*
X93491732Y-106645295D01*
X93491732Y-106645295D02*
X93539351Y-106550057D01*
X93539351Y-106550057D02*
X93586970Y-106502438D01*
X93586970Y-106502438D02*
X93682208Y-106454819D01*
X26739350Y-124674819D02*
X26739350Y-125389104D01*
X26739350Y-125389104D02*
X26691731Y-125531961D01*
X26691731Y-125531961D02*
X26596493Y-125627200D01*
X26596493Y-125627200D02*
X26453636Y-125674819D01*
X26453636Y-125674819D02*
X26358398Y-125674819D01*
X27691731Y-124674819D02*
X27215541Y-124674819D01*
X27215541Y-124674819D02*
X27167922Y-125151009D01*
X27167922Y-125151009D02*
X27215541Y-125103390D01*
X27215541Y-125103390D02*
X27310779Y-125055771D01*
X27310779Y-125055771D02*
X27548874Y-125055771D01*
X27548874Y-125055771D02*
X27644112Y-125103390D01*
X27644112Y-125103390D02*
X27691731Y-125151009D01*
X27691731Y-125151009D02*
X27739350Y-125246247D01*
X27739350Y-125246247D02*
X27739350Y-125484342D01*
X27739350Y-125484342D02*
X27691731Y-125579580D01*
X27691731Y-125579580D02*
X27644112Y-125627200D01*
X27644112Y-125627200D02*
X27548874Y-125674819D01*
X27548874Y-125674819D02*
X27310779Y-125674819D01*
X27310779Y-125674819D02*
X27215541Y-125627200D01*
X27215541Y-125627200D02*
X27167922Y-125579580D01*
X32663160Y-130204819D02*
X32663160Y-130919104D01*
X32663160Y-130919104D02*
X32615541Y-131061961D01*
X32615541Y-131061961D02*
X32520303Y-131157200D01*
X32520303Y-131157200D02*
X32377446Y-131204819D01*
X32377446Y-131204819D02*
X32282208Y-131204819D01*
X33663160Y-131204819D02*
X33091732Y-131204819D01*
X33377446Y-131204819D02*
X33377446Y-130204819D01*
X33377446Y-130204819D02*
X33282208Y-130347676D01*
X33282208Y-130347676D02*
X33186970Y-130442914D01*
X33186970Y-130442914D02*
X33091732Y-130490533D01*
X34520303Y-130538152D02*
X34520303Y-131204819D01*
X34282208Y-130157200D02*
X34044113Y-130871485D01*
X34044113Y-130871485D02*
X34663160Y-130871485D01*
X93777445Y-135150057D02*
X93682207Y-135102438D01*
X93682207Y-135102438D02*
X93586969Y-135007200D01*
X93586969Y-135007200D02*
X93444112Y-134864342D01*
X93444112Y-134864342D02*
X93348874Y-134816723D01*
X93348874Y-134816723D02*
X93253636Y-134816723D01*
X93301255Y-135054819D02*
X93206017Y-135007200D01*
X93206017Y-135007200D02*
X93110779Y-134911961D01*
X93110779Y-134911961D02*
X93063160Y-134721485D01*
X93063160Y-134721485D02*
X93063160Y-134388152D01*
X93063160Y-134388152D02*
X93110779Y-134197676D01*
X93110779Y-134197676D02*
X93206017Y-134102438D01*
X93206017Y-134102438D02*
X93301255Y-134054819D01*
X93301255Y-134054819D02*
X93491731Y-134054819D01*
X93491731Y-134054819D02*
X93586969Y-134102438D01*
X93586969Y-134102438D02*
X93682207Y-134197676D01*
X93682207Y-134197676D02*
X93729826Y-134388152D01*
X93729826Y-134388152D02*
X93729826Y-134721485D01*
X93729826Y-134721485D02*
X93682207Y-134911961D01*
X93682207Y-134911961D02*
X93586969Y-135007200D01*
X93586969Y-135007200D02*
X93491731Y-135054819D01*
X93491731Y-135054819D02*
X93301255Y-135054819D01*
X94063160Y-134054819D02*
X94682207Y-134054819D01*
X94682207Y-134054819D02*
X94348874Y-134435771D01*
X94348874Y-134435771D02*
X94491731Y-134435771D01*
X94491731Y-134435771D02*
X94586969Y-134483390D01*
X94586969Y-134483390D02*
X94634588Y-134531009D01*
X94634588Y-134531009D02*
X94682207Y-134626247D01*
X94682207Y-134626247D02*
X94682207Y-134864342D01*
X94682207Y-134864342D02*
X94634588Y-134959580D01*
X94634588Y-134959580D02*
X94586969Y-135007200D01*
X94586969Y-135007200D02*
X94491731Y-135054819D01*
X94491731Y-135054819D02*
X94206017Y-135054819D01*
X94206017Y-135054819D02*
X94110779Y-135007200D01*
X94110779Y-135007200D02*
X94063160Y-134959580D01*
X26739350Y-113874819D02*
X26739350Y-114589104D01*
X26739350Y-114589104D02*
X26691731Y-114731961D01*
X26691731Y-114731961D02*
X26596493Y-114827200D01*
X26596493Y-114827200D02*
X26453636Y-114874819D01*
X26453636Y-114874819D02*
X26358398Y-114874819D01*
X27358398Y-114303390D02*
X27263160Y-114255771D01*
X27263160Y-114255771D02*
X27215541Y-114208152D01*
X27215541Y-114208152D02*
X27167922Y-114112914D01*
X27167922Y-114112914D02*
X27167922Y-114065295D01*
X27167922Y-114065295D02*
X27215541Y-113970057D01*
X27215541Y-113970057D02*
X27263160Y-113922438D01*
X27263160Y-113922438D02*
X27358398Y-113874819D01*
X27358398Y-113874819D02*
X27548874Y-113874819D01*
X27548874Y-113874819D02*
X27644112Y-113922438D01*
X27644112Y-113922438D02*
X27691731Y-113970057D01*
X27691731Y-113970057D02*
X27739350Y-114065295D01*
X27739350Y-114065295D02*
X27739350Y-114112914D01*
X27739350Y-114112914D02*
X27691731Y-114208152D01*
X27691731Y-114208152D02*
X27644112Y-114255771D01*
X27644112Y-114255771D02*
X27548874Y-114303390D01*
X27548874Y-114303390D02*
X27358398Y-114303390D01*
X27358398Y-114303390D02*
X27263160Y-114351009D01*
X27263160Y-114351009D02*
X27215541Y-114398628D01*
X27215541Y-114398628D02*
X27167922Y-114493866D01*
X27167922Y-114493866D02*
X27167922Y-114684342D01*
X27167922Y-114684342D02*
X27215541Y-114779580D01*
X27215541Y-114779580D02*
X27263160Y-114827200D01*
X27263160Y-114827200D02*
X27358398Y-114874819D01*
X27358398Y-114874819D02*
X27548874Y-114874819D01*
X27548874Y-114874819D02*
X27644112Y-114827200D01*
X27644112Y-114827200D02*
X27691731Y-114779580D01*
X27691731Y-114779580D02*
X27739350Y-114684342D01*
X27739350Y-114684342D02*
X27739350Y-114493866D01*
X27739350Y-114493866D02*
X27691731Y-114398628D01*
X27691731Y-114398628D02*
X27644112Y-114351009D01*
X27644112Y-114351009D02*
X27548874Y-114303390D01*
X83577445Y-98570057D02*
X83482207Y-98522438D01*
X83482207Y-98522438D02*
X83386969Y-98427200D01*
X83386969Y-98427200D02*
X83244112Y-98284342D01*
X83244112Y-98284342D02*
X83148874Y-98236723D01*
X83148874Y-98236723D02*
X83053636Y-98236723D01*
X83101255Y-98474819D02*
X83006017Y-98427200D01*
X83006017Y-98427200D02*
X82910779Y-98331961D01*
X82910779Y-98331961D02*
X82863160Y-98141485D01*
X82863160Y-98141485D02*
X82863160Y-97808152D01*
X82863160Y-97808152D02*
X82910779Y-97617676D01*
X82910779Y-97617676D02*
X83006017Y-97522438D01*
X83006017Y-97522438D02*
X83101255Y-97474819D01*
X83101255Y-97474819D02*
X83291731Y-97474819D01*
X83291731Y-97474819D02*
X83386969Y-97522438D01*
X83386969Y-97522438D02*
X83482207Y-97617676D01*
X83482207Y-97617676D02*
X83529826Y-97808152D01*
X83529826Y-97808152D02*
X83529826Y-98141485D01*
X83529826Y-98141485D02*
X83482207Y-98331961D01*
X83482207Y-98331961D02*
X83386969Y-98427200D01*
X83386969Y-98427200D02*
X83291731Y-98474819D01*
X83291731Y-98474819D02*
X83101255Y-98474819D01*
X84482207Y-98474819D02*
X83910779Y-98474819D01*
X84196493Y-98474819D02*
X84196493Y-97474819D01*
X84196493Y-97474819D02*
X84101255Y-97617676D01*
X84101255Y-97617676D02*
X84006017Y-97712914D01*
X84006017Y-97712914D02*
X83910779Y-97760533D01*
X83506017Y-133454819D02*
X83172684Y-132978628D01*
X82934589Y-133454819D02*
X82934589Y-132454819D01*
X82934589Y-132454819D02*
X83315541Y-132454819D01*
X83315541Y-132454819D02*
X83410779Y-132502438D01*
X83410779Y-132502438D02*
X83458398Y-132550057D01*
X83458398Y-132550057D02*
X83506017Y-132645295D01*
X83506017Y-132645295D02*
X83506017Y-132788152D01*
X83506017Y-132788152D02*
X83458398Y-132883390D01*
X83458398Y-132883390D02*
X83410779Y-132931009D01*
X83410779Y-132931009D02*
X83315541Y-132978628D01*
X83315541Y-132978628D02*
X82934589Y-132978628D01*
X83839351Y-132454819D02*
X84506017Y-132454819D01*
X84506017Y-132454819D02*
X84077446Y-133454819D01*
X77706017Y-123254819D02*
X77372684Y-122778628D01*
X77134589Y-123254819D02*
X77134589Y-122254819D01*
X77134589Y-122254819D02*
X77515541Y-122254819D01*
X77515541Y-122254819D02*
X77610779Y-122302438D01*
X77610779Y-122302438D02*
X77658398Y-122350057D01*
X77658398Y-122350057D02*
X77706017Y-122445295D01*
X77706017Y-122445295D02*
X77706017Y-122588152D01*
X77706017Y-122588152D02*
X77658398Y-122683390D01*
X77658398Y-122683390D02*
X77610779Y-122731009D01*
X77610779Y-122731009D02*
X77515541Y-122778628D01*
X77515541Y-122778628D02*
X77134589Y-122778628D01*
X78039351Y-122254819D02*
X78658398Y-122254819D01*
X78658398Y-122254819D02*
X78325065Y-122635771D01*
X78325065Y-122635771D02*
X78467922Y-122635771D01*
X78467922Y-122635771D02*
X78563160Y-122683390D01*
X78563160Y-122683390D02*
X78610779Y-122731009D01*
X78610779Y-122731009D02*
X78658398Y-122826247D01*
X78658398Y-122826247D02*
X78658398Y-123064342D01*
X78658398Y-123064342D02*
X78610779Y-123159580D01*
X78610779Y-123159580D02*
X78563160Y-123207200D01*
X78563160Y-123207200D02*
X78467922Y-123254819D01*
X78467922Y-123254819D02*
X78182208Y-123254819D01*
X78182208Y-123254819D02*
X78086970Y-123207200D01*
X78086970Y-123207200D02*
X78039351Y-123159580D01*
X92591731Y-129931009D02*
X92734588Y-129978628D01*
X92734588Y-129978628D02*
X92782207Y-130026247D01*
X92782207Y-130026247D02*
X92829826Y-130121485D01*
X92829826Y-130121485D02*
X92829826Y-130264342D01*
X92829826Y-130264342D02*
X92782207Y-130359580D01*
X92782207Y-130359580D02*
X92734588Y-130407200D01*
X92734588Y-130407200D02*
X92639350Y-130454819D01*
X92639350Y-130454819D02*
X92258398Y-130454819D01*
X92258398Y-130454819D02*
X92258398Y-129454819D01*
X92258398Y-129454819D02*
X92591731Y-129454819D01*
X92591731Y-129454819D02*
X92686969Y-129502438D01*
X92686969Y-129502438D02*
X92734588Y-129550057D01*
X92734588Y-129550057D02*
X92782207Y-129645295D01*
X92782207Y-129645295D02*
X92782207Y-129740533D01*
X92782207Y-129740533D02*
X92734588Y-129835771D01*
X92734588Y-129835771D02*
X92686969Y-129883390D01*
X92686969Y-129883390D02*
X92591731Y-129931009D01*
X92591731Y-129931009D02*
X92258398Y-129931009D01*
X93163160Y-129454819D02*
X93829826Y-129454819D01*
X93829826Y-129454819D02*
X93163160Y-130454819D01*
X93163160Y-130454819D02*
X93829826Y-130454819D01*
X94734588Y-130454819D02*
X94163160Y-130454819D01*
X94448874Y-130454819D02*
X94448874Y-129454819D01*
X94448874Y-129454819D02*
X94353636Y-129597676D01*
X94353636Y-129597676D02*
X94258398Y-129692914D01*
X94258398Y-129692914D02*
X94163160Y-129740533D01*
D11*
%TO.C,J1*%
X69702684Y-93070000D02*
X69702684Y-95730000D01*
X85002684Y-93070000D02*
X69702684Y-93070000D01*
X85002684Y-93070000D02*
X85002684Y-95730000D01*
X85002684Y-95730000D02*
X69702684Y-95730000D01*
X86272684Y-93070000D02*
X87602684Y-93070000D01*
X87602684Y-93070000D02*
X87602684Y-94400000D01*
%TO.C,U1*%
X37032684Y-106700000D02*
X37032684Y-127479999D01*
X87892684Y-106700001D02*
X37032684Y-106700000D01*
X87892684Y-120553333D02*
X87532684Y-120553333D01*
X87532684Y-120553333D02*
X87532684Y-113626667D01*
X37032684Y-127479999D02*
X87892684Y-127480000D01*
X87892684Y-127480000D02*
X87892684Y-120553333D01*
X87532684Y-113626667D02*
X87892684Y-113626667D01*
X87892684Y-113626667D02*
X87892684Y-106700001D01*
%TO.C,Q2*%
X90210184Y-114410000D02*
X88535184Y-114410000D01*
X90210184Y-117530000D02*
X89560184Y-117530000D01*
X90210184Y-117530000D02*
X90860184Y-117530000D01*
X90210184Y-114410000D02*
X90860184Y-114410000D01*
%TO.C,D1*%
X94282684Y-126400000D02*
X90422684Y-126400000D01*
X94282684Y-124400000D02*
X90422684Y-124400000D01*
X94282684Y-126400000D02*
X94282684Y-124400000D01*
%TO.C,J11*%
X93472684Y-123600000D02*
X92142684Y-123600000D01*
X92142684Y-123600000D02*
X92142684Y-122270000D01*
X94802684Y-121000000D02*
X92142684Y-121000000D01*
X92142684Y-121000000D02*
X92142684Y-118400000D01*
X94802684Y-118400000D02*
X92142684Y-118400000D01*
X94802684Y-121000000D02*
X94802684Y-118400000D01*
%TO.C,R4*%
X83612684Y-122832379D02*
X83612684Y-123167621D01*
X84372684Y-122832379D02*
X84372684Y-123167621D01*
%TO.C,J12*%
X89872684Y-123600000D02*
X88542684Y-123600000D01*
X88542684Y-123600000D02*
X88542684Y-122270000D01*
X91202684Y-121000000D02*
X88542684Y-121000000D01*
X88542684Y-121000000D02*
X88542684Y-118400000D01*
X91202684Y-118400000D02*
X88542684Y-118400000D01*
X91202684Y-121000000D02*
X91202684Y-118400000D01*
%TO.C,J9*%
X28387684Y-109315000D02*
X28387684Y-111975000D01*
X33527684Y-111975000D02*
X28387684Y-111975000D01*
X33527684Y-109315000D02*
X28387684Y-109315000D01*
X33527684Y-109315000D02*
X33527684Y-111975000D01*
X36127684Y-111975000D02*
X34797684Y-111975000D01*
X36127684Y-110645000D02*
X36127684Y-111975000D01*
%TO.C,J13*%
X89650184Y-100507500D02*
X89650184Y-99177500D01*
X89650184Y-99177500D02*
X90980184Y-99177500D01*
X92250184Y-101837500D02*
X92250184Y-99177500D01*
X92250184Y-101837500D02*
X94850184Y-101837500D01*
X92250184Y-99177500D02*
X94850184Y-99177500D01*
X94850184Y-101837500D02*
X94850184Y-99177500D01*
%TO.C,J3*%
X36962684Y-102870000D02*
X36962684Y-105530000D01*
X85282684Y-105530000D02*
X36962684Y-105530000D01*
X85282684Y-102870000D02*
X36962684Y-102870000D01*
X85282684Y-102870000D02*
X85282684Y-105530000D01*
X87882684Y-105530000D02*
X86552684Y-105530000D01*
X87882684Y-104200000D02*
X87882684Y-105530000D01*
%TO.C,J2*%
X36942684Y-128870000D02*
X36942684Y-131530000D01*
X85262684Y-131530000D02*
X36942684Y-131530000D01*
X85262684Y-128870000D02*
X36942684Y-128870000D01*
X85262684Y-128870000D02*
X85262684Y-131530000D01*
X87862684Y-131530000D02*
X86532684Y-131530000D01*
X87862684Y-130200000D02*
X87862684Y-131530000D01*
%TO.C,R1*%
X77447408Y-102122500D02*
X76937960Y-102122500D01*
X77447408Y-101077500D02*
X76937960Y-101077500D01*
%TO.C,J4*%
X64722684Y-99270000D02*
X64722684Y-101930000D01*
X72402684Y-101930000D02*
X64722684Y-101930000D01*
X72402684Y-99270000D02*
X64722684Y-99270000D01*
X72402684Y-99270000D02*
X72402684Y-101930000D01*
X75002684Y-101930000D02*
X73672684Y-101930000D01*
X75002684Y-100600000D02*
X75002684Y-101930000D01*
%TO.C,R2*%
X77447408Y-100522500D02*
X76937960Y-100522500D01*
X77447408Y-99477500D02*
X76937960Y-99477500D01*
%TO.C,J6*%
X28587684Y-120515000D02*
X28587684Y-123175000D01*
X33727684Y-123175000D02*
X28587684Y-123175000D01*
X33727684Y-120515000D02*
X28587684Y-120515000D01*
X33727684Y-120515000D02*
X33727684Y-123175000D01*
X36327684Y-123175000D02*
X34997684Y-123175000D01*
X36327684Y-121845000D02*
X36327684Y-123175000D01*
%TO.C,J7*%
X28462684Y-116890000D02*
X28462684Y-119550000D01*
X33602684Y-119550000D02*
X28462684Y-119550000D01*
X33602684Y-116890000D02*
X28462684Y-116890000D01*
X33602684Y-116890000D02*
X33602684Y-119550000D01*
X36202684Y-119550000D02*
X34872684Y-119550000D01*
X36202684Y-118220000D02*
X36202684Y-119550000D01*
%TO.C,J10*%
X89630184Y-104107500D02*
X89630184Y-102777500D01*
X89630184Y-102777500D02*
X90960184Y-102777500D01*
X92230184Y-105437500D02*
X92230184Y-102777500D01*
X92230184Y-105437500D02*
X94830184Y-105437500D01*
X92230184Y-102777500D02*
X94830184Y-102777500D01*
X94830184Y-105437500D02*
X94830184Y-102777500D01*
%TO.C,J5*%
X28462684Y-124090000D02*
X28462684Y-126750000D01*
X33602684Y-126750000D02*
X28462684Y-126750000D01*
X33602684Y-124090000D02*
X28462684Y-124090000D01*
X33602684Y-124090000D02*
X33602684Y-126750000D01*
X36202684Y-126750000D02*
X34872684Y-126750000D01*
X36202684Y-125420000D02*
X36202684Y-126750000D01*
%TO.C,J14*%
X28452684Y-131245000D02*
X28452684Y-133905000D01*
X31052684Y-133905000D02*
X28452684Y-133905000D01*
X31052684Y-131245000D02*
X28452684Y-131245000D01*
X31052684Y-131245000D02*
X31052684Y-133905000D01*
X33652684Y-133905000D02*
X32322684Y-133905000D01*
X33652684Y-132575000D02*
X33652684Y-133905000D01*
%TO.C,Q3*%
X92875184Y-133840000D02*
X92395184Y-133840000D01*
X92635184Y-133510000D01*
X92875184Y-133840000D01*
G36*
X92875184Y-133840000D02*
G01*
X92395184Y-133840000D01*
X92635184Y-133510000D01*
X92875184Y-133840000D01*
G37*
X91472684Y-133560000D02*
X90822684Y-133560000D01*
X91472684Y-130440000D02*
X90822684Y-130440000D01*
X91472684Y-133560000D02*
X92122684Y-133560000D01*
X91472684Y-130440000D02*
X92122684Y-130440000D01*
%TO.C,J8*%
X28462684Y-113090000D02*
X28462684Y-115750000D01*
X33602684Y-115750000D02*
X28462684Y-115750000D01*
X33602684Y-113090000D02*
X28462684Y-113090000D01*
X33602684Y-113090000D02*
X33602684Y-115750000D01*
X36202684Y-115750000D02*
X34872684Y-115750000D01*
X36202684Y-114420000D02*
X36202684Y-115750000D01*
%TO.C,Q1*%
X82872684Y-98860000D02*
X81197684Y-98860000D01*
X82872684Y-101980000D02*
X82222684Y-101980000D01*
X82872684Y-101980000D02*
X83522684Y-101980000D01*
X82872684Y-98860000D02*
X83522684Y-98860000D01*
%TO.C,R7*%
X86245620Y-133935000D02*
X86699748Y-133935000D01*
X86245620Y-132465000D02*
X86699748Y-132465000D01*
%TO.C,R3*%
X76012684Y-122632379D02*
X76012684Y-122967621D01*
X76772684Y-122632379D02*
X76772684Y-122967621D01*
%TO.C,BZ1*%
X89077684Y-127070000D02*
X89077684Y-129730000D01*
X91677684Y-129730000D02*
X89077684Y-129730000D01*
X91677684Y-127070000D02*
X89077684Y-127070000D01*
X91677684Y-127070000D02*
X91677684Y-129730000D01*
X94277684Y-127070000D02*
X94277684Y-128400000D01*
X92947684Y-127070000D02*
X94277684Y-127070000D01*
%TD*%
M02*
