M48
; DRILL file {KiCad 7.0.9} date Wed Apr 17 16:55:54 2024
; FORMAT={-:-/ absolute / metric / decimal}
; #@! TF.CreationDate,2024-04-17T16:55:54+03:00
; #@! TF.GenerationSoftware,Kicad,Pcbnew,7.0.9
; #@! TF.FileFunction,Plated,1,2,PTH
FMAT,2
METRIC
; #@! TA.AperFunction,Plated,PTH,ViaDrill
T1C0.400
; #@! TA.AperFunction,Plated,PTH,ComponentDrill
T2C1.000
; #@! TA.AperFunction,Plated,PTH,ComponentDrill
T3C1.100
%
G90
G05
T1
X22.2Y-37.2
X29.0Y-40.8
X29.2Y-45.0
X29.55Y-34.05
X36.2Y-44.8
X37.15Y-34.05
X37.4Y-41.0
X44.75Y-34.05
X44.8Y-43.0
X52.35Y-34.05
X52.4Y-43.0
X59.95Y-34.05
X60.0Y-42.6
X67.55Y-34.05
X67.6Y-42.4
X75.0Y-37.4
T2
X27.4Y-42.8
X29.94Y-42.8
X32.48Y-42.8
X35.02Y-42.8
X37.56Y-42.8
X40.1Y-42.8
X42.64Y-42.8
T3
X27.3Y-30.8
X27.3Y-37.3
X31.8Y-30.8
X31.8Y-37.3
X34.9Y-30.8
X34.9Y-37.3
X39.4Y-30.8
X39.4Y-37.3
X42.5Y-30.8
X42.5Y-37.3
X47.0Y-30.8
X47.0Y-37.3
X50.1Y-30.8
X50.1Y-37.3
X54.6Y-30.8
X54.6Y-37.3
X57.7Y-30.8
X57.7Y-37.3
X62.2Y-30.8
X62.2Y-37.3
X65.3Y-30.8
X65.3Y-37.3
X69.8Y-30.8
X69.8Y-37.3
T0
M30
